<?xml version="1.0" standalone="no"?>
<!DOCTYPE svg PUBLIC "-//W3C//DTD SVG 1.1//EN" "http://www.w3.org/Graphics/SVG/1.1/DTD/svg11.dtd" >
<svg xmlns="http://www.w3.org/2000/svg">
<metadata></metadata>
<defs>
<font id="masonsans_alternatebold" horiz-adv-x="1372" >
<font-face units-per-em="2048" ascent="1638" descent="-410" />
<missing-glyph horiz-adv-x="471" />
<glyph horiz-adv-x="2048" />
<glyph horiz-adv-x="2048" />
<glyph unicode="&#xd;" horiz-adv-x="2048" />
<glyph unicode=" "  horiz-adv-x="471" />
<glyph unicode="&#x09;" horiz-adv-x="471" />
<glyph unicode="&#xa0;" horiz-adv-x="471" />
<glyph unicode="!" horiz-adv-x="675" d="M129 109l178 178l178 -178l-178 -179zM193 395v879h229v-879h-229z" />
<glyph unicode="&#x22;" horiz-adv-x="962" d="M152 1153l127 158l127 -158l-111 -332h-33zM559 1153l127 158l127 -158l-111 -332h-32z" />
<glyph unicode="#" horiz-adv-x="1185" d="M102 203v145h217l43 209h-260v145h289l49 238h148l-49 -238h202l50 238h147l-49 -238h194v-145h-223l-43 -209h266v-145h-297l-49 -242h-145l49 242h-205l-49 -242h-145l49 242h-189zM465 348h205l43 209h-205z" />
<glyph unicode="$" horiz-adv-x="798" d="M41 152l143 143q40 -40 61 -59t55.5 -40t68.5 -28v209q-16 10 -52 26q-225 112 -225 265q0 112 80 184.5t197 81.5v86h88v-88q91 -14 245 -113l-112 -164q-90 55 -133 70v-147q88 -46 144 -88t93 -100.5t37 -127.5q0 -103 -75 -186t-199 -103v-84h-88v80 q-172 14 -328 183zM309 684q0 -39 60 -66v115q-25 -5 -42.5 -17.5t-17.5 -31.5zM457 176q57 22 57 74q0 36 -57 78v-152z" />
<glyph unicode="%" horiz-adv-x="1382" d="M121 690q0 100 70.5 171t170.5 71t171 -71t71 -171q0 -99 -71 -169t-171 -70t-170.5 69.5t-70.5 169.5zM223 -51l733 983h207l-733 -983h-207zM281 690q0 -34 23.5 -58t57.5 -24t59 24t25 58t-25 59t-59 25q-33 0 -57 -25t-24 -59zM799 188q0 100 70.5 170t170.5 70 t170 -70t70 -170q0 -101 -70 -170t-170 -69t-170.5 69t-70.5 170zM956 188q0 -34 25 -58t59 -24t58 24t24 58t-24 58t-58 24t-59 -24t-25 -58z" />
<glyph unicode="&#x26;" horiz-adv-x="1116" d="M90 289q0 84 53 154.5t144 103.5q-88 76 -88 174q0 90 71 152.5t187 62.5t187.5 -72t90.5 -172l-182 -55q-16 123 -92 123q-23 0 -37 -16t-14 -39q0 -142 436 -142h160v-174h-156v-491h-209v106q-87 -20 -170 -20q-182 0 -281.5 87t-99.5 218zM311 272q0 -55 43.5 -88.5 t126.5 -33.5q92 0 160 45v194h-141q-71 0 -130 -32.5t-59 -84.5z" />
<glyph unicode="'" horiz-adv-x="614" d="M131 1153l148 158l147 -158l-131 -332h-33z" />
<glyph unicode="(" horiz-adv-x="688" d="M119 455q0 343 413 659l113 -121q-56 -59 -85.5 -93t-73 -92.5t-65.5 -105.5t-39 -112.5t-17 -134.5t17 -135t38.5 -113t66 -107t73 -92t85.5 -94l-113 -121q-413 306 -413 662z" />
<glyph unicode=")" horiz-adv-x="688" d="M29 -88q12 13 42 46t43 47.5t40 46t40 49.5t35 49.5t32.5 54.5t25 55t21 61t11.5 63.5t5 70.5q0 79 -21 150t-63.5 135.5t-81 110.5t-98.5 111q-21 22 -31 33l129 119q411 -317 411 -659q0 -184 -108.5 -350.5t-300.5 -309.5z" />
<glyph unicode="*" horiz-adv-x="1048" d="M123 848v115q71 3 119 10t87.5 23t63 39.5t40.5 62t24.5 87.5t11.5 120h115q4 -71 11 -118.5t23.5 -86.5t39.5 -62t62 -39.5t87 -24t119 -11.5v-115q-71 -4 -118.5 -11t-86.5 -23.5t-62 -40t-39.5 -62.5t-24 -88t-11.5 -121h-115q-3 71 -10.5 119.5t-23.5 88t-39.5 62.5 t-63 40t-88.5 24.5t-121 11.5z" />
<glyph unicode="+" horiz-adv-x="1366" d="M195 535v186h393v395h186v-395h393v-186h-393v-390h-186v390h-393z" />
<glyph unicode="," horiz-adv-x="675" d="M125 104l182 183l178 -178q-22 -83 -109 -191.5t-173 -171.5l-60 43q71 58 90.5 117t-9.5 109t-99 89z" />
<glyph unicode="-" horiz-adv-x="1038" d="M184 518v221h670v-221h-670z" />
<glyph unicode="." horiz-adv-x="675" d="M129 109l178 178l178 -178l-178 -179z" />
<glyph unicode="/" horiz-adv-x="937" d="M39 -31l651 1336h199l-653 -1336h-197z" />
<glyph unicode="0" horiz-adv-x="1009" d="M129 453q0 200 110.5 341.5t264.5 141.5q102 0 189 -64.5t137.5 -175.5t50.5 -243q0 -199 -111 -340.5t-266 -141.5q-154 0 -264.5 141.5t-110.5 340.5zM346 453q0 -114 45.5 -194.5t112.5 -80.5q68 0 114 80.5t46 194.5t-46 195t-114 81q-67 0 -112.5 -81t-45.5 -195z " />
<glyph unicode="1" horiz-adv-x="696" d="M244 0v905h209v-905h-209z" />
<glyph unicode="2" horiz-adv-x="874" d="M106 0v113q24 26 106 105.5t141.5 141t112 142t52.5 137.5q0 44 -26.5 75t-69.5 31q-84 0 -123 -147l-184 80q37 123 119 190.5t198 67.5q126 0 211.5 -86t85.5 -211q0 -45 -18.5 -95t-42.5 -90t-68 -91.5t-74 -83t-80 -80.5h283v-199h-623z" />
<glyph unicode="3" horiz-adv-x="868" d="M96 158l164 82q53 -84 133 -84q58 0 96.5 34.5t38.5 88.5q0 51 -39 86.5t-96 35.5q-19 0 -63 -12l-125 131q89 36 146 79t89 106h-295v200h603q-57 -225 -193 -348q79 -36 131.5 -110.5t52.5 -167.5q0 -127 -98.5 -218.5t-237.5 -91.5q-201 0 -307 189z" />
<glyph unicode="4" horiz-adv-x="894" d="M88 201v139l397 565h197v-522h100v-182h-100v-201h-211v201h-383zM342 383h129v184z" />
<glyph unicode="5" horiz-adv-x="933" d="M90 197l191 77q52 -122 155 -122q67 0 112.5 38t45.5 97q0 63 -45.5 99t-106.5 36q-96 0 -176 -74l-110 94l32 463h527v-198h-342l-8 -117q62 12 100 12q147 0 243.5 -89t96.5 -228q0 -129 -104 -222.5t-250 -93.5q-122 0 -208 52.5t-153 175.5z" />
<glyph unicode="6" horiz-adv-x="960" d="M115 354q0 65 16 131t54.5 136.5t96 132t147 116t200.5 88.5l106 -108q-259 -92 -344 -254q58 20 117 20q136 0 241 -96t105 -227q0 -132 -108.5 -228t-260.5 -96q-171 0 -270.5 107t-99.5 278zM334 295q0 -57 45 -96t110 -39t111.5 39t46.5 96q0 58 -46.5 97.5 t-111.5 39.5t-110 -39.5t-45 -97.5z" />
<glyph unicode="7" horiz-adv-x="837" d="M104 707v198h682l-217 -528q-64 -160 -144.5 -268t-158.5 -156l-104 72q70 56 130.5 157t96.5 244l74 281h-359z" />
<glyph unicode="8" horiz-adv-x="925" d="M115 248q0 132 133 225q-94 84 -94 195q0 108 88 188t217 80q132 0 219.5 -70.5t87.5 -169.5q0 -95 -82 -166l-162 68q5 6 17 18t15.5 18t8 18.5t4.5 29.5q0 29 -26.5 56.5t-73.5 27.5q-43 0 -75 -25t-32 -65q0 -80 119 -121q80 -29 133.5 -55t102.5 -63t72.5 -86 t23.5 -111q0 -103 -101.5 -187t-248.5 -84q-86 0 -155.5 27.5t-109 70t-60.5 89.5t-21 92zM342 248q0 -47 37.5 -75t87.5 -28q56 0 95.5 30.5t39.5 66.5q0 24 -11 43t-35 35t-44 26t-55 25q-115 -49 -115 -123z" />
<glyph unicode="9" horiz-adv-x="960" d="M106 612q0 132 108.5 228t260.5 96q174 0 272.5 -107t98.5 -278q0 -66 -16 -132.5t-54.5 -137.5t-96 -132.5t-147 -115.5t-200.5 -88l-105 110q256 89 342 254q-58 -20 -116 -20q-137 0 -242 95.5t-105 227.5zM313 608q0 -57 46.5 -96t111.5 -39t110.5 39t45.5 96 q0 58 -45.5 97.5t-110.5 39.5t-111.5 -39.5t-46.5 -97.5z" />
<glyph unicode=":" horiz-adv-x="675" d="M129 109l178 178l178 -178l-178 -179zM129 715l178 178l178 -178l-178 -178z" />
<glyph unicode=";" horiz-adv-x="675" d="M125 104l182 183l178 -178q-22 -83 -109 -191.5t-173 -171.5l-60 43q71 58 90.5 117t-9.5 109t-99 89zM129 715l178 178l178 -178l-178 -178z" />
<glyph unicode="&#x3c;" horiz-adv-x="1011" d="M113 1151l168 168l182 -182q-108 -60 -116 -142.5t97 -173.5l-59 -43q-81 60 -165 173.5t-107 199.5zM582 1151l168 168l182 -182q-108 -60 -116 -142.5t97 -173.5l-59 -43q-81 60 -165 173.5t-107 199.5z" />
<glyph unicode="=" horiz-adv-x="1366" d="M184 315v189h998v-189h-998zM184 741v187h998v-187h-998z" />
<glyph unicode="&#x3e;" horiz-adv-x="1011" d="M96 1137l183 182l167 -168q-23 -86 -107 -199.5t-165 -173.5l-59 43q105 91 97 173.5t-116 142.5zM565 1137l183 182l167 -168q-23 -86 -107 -199.5t-165 -173.5l-59 43q105 91 97 173.5t-116 142.5z" />
<glyph unicode="?" horiz-adv-x="1024" d="M129 1251q86 30 148.5 42t156.5 12q215 0 348 -93.5t133 -267.5q0 -41 -10.5 -80.5t-40.5 -85.5t-77 -86t-126.5 -77.5t-183.5 -63.5v-182h-229v331q163 14 241 45q80 33 136.5 82.5t56.5 104.5q0 178 -256 178q-95 0 -168.5 -24t-116.5 -62zM188 109l179 178l178 -178 l-178 -179z" />
<glyph unicode="@" horiz-adv-x="1673" d="M184 600q0 194 94.5 356.5t257.5 255.5t359 93q239 0 388 -137t149 -357q0 -136 -56.5 -254.5t-144 -186t-180.5 -67.5q-54 0 -94 23.5t-50 54.5q-89 -66 -178 -66q-115 0 -178.5 98t-38.5 238t123 239t213 99q121 0 182 -104l27 90h129l-129 -447q-24 -88 -19.5 -115.5 t37.5 -27.5q36 0 78.5 33t79.5 86t61.5 129t24.5 153q0 159 -113 272t-288 113q-114 0 -218 -45.5t-179.5 -123.5t-120 -186.5t-44.5 -229.5q0 -140 69 -257t183 -183t246 -66q178 0 324 87.5t231 235.5h80q-37 -84 -100 -162t-146 -141t-188.5 -101t-214.5 -38 q-186 0 -336 82.5t-235 229t-85 327.5zM664 659q-17 -80 9 -138.5t83 -59.5q55 -3 105 50t69 132q17 80 -9 139t-83 62q-55 3 -105 -51.5t-69 -133.5z" />
<glyph unicode="A" d="M96 51l557 1254h68l557 -1254l-213 -94l-100 227h-555l-101 -227zM508 406h358l-180 403z" />
<glyph unicode="B" horiz-adv-x="1351" d="M246 0v1274h510q162 0 269.5 -88.5t107.5 -216.5q0 -69 -38.5 -130.5t-105.5 -105.5q103 -52 165.5 -142.5t62.5 -197.5q0 -190 -125 -291.5t-332 -101.5h-514zM475 221h232q262 0 262 185q0 76 -77 130t-185 54h-232v-369zM475 807h227q82 0 134.5 36.5t52.5 88.5 t-52.5 88.5t-134.5 36.5h-227v-250z" />
<glyph unicode="C" horiz-adv-x="1523" d="M164 637q0 190 101.5 344t273.5 239t379 85q240 0 421 -105v-266q-70 67 -172 104t-225 37q-143 0 -262 -55t-189.5 -156t-70.5 -227q0 -193 146.5 -315.5t375.5 -122.5q117 0 220.5 38.5t176.5 108.5v-268q-188 -109 -421 -109q-216 0 -388.5 85.5t-269 238t-96.5 344.5 z" />
<glyph unicode="D" horiz-adv-x="1587" d="M246 0v1274h422q236 0 413 -72t278 -217t101 -348q0 -194 -100 -339t-279 -221.5t-413 -76.5h-422zM475 221h213q236 0 377 110.5t141 305.5q0 205 -138.5 310.5t-379.5 105.5h-213v-832z" />
<glyph unicode="E" horiz-adv-x="1157" d="M246 0v1274h723v-221h-494v-244h293l47 47l158 -158l-158 -157l-47 47h-293v-367h526v-221h-755z" />
<glyph unicode="F" horiz-adv-x="1064" d="M246 0v1274h723v-221h-494v-244h293l47 47l158 -158l-158 -157l-47 47h-293v-588h-229z" />
<glyph unicode="G" horiz-adv-x="1576" d="M164 637q0 190 101.5 344t273.5 239t379 85q240 0 421 -105v-266q-70 67 -172 104t-225 37q-143 0 -262 -55t-189.5 -156t-70.5 -227q0 -193 146.5 -315.5t375.5 -122.5q85 0 168 22v154h-135v196h469v-196h-105v-297q-188 -109 -421 -109q-216 0 -388.5 85.5t-269 238 t-96.5 344.5z" />
<glyph unicode="H" horiz-adv-x="1622" d="M246 0v1274h229v-471l672 -47v518h229v-1274h-229v541l-672 47v-588h-229z" />
<glyph unicode="I" horiz-adv-x="761" d="M223 1548l158 158l158 -158l-158 -157zM266 0v1274h230v-1274h-230z" />
<glyph unicode="J" horiz-adv-x="761" d="M223 1548l158 158l158 -158l-158 -157zM266 -467v1741h230v-1507z" />
<glyph unicode="K" horiz-adv-x="1394" d="M246 0v1274h229v-432l432 432h287l-516 -516l690 -758h-313l-580 637v-637h-229z" />
<glyph unicode="L" horiz-adv-x="1044" d="M246 0v1274h229v-1053h543v-221h-772z" />
<glyph unicode="M" horiz-adv-x="1968" d="M246 0v1401q101 -4 160 -8q163 -11 294.5 -64t262.5 -147q114 -82 291 -122t384 -40h86v-1020h-229v799q-81 2 -209 24t-186 51v-874h-230v989q-73 47 -119.5 73.5t-125 57.5t-150.5 39v-1159h-229z" />
<glyph unicode="N" horiz-adv-x="1544" d="M246 0v1274h229v-150l789 154l92 -1288l-230 -17l-73 1039l-578 -113v-899h-229z" />
<glyph unicode="O" horiz-adv-x="1724" d="M164 637q0 190 94 344t253.5 239t350.5 85q201 0 360.5 -85.5t249 -238t89.5 -344.5q0 -143 -55.5 -268t-149.5 -212.5t-222.5 -137.5t-271.5 -50q-200 0 -359.5 85.5t-249 238t-89.5 344.5zM403 637q0 -193 129 -315.5t330 -122.5q192 0 325.5 124t133.5 314 q0 193 -129 315.5t-330 122.5q-192 0 -325.5 -124t-133.5 -314zM705 637l157 158l158 -158l-158 -158z" />
<glyph unicode="P" horiz-adv-x="1146" d="M246 0v1274h434q182 0 293.5 -104t111.5 -271q0 -98 -59.5 -184.5t-158 -137.5t-208.5 -51h-184v-526h-229zM475 745h143q91 0 162.5 45.5t71.5 108.5q0 74 -57 115t-160 41h-160v-310z" />
<glyph unicode="Q" horiz-adv-x="1724" d="M164 637q0 190 94 344t253.5 239t350.5 85q201 0 360.5 -85.5t249 -238t89.5 -344.5q0 -129 -45 -243.5t-123 -199.5t-185.5 -142t-230.5 -75v-215h-229v215q-260 36 -422 217t-162 443zM403 637q0 -163 94.5 -278.5t250.5 -147.5v377h229v-377q151 36 247.5 151.5 t96.5 274.5q0 193 -129 315.5t-330 122.5q-192 0 -325.5 -124t-133.5 -314z" />
<glyph unicode="R" horiz-adv-x="1294" d="M246 0v1274h434q182 0 293.5 -104t111.5 -271q0 -105 -68 -196t-175 -138l456 -565h-297l-426 526h-100v-526h-229zM475 745h143q91 0 162.5 45.5t71.5 108.5q0 74 -57 115t-160 41h-160v-310z" />
<glyph unicode="S" horiz-adv-x="1024" d="M76 201l145 164q39 -42 63 -64.5t63.5 -52.5t83 -44t93.5 -14q65 0 113.5 43t48.5 117q0 63 -57.5 114t-208.5 134q-135 74 -211 160t-76 200q0 108 54 188.5t139.5 119.5t189.5 39q89 0 172.5 -38t181.5 -112l-112 -184q-79 59 -137 85.5t-115 26.5q-51 0 -92 -26.5 t-41 -79.5q0 -27 8.5 -47.5t29.5 -38.5t38 -28.5t54.5 -30.5t59.5 -33q86 -49 145.5 -92t112 -97t78 -118t25.5 -138q0 -76 -30 -146t-83.5 -123t-132.5 -84.5t-172 -31.5q-236 0 -430 232z" />
<glyph unicode="T" horiz-adv-x="1130" d="M70 1053v221h991v-221h-381v-1053h-229v1053h-381z" />
<glyph unicode="U" horiz-adv-x="1499" d="M246 391v883h229v-807q0 -131 73 -211t191 -80q97 0 177 56t108 141v901h229v-1274h-229v111q-69 -66 -160.5 -104t-191.5 -38q-190 0 -308 117.5t-118 304.5z" />
<glyph unicode="V" d="M96 1221l213 94l377 -858l379 858l213 -94l-557 -1260h-68z" />
<glyph unicode="W" horiz-adv-x="2048" d="M96 1221l213 94l377 -858l207 469l-129 295l213 94l377 -858l379 858l213 -94l-557 -1260h-68l-301 678l-299 -678h-68z" />
<glyph unicode="X" horiz-adv-x="1318" d="M70 119l434 536l-404 500l179 145l372 -462l375 462l178 -145l-403 -500l434 -536l-178 -146l-404 500l-405 -500z" />
<glyph unicode="Y" horiz-adv-x="1241" d="M72 1221l202 102l338 -561l338 561l203 -102l-426 -711v-510h-229v510z" />
<glyph unicode="Z" horiz-adv-x="1273" d="M147 0v86l316 506h-180v176h290l177 283h-531v221h885v-86l-260 -418h166v-176h-277l-231 -371h567v-221h-922z" />
<glyph unicode="[" horiz-adv-x="630" d="M176 -186v1261h356v-186h-137v-889h137v-186h-356z" />
<glyph unicode="\" horiz-adv-x="894" d="M80 942h178l553 -979h-176z" />
<glyph unicode="]" horiz-adv-x="630" d="M96 0h140v889h-140v186h359v-1261h-359v186z" />
<glyph unicode="^" horiz-adv-x="960" d="M33 588l411 717h66l412 -717h-226l-223 401l-223 -401h-217z" />
<glyph unicode="_" horiz-adv-x="1024" d="M-16 -358h1056v-84h-1056v84z" />
<glyph unicode="`" horiz-adv-x="681" d="M63 1282h302l116 -346h-86z" />
<glyph unicode="a" horiz-adv-x="976" d="M41 47l405 877h80l410 -877l-188 -84l-76 160h-369l-72 -160zM391 313h193l-99 209z" />
<glyph unicode="b" horiz-adv-x="1044" d="M184 0v905h381q125 0 207 -70.5t82 -166.5q0 -90 -80 -154q66 -40 102.5 -98.5t36.5 -126.5q0 -138 -94 -213.5t-250 -75.5h-385zM393 197h137q160 0 160 100q0 48 -46 73t-114 25h-137v-198zM393 578h135q45 0 76 19t31 46q0 33 -29.5 50.5t-77.5 17.5h-135v-133z" />
<glyph unicode="c" horiz-adv-x="1126" d="M123 451q0 135 74 246.5t200.5 175t278.5 63.5q169 0 319 -78v-248q-76 65 -147.5 94t-155.5 29q-141 0 -241.5 -81t-100.5 -201t97 -199.5t245 -79.5q160 0 303 129v-252q-160 -80 -319 -80q-241 0 -397 138t-156 344z" />
<glyph unicode="d" horiz-adv-x="1206" d="M184 0v905h320q263 0 421 -119t158 -335q0 -204 -160 -327.5t-419 -123.5h-320zM393 197h125q155 0 246.5 66.5t91.5 187.5q0 127 -90.5 191.5t-247.5 64.5h-125v-510z" />
<glyph unicode="e" horiz-adv-x="870" d="M184 0v905h555v-198h-346v-125h174l43 43l142 -142l-142 -141l-41 41h-176v-186h369v-197h-578z" />
<glyph unicode="f" horiz-adv-x="841" d="M184 0v905h555v-198h-346v-125h174l43 43l142 -142l-142 -141l-41 41h-176v-383h-209z" />
<glyph unicode="g" horiz-adv-x="1150" d="M123 451q0 135 74 246.5t200.5 175t278.5 63.5q169 0 319 -78v-248q-76 65 -147.5 94t-155.5 29q-141 0 -241.5 -81t-100.5 -201t97 -199.5t245 -79.5q44 0 92 10v70h-94v180h377v-180h-72v-203q-160 -80 -319 -80q-241 0 -397 138t-156 344z" />
<glyph unicode="h" horiz-adv-x="1208" d="M184 0v905h209v-319l422 -29v348h209v-905h-209v365l-422 26v-391h-209z" />
<glyph unicode="i" horiz-adv-x="606" d="M162 1165l141 142l141 -142l-141 -141zM199 0v905h209v-905h-209z" />
<glyph unicode="j" horiz-adv-x="606" d="M162 1165l141 142l141 -142l-141 -141zM199 -348v1253h209v-1046z" />
<glyph unicode="k" horiz-adv-x="1044" d="M184 0v905h209v-260l269 260h272l-387 -373l506 -532h-289l-371 389v-389h-209z" />
<glyph unicode="l" horiz-adv-x="823" d="M184 0v905h209v-708h381v-197h-590z" />
<glyph unicode="m" horiz-adv-x="1454" d="M184 0v987q99 -2 140 -4q212 -15 401 -145q150 -105 459 -105h86v-733h-211v537q-135 9 -228 38v-575h-208v674q-137 81 -228 98v-772h-211z" />
<glyph unicode="n" horiz-adv-x="1136" d="M184 0v905h209v-96l553 102l66 -917l-209 -14l-51 694l-359 -68v-606h-209z" />
<glyph unicode="o" horiz-adv-x="1271" d="M123 451q0 135 68.5 247t186.5 175t259 63q222 0 367 -138.5t145 -346.5q0 -134 -68.5 -245t-186 -174t-257.5 -63q-223 0 -368.5 137.5t-145.5 344.5zM340 451q0 -119 84 -199t213 -80q122 0 208.5 80.5t86.5 198.5q0 121 -83.5 201.5t-211.5 80.5q-123 0 -210 -81.5 t-87 -200.5zM506 451l131 131l131 -131l-131 -132z" />
<glyph unicode="p" horiz-adv-x="909" d="M184 0v905h328q139 0 224 -83.5t85 -211.5q0 -120 -96.5 -207.5t-226.5 -87.5h-105v-315h-209zM393 512h76q54 0 96.5 29t42.5 69q0 43 -34.5 71t-92.5 28h-88v-197z" />
<glyph unicode="q" horiz-adv-x="1271" d="M123 451q0 135 68.5 247t186.5 175t259 63q222 0 367 -138.5t145 -346.5q0 -178 -115.5 -309t-292.5 -162v-150h-211v147q-182 31 -294.5 162t-112.5 312zM340 451q0 -93 52 -165.5t138 -97.5v244h211v-244q84 27 137.5 99.5t53.5 163.5q0 121 -83.5 201.5t-211.5 80.5 q-123 0 -210 -81.5t-87 -200.5z" />
<glyph unicode="r" horiz-adv-x="958" d="M166 0v905h328q139 0 224 -84t85 -211q0 -71 -37.5 -134.5t-99.5 -102.5l313 -373h-272l-265 315h-67v-315h-209zM375 512h76q54 0 96.5 29t42.5 69q0 43 -34.5 71t-92.5 28h-88v-197z" />
<glyph unicode="s" horiz-adv-x="817" d="M78 152l135 143q43 -46 67 -68t63.5 -41.5t80.5 -19.5q35 0 61.5 22.5t26.5 61.5q0 37 -39.5 70t-134.5 83q-213 113 -213 265q0 119 86 193.5t207 74.5q67 0 131.5 -28.5t150.5 -88.5l-104 -164q-70 46 -109.5 64t-74.5 18q-26 0 -48 -14t-22 -39q0 -19 11 -34 t24.5 -22.5t41 -21t44.5 -24.5q131 -72 198.5 -145.5t67.5 -174.5q0 -116 -88.5 -204.5t-228.5 -88.5q-179 0 -334 183z" />
<glyph unicode="t" horiz-adv-x="804" d="M31 707v198h743v-198h-268v-707h-209v707h-266z" />
<glyph unicode="u" horiz-adv-x="1105" d="M168 276v629h209v-577q0 -77 44.5 -123.5t117.5 -46.5q56 0 104.5 34.5t69.5 83.5v629h209v-905h-209v47q-116 -78 -221 -78q-144 0 -234 85.5t-90 221.5z" />
<glyph unicode="v" horiz-adv-x="1017" d="M61 862l197 82l248 -555l254 555l196 -82l-409 -889h-80z" />
<glyph unicode="w" horiz-adv-x="1484" d="M61 856l197 82l248 -549l119 256l-97 211l197 82l250 -549l252 549l196 -82l-407 -883h-82l-193 420l-194 -420h-80z" />
<glyph unicode="x" horiz-adv-x="968" d="M43 102l303 361l-285 340l164 127l258 -305l260 305l164 -127l-286 -340l305 -361l-164 -131l-279 332l-276 -332z" />
<glyph unicode="y" horiz-adv-x="897" d="M37 852l182 92l227 -364l230 364l184 -92l-309 -492v-360h-209v360z" />
<glyph unicode="z" horiz-adv-x="890" d="M80 0v90l199 309h-105v166h213l92 144h-350v196h666v-88l-160 -252h96v-166h-203l-133 -202h377v-197h-692z" />
<glyph unicode="{" horiz-adv-x="716" d="M61 389v129q160 26 160 70q0 24 -16.5 91t-16.5 99q0 134 115.5 228t310.5 94v-174q-94 0 -149 -43.5t-55 -104.5q0 -32 16 -99t16 -91q0 -35 -32.5 -78.5t-71.5 -58.5q40 -15 72 -57t32 -77q0 -23 -16 -89.5t-16 -98.5q0 -60 55 -103.5t149 -43.5v-175q-195 0 -310.5 94 t-115.5 228q0 32 16.5 98.5t16.5 89.5t-36 40.5t-124 31.5z" />
<glyph unicode="|" horiz-adv-x="1044" d="M412 -410v2048h221v-2048h-221z" />
<glyph unicode="}" horiz-adv-x="716" d="M102 -18q94 0 149.5 43.5t55.5 103.5q0 32 -16.5 98.5t-16.5 89.5q0 35 32.5 77t72.5 57q-39 15 -72 59t-33 78q0 24 16.5 91t16.5 99q0 60 -55.5 104t-149.5 44v174q195 0 310.5 -94t115.5 -228q0 -32 -16 -99t-16 -91q0 -44 159 -70v-129q-88 -14 -123.5 -31.5 t-35.5 -40.5t16 -89.5t16 -98.5q0 -134 -115.5 -228t-310.5 -94v175z" />
<glyph unicode="~" horiz-adv-x="1110" d="M78 477q1 135 73.5 228.5t174.5 93.5q54 0 107.5 -21t150.5 -82q132 -80 198 -80q125 0 144 185l86 -62q-5 -138 -73.5 -230.5t-168.5 -92.5q-57 0 -117 23.5t-161 84.5q-130 80 -191 80q-66 0 -112 -52.5t-50 -135.5z" />
<glyph unicode="&#xa1;" horiz-adv-x="675" d="M129 891l178 178l178 -178l-178 -178zM193 -274v878h229v-878h-229z" />
<glyph unicode="&#xa2;" horiz-adv-x="1126" d="M123 451q0 135 74 246.5t200.5 175t278.5 63.5q78 0 141 -14l101 202h116l-114 -233q16 -5 75 -33v-248q-83 72 -164 101l-256 -525q61 -14 117 -14q160 0 303 129v-252q-160 -80 -319 -80q-93 0 -193 27l-102 -207h-115l119 246q-123 62 -192.5 171.5t-69.5 244.5z M350 451q0 -69 34 -127t95 -97l246 504q-10 2 -33 2q-141 0 -241.5 -81t-100.5 -201z" />
<glyph unicode="&#xa3;" horiz-adv-x="882" d="M125 387v168h113q37 192 98 271t190 79q82 0 183 -33l-17 -186q-102 29 -139 29q-56 0 -75.5 -35.5t-31.5 -124.5h205v-168h-233l-33 -190h393v-197h-637l68 387h-84z" />
<glyph unicode="&#xa4;" horiz-adv-x="1179" d="M152 0v115q29 32 93 97t124 125t130 139t121 148.5t85 144.5t34 134q0 80 -48 135.5t-124 55.5q-72 0 -124 -58.5t-78 -144.5l-195 88q45 148 154 237t258 89q165 0 278 -117.5t113 -284.5q0 -41 -8.5 -82t-28 -84t-38.5 -79t-53.5 -80.5t-58 -75t-67 -76.5t-66.5 -70 t-69.5 -71t-63.5 -64h451v-221h-819z" />
<glyph unicode="&#xa5;" horiz-adv-x="1032" d="M84 199v120h328v41l-33 54h-295v121h219l-197 317l183 92l227 -364l229 364l185 -92l-201 -317h215v-121h-291l-32 -54v-41h323v-120h-323v-199h-209v199h-328z" />
<glyph unicode="&#xa6;" horiz-adv-x="1044" d="M418 -35v721h184v-721h-184zM418 948v721h184v-721h-184z" />
<glyph unicode="&#xa7;" horiz-adv-x="1302" d="M164 508q0 93 22 186.5t74 192t129 184t196 160t267 121.5l98 -109q-62 -23 -114 -47t-114.5 -63.5t-110 -85.5t-90 -112.5t-64.5 -143.5q25 28 94 49.5t139 21.5q120 0 225.5 -59.5t169.5 -163t64 -223.5q0 -121 -66 -224t-179.5 -163t-246.5 -60q-153 0 -266 70 t-170 191.5t-57 277.5zM408 420q0 -100 75.5 -170t182.5 -70t182.5 70t75.5 170t-75.5 169.5t-182.5 69.5t-182.5 -69.5t-75.5 -169.5z" />
<glyph unicode="&#xa8;" horiz-adv-x="679" d="M-18 1083l147 148l147 -148l-147 -147zM416 1083l147 148l148 -148l-148 -147z" />
<glyph unicode="&#xa9;" horiz-adv-x="1540" d="M102 637q0 182 89.5 335.5t243 243t335.5 89.5t335.5 -89.5t243 -243t89.5 -335.5t-89.5 -335.5t-243 -243t-335.5 -89.5t-335.5 89.5t-243 243t-89.5 335.5zM242 637q0 -143 71 -264.5t192.5 -192.5t264.5 -71t264.5 71t192.5 192.5t71 264.5t-71 264.5t-192.5 192.5 t-264.5 71t-264.5 -71t-192.5 -192.5t-71 -264.5zM369 637q0 173 121 290t296 117q130 0 242 -65v-207q-58 55 -111.5 78.5t-115.5 23.5q-105 0 -180.5 -68t-75.5 -169q0 -100 73 -167t183 -67q121 0 227 109v-211q-123 -68 -242 -68q-182 0 -299.5 115.5t-117.5 288.5z" />
<glyph unicode="&#xaa;" horiz-adv-x="0" />
<glyph unicode="&#xab;" horiz-adv-x="1146" d="M123 510l403 422l119 -82l-256 -340l256 -336l-119 -82zM555 510l299 387l119 -82l-191 -305l191 -299l-119 -82z" />
<glyph unicode="&#xac;" horiz-adv-x="1366" d="M141 768v190h1082v-596h-189v406h-893z" />
<glyph unicode="&#xad;" horiz-adv-x="1038" d="M184 518v221h670v-221h-670z" />
<glyph unicode="&#xae;" horiz-adv-x="1540" d="M102 637q0 182 89.5 335.5t243 243t335.5 89.5t335.5 -89.5t243 -243t89.5 -335.5q0 -222 -135 -404q93 -61 194 -75q33 -6 62 -9t56.5 -2t44.5 1.5t42 6t33 7.5t35 9.5t30 8.5l49 -100q-249 -115 -528 -19q-64 22 -129 58q-191 -150 -422 -150q-182 0 -335.5 89.5 t-243 243t-89.5 335.5zM242 637q0 -143 71 -264.5t192.5 -192.5t264.5 -71q161 0 297 92q-143 114 -319 309h-50v-264h-176v760h277q116 0 188 -70.5t72 -175.5q0 -113 -113 -199q29 -34 65 -69.5t89 -86.5t90 -88q108 143 108 320q0 143 -71 264.5t-192.5 192.5t-264.5 71 t-264.5 -71t-192.5 -192.5t-71 -264.5zM698 676h64q45 0 81 24.5t36 57.5q0 37 -29 60.5t-78 23.5h-74v-166z" />
<glyph unicode="&#xaf;" horiz-adv-x="681" d="M20 1051v209h644v-209h-644z" />
<glyph unicode="&#xb0;" horiz-adv-x="1251" d="M164 334q0 110 56.5 188.5t156.5 143.5q-158 126 -158 295q0 140 122 242t280 102q175 0 289 -86t114 -218q0 -78 -47.5 -150.5t-99.5 -100.5l-183 73q41 20 79 61t38 97t-47 100.5t-133 44.5q-75 0 -131 -44.5t-56 -110.5q0 -144 193 -213q86 -32 146 -59t121.5 -66 t98.5 -81.5t60.5 -102t23.5 -130.5q0 -90 -59.5 -170t-167 -130t-235.5 -50q-93 0 -171 23t-130.5 60.5t-89.5 86t-53.5 98t-16.5 97.5zM418 332q0 -77 64 -125.5t149 -48.5q99 0 164 50.5t65 115.5q0 41 -19.5 76.5t-56.5 63.5t-75 48.5t-91 42.5q-93 -38 -146.5 -91.5 t-53.5 -131.5z" />
<glyph unicode="&#xb1;" horiz-adv-x="1366" d="M195 0v186h972v-186h-972zM195 707v186h393v395h186v-395h393v-186h-393v-390h-186v390h-393z" />
<glyph unicode="&#xb2;" horiz-adv-x="868" d="M137 465v100q22 24 95.5 95.5t127.5 127t101 127.5t47 123q0 40 -24.5 68.5t-63.5 28.5q-77 0 -111 -134l-166 72q34 110 108 171t179 61q114 0 190 -77t76 -190q0 -51 -21 -103t-64.5 -107.5t-77 -91.5t-91.5 -93h254v-178h-559z" />
<glyph unicode="&#xb3;" horiz-adv-x="864" d="M127 606l147 74q47 -76 121 -76q51 0 86 32t35 79q0 45 -34.5 74.5t-86.5 29.5q-26 0 -57 -10l-113 119q80 31 131.5 70t79.5 96h-264v180h541q-53 -206 -172 -313q72 -33 119 -97.5t47 -148.5q0 -113 -89.5 -195t-214.5 -82q-182 0 -276 168z" />
<glyph unicode="&#xb4;" horiz-adv-x="681" d="M203 936l116 346h302l-332 -346h-86z" />
<glyph unicode="&#xb5;" horiz-adv-x="1105" d="M168 -291v1196h209v-577q0 -77 44.5 -123.5t117.5 -46.5q56 0 104.5 34.5t69.5 83.5v629h209v-905h-209v47q-116 -78 -221 -78q-56 0 -115 17v-277h-209z" />
<glyph unicode="&#xb6;" horiz-adv-x="1290" d="M123 895q0 157 111 268t268 111h448v-1684h-137v1557h-104v-189h-138v179h-127v-179h-168v-127h168v-176h127v176h138v-831h-138v518h-69q-157 0 -268 110t-111 267z" />
<glyph unicode="&#xb7;" horiz-adv-x="1302" d="M154 858q0 184 144 315.5t347 131.5q153 0 266 -70t170.5 -191.5t57.5 -277.5q0 -93 -22 -186.5t-74 -192t-129 -184t-196 -160t-267 -121.5l-99 109q62 23 114 47t114.5 63.5t110.5 85.5t90.5 112.5t64.5 143.5q-25 -28 -94.5 -49.5t-139.5 -21.5q-120 0 -225.5 59.5 t-169 163t-63.5 223.5zM379 854q0 -100 75.5 -170t182.5 -70t182.5 70t75.5 170t-75.5 170t-182.5 70t-182.5 -70t-75.5 -170z" />
<glyph unicode="&#xb8;" horiz-adv-x="681" d="M174 -395l29 49q14 -9 43 -15t49 -6q38 0 65 22.5t27 53.5q0 32 -27 55t-65 23q-36 0 -74 -23l-22 15l166 231h114l-73 -108q55 -21 88.5 -63.5t33.5 -94.5q0 -71 -60.5 -121.5t-145.5 -50.5q-73 0 -148 33z" />
<glyph unicode="&#xb9;" horiz-adv-x="708" d="M260 465v809h189v-809h-189z" />
<glyph unicode="&#xba;" horiz-adv-x="0" />
<glyph unicode="&#xbb;" horiz-adv-x="1146" d="M133 211l191 299l-191 305l119 82l299 -387l-299 -381zM461 174l256 336l-256 340l119 82l403 -422l-403 -418z" />
<glyph unicode="&#xbc;" horiz-adv-x="1923" d="M250 -31l995 1336h207l-995 -1336h-207zM260 465v809h189v-809h-189zM1051 174v125l356 510h178v-471h90v-164h-90v-174h-190v174h-344zM1278 338h117v166z" />
<glyph unicode="&#xbd;" horiz-adv-x="1943" d="M250 -31l995 1336h207l-995 -1336h-207zM260 465v809h189v-809h-189zM1169 0v100q22 24 95.5 95.5t127.5 127t101 127.5t47 123q0 40 -24.5 68.5t-63.5 28.5q-77 0 -111 -133l-165 71q34 110 108 171t178 61q114 0 190.5 -77t76.5 -190q0 -51 -21 -103t-64.5 -107.5 t-77 -91.5t-91.5 -93h254v-178h-560z" />
<glyph unicode="&#xbe;" horiz-adv-x="2007" d="M127 606l147 74q47 -76 121 -76q51 0 86 32t35 79q0 45 -34.5 74.5t-86.5 29.5q-26 0 -57 -10l-113 119q80 31 131.5 70t79.5 96h-264v180h541q-53 -206 -172 -313q72 -33 119 -97.5t47 -148.5q0 -113 -89.5 -195t-214.5 -82q-182 0 -276 168zM414 -31l995 1336h207 l-995 -1336h-207zM1174 174v125l356 510h178v-471h90v-164h-90v-174h-190v174h-344zM1401 338h117v166z" />
<glyph unicode="&#xbf;" horiz-adv-x="1024" d="M129 55q0 41 10.5 80.5t40.5 86t77 86t126.5 77.5t183.5 64v182h230v-332q-164 -14 -242 -45q-81 -33 -137 -82.5t-56 -103.5q0 -92 68.5 -135.5t187.5 -43.5q95 0 168.5 24t116.5 62l12 -227q-85 -30 -147.5 -41.5t-157.5 -11.5q-215 0 -348 93t-133 267zM500 891 l178 178l178 -178l-178 -178z" />
<glyph unicode="&#xc0;" d="M96 51l557 1254h68l557 -1254l-213 -94l-100 227h-555l-101 -227zM346 1794h301l117 -346h-86zM508 406h358l-180 403z" />
<glyph unicode="&#xc1;" d="M96 51l557 1254h68l557 -1254l-213 -94l-100 227h-555l-101 -227zM508 406h358l-180 403zM635 1448l117 346h301l-332 -346h-86z" />
<glyph unicode="&#xc2;" d="M96 51l557 1254h68l557 -1254l-213 -94l-100 227h-555l-101 -227zM365 1450l233 362h188l234 -362h-82l-246 229l-246 -229h-81zM508 406h358l-180 403z" />
<glyph unicode="&#xc3;" d="M96 51l557 1254h68l557 -1254l-213 -94l-100 227h-555l-101 -227zM412 1440v22q0 94 52.5 155.5t133.5 61.5q27 0 49 -6.5t76 -32.5q84 -41 125 -41q25 0 40 17t30 63h67v-28q0 -95 -51.5 -154t-134.5 -59q-48 0 -137 41q-83 38 -103 40q-6 1 -12 1q-28 0 -43.5 -18.5 t-22.5 -61.5h-69zM508 406h358l-180 403z" />
<glyph unicode="&#xc4;" d="M96 51l557 1254h68l557 -1254l-213 -94l-100 227h-555l-101 -227zM315 1599l148 148l147 -148l-147 -147zM508 406h358l-180 403zM750 1599l147 148l147 -148l-147 -147z" />
<glyph unicode="&#xc5;" d="M96 51l557 1254h68l557 -1254l-213 -94l-100 227h-555l-101 -227zM465 1640q0 88 61.5 149.5t149.5 61.5q86 0 147.5 -61.5t61.5 -149.5q0 -86 -61.5 -147t-147.5 -61q-88 0 -149.5 61t-61.5 147zM508 406h358l-180 403zM582 1640q0 -38 28 -65t66 -27q37 0 64.5 27 t27.5 65t-27.5 66.5t-64.5 28.5q-38 0 -66 -28.5t-28 -66.5z" />
<glyph unicode="&#xc6;" d="M96 51l557 1254h68l557 -1254l-68 -51h-1046zM426 221h522l-262 588z" />
<glyph unicode="&#xc7;" horiz-adv-x="1523" d="M164 637q0 190 101.5 344t273.5 239t379 85q240 0 421 -105v-266q-70 67 -172 104t-225 37q-143 0 -262 -55t-189.5 -156t-70.5 -227q0 -193 146.5 -315.5t375.5 -122.5q117 0 220.5 38.5t176.5 108.5v-268q-188 -109 -421 -109q-33 0 -95 4l-49 -71q55 -21 89 -63.5 t34 -94.5q0 -70 -61 -121t-146 -51q-72 0 -147 33l28 49q14 -9 43.5 -15t49.5 -6q38 0 65 22.5t27 53.5q0 32 -27 55t-65 23q-36 0 -74 -23l-23 15l152 211q-251 53 -403 228t-152 419z" />
<glyph unicode="&#xc8;" horiz-adv-x="1157" d="M246 0v1274h723v-221h-494v-244h293l47 47l158 -158l-158 -157l-47 47h-293v-367h526v-221h-755zM289 1794h301l117 -346h-86z" />
<glyph unicode="&#xc9;" horiz-adv-x="1157" d="M246 0v1274h723v-221h-494v-244h293l47 47l158 -158l-158 -157l-47 47h-293v-367h526v-221h-755zM537 1448l116 346h301l-331 -346h-86z" />
<glyph unicode="&#xca;" horiz-adv-x="1157" d="M246 0v1274h723v-221h-494v-244h293l47 47l158 -158l-158 -157l-47 47h-293v-367h526v-221h-755zM297 1450l233 362h189l233 -362h-82l-245 229l-246 -229h-82z" />
<glyph unicode="&#xcb;" horiz-adv-x="1157" d="M246 0v1274h723v-221h-494v-244h293l47 47l158 -158l-158 -157l-47 47h-293v-367h526v-221h-755zM254 1599l147 148l148 -148l-148 -147zM688 1599l148 148l147 -148l-147 -147z" />
<glyph unicode="&#xcc;" horiz-adv-x="761" d="M29 1794h301l116 -346h-86zM266 0v1274h230v-1274h-230z" />
<glyph unicode="&#xcd;" horiz-adv-x="761" d="M266 0v1274h230v-1274h-230zM287 1448l116 346h302l-332 -346h-86z" />
<glyph unicode="&#xce;" horiz-adv-x="761" d="M53 1450l234 362h188l234 -362h-82l-246 229l-246 -229h-82zM266 0v1274h230v-1274h-230z" />
<glyph unicode="&#xcf;" horiz-adv-x="761" d="M10 1599l148 148l147 -148l-147 -147zM266 0v1274h230v-1274h-230zM444 1599l148 148l147 -148l-147 -147z" />
<glyph unicode="&#xd0;" horiz-adv-x="1648" d="M82 532v222h225v520h422q236 0 413.5 -72t278.5 -217t101 -348q0 -193 -100.5 -338.5t-279.5 -222t-413 -76.5h-422v532h-225zM537 221h213q236 0 377 110.5t141 305.5q0 205 -138.5 310.5t-379.5 105.5h-213v-299h215v-222h-215v-311z" />
<glyph unicode="&#xd1;" horiz-adv-x="1544" d="M246 0v1274h229v-150l789 154l92 -1288l-230 -17l-73 1039l-578 -113v-899h-229zM475 1440v22q0 94 52.5 155.5t134.5 61.5q27 0 48 -6.5t76 -32.5q84 -41 125 -41q25 0 40 17t30 63h68v-28q0 -95 -52 -154t-135 -59q-48 0 -137 41q-83 38 -103 40q-6 1 -12 1 q-28 0 -42.5 -18.5t-22.5 -61.5h-70z" />
<glyph unicode="&#xd2;" horiz-adv-x="1724" d="M164 637q0 190 94 344t253.5 239t350.5 85q201 0 360.5 -85.5t249 -238t89.5 -344.5q0 -143 -55.5 -268t-149.5 -212.5t-222.5 -137.5t-271.5 -50q-200 0 -359.5 85.5t-249 238t-89.5 344.5zM403 637q0 -193 129 -315.5t330 -122.5q192 0 325.5 124t133.5 314 q0 193 -129 315.5t-330 122.5q-192 0 -325.5 -124t-133.5 -314zM504 1794h301l117 -346h-86zM705 637l157 158l158 -158l-158 -158z" />
<glyph unicode="&#xd3;" horiz-adv-x="1724" d="M164 637q0 190 94 344t253.5 239t350.5 85q201 0 360.5 -85.5t249 -238t89.5 -344.5q0 -143 -55.5 -268t-149.5 -212.5t-222.5 -137.5t-271.5 -50q-200 0 -359.5 85.5t-249 238t-89.5 344.5zM403 637q0 -193 129 -315.5t330 -122.5q192 0 325.5 124t133.5 314 q0 193 -129 315.5t-330 122.5q-192 0 -325.5 -124t-133.5 -314zM705 637l157 158l158 -158l-158 -158zM831 1448l117 346h301l-331 -346h-87z" />
<glyph unicode="&#xd4;" horiz-adv-x="1724" d="M164 637q0 190 94 344t253.5 239t350.5 85q201 0 360.5 -85.5t249 -238t89.5 -344.5q0 -143 -55.5 -268t-149.5 -212.5t-222.5 -137.5t-271.5 -50q-200 0 -359.5 85.5t-249 238t-89.5 344.5zM403 637q0 -193 129 -315.5t330 -122.5q192 0 325.5 124t133.5 314 q0 193 -129 315.5t-330 122.5q-192 0 -325.5 -124t-133.5 -314zM528 1450l234 362h188l234 -362h-82l-246 229l-246 -229h-82zM705 637l157 158l158 -158l-158 -158z" />
<glyph unicode="&#xd5;" horiz-adv-x="1724" d="M164 637q0 190 94 344t253.5 239t350.5 85q201 0 360.5 -85.5t249 -238t89.5 -344.5q0 -143 -55.5 -268t-149.5 -212.5t-222.5 -137.5t-271.5 -50q-200 0 -359.5 85.5t-249 238t-89.5 344.5zM403 637q0 -193 129 -315.5t330 -122.5q192 0 325.5 124t133.5 314 q0 193 -129 315.5t-330 122.5q-192 0 -325.5 -124t-133.5 -314zM565 1440v22q0 94 52.5 155.5t134.5 61.5q27 0 49 -6.5t76 -32.5q84 -41 124 -41q25 0 40 17t30 63h68v-28q0 -95 -52 -154t-135 -59q-48 0 -137 41q-83 38 -103 40q-6 1 -12 1q-28 0 -42.5 -18.5t-22.5 -61.5 h-70zM705 637l157 158l158 -158l-158 -158z" />
<glyph unicode="&#xd6;" horiz-adv-x="1724" d="M164 637q0 190 94 344t253.5 239t350.5 85q201 0 360.5 -85.5t249 -238t89.5 -344.5q0 -143 -55.5 -268t-149.5 -212.5t-222.5 -137.5t-271.5 -50q-200 0 -359.5 85.5t-249 238t-89.5 344.5zM403 637q0 -193 129 -315.5t330 -122.5q192 0 325.5 124t133.5 314 q0 193 -129 315.5t-330 122.5q-192 0 -325.5 -124t-133.5 -314zM508 1599l147 148l148 -148l-148 -147zM705 637l157 158l158 -158l-158 -158zM942 1599l148 148l147 -148l-147 -147z" />
<glyph unicode="&#xd7;" horiz-adv-x="1368" d="M209 805l121 117l348 -353l348 353l121 -117l-350 -352l348 -353l-119 -118l-348 350l-348 -350l-119 118l348 353z" />
<glyph unicode="&#xd8;" horiz-adv-x="2052" d="M84 535v200h250q33 225 197 378.5t395 184.5v279h200v-279q239 -28 400 -181t192 -382h250v-200h-252q-33 -224 -196 -376.5t-394 -183.5v-282h-200v282q-238 28 -399 180.5t-193 379.5h-250zM578 535q28 -129 120.5 -216t227.5 -112v328h-348zM578 735h348v330 q-132 -26 -225.5 -114t-122.5 -216zM1126 209q131 27 224.5 113.5t122.5 212.5h-347v-326zM1126 735h349q-26 130 -119 218.5t-230 113.5v-332z" />
<glyph unicode="&#xd9;" horiz-adv-x="1499" d="M246 391v883h229v-807q0 -131 73 -211t191 -80q97 0 177 56t108 141v901h229v-1274h-229v111q-69 -66 -160.5 -104t-191.5 -38q-190 0 -308 117.5t-118 304.5zM393 1794h301l117 -346h-86z" />
<glyph unicode="&#xda;" horiz-adv-x="1499" d="M246 391v883h229v-807q0 -131 73 -211t191 -80q97 0 177 56t108 141v901h229v-1274h-229v111q-69 -66 -160.5 -104t-191.5 -38q-190 0 -308 117.5t-118 304.5zM743 1448l117 346h301l-332 -346h-86z" />
<glyph unicode="&#xdb;" horiz-adv-x="1499" d="M246 391v883h229v-807q0 -131 73 -211t191 -80q97 0 177 56t108 141v901h229v-1274h-229v111q-69 -66 -160.5 -104t-191.5 -38q-190 0 -308 117.5t-118 304.5zM418 1450l233 362h189l233 -362h-82l-246 229l-245 -229h-82z" />
<glyph unicode="&#xdc;" horiz-adv-x="1499" d="M246 391v883h229v-807q0 -131 73 -211t191 -80q97 0 177 56t108 141v901h229v-1274h-229v111q-69 -66 -160.5 -104t-191.5 -38q-190 0 -308 117.5t-118 304.5zM393 1599l148 148l147 -148l-147 -147zM827 1599l148 148l147 -148l-147 -147z" />
<glyph unicode="&#xdd;" horiz-adv-x="1241" d="M72 1221l202 102l338 -561l338 561l203 -102l-426 -711v-510h-229v510zM569 1448l117 346h301l-332 -346h-86z" />
<glyph unicode="&#xde;" horiz-adv-x="1146" d="M246 0v1274h229v-246h205q182 0 293.5 -104t111.5 -271q0 -98 -59.5 -184.5t-158 -137t-208.5 -50.5h-184v-281h-229zM475 500h143q91 0 162.5 45t71.5 108q0 74 -57 115t-160 41h-160v-309z" />
<glyph unicode="&#xdf;" horiz-adv-x="1034" d="M113 362v168h118v37q0 152 84.5 242t239.5 90q145 0 233.5 -61t88.5 -162q0 -58 -32.5 -104.5t-88.5 -75.5q73 -41 126.5 -110.5t53.5 -145.5q0 -125 -103 -206.5t-278 -74.5l-51 162q114 -8 169.5 26.5t55.5 90.5q0 67 -58 111t-165 54v152q75 6 116.5 32t41.5 68 q0 35 -30 51.5t-77 16.5q-51 0 -84 -37.5t-33 -97.5v-613h-209v387h-118z" />
<glyph unicode="&#xe0;" horiz-adv-x="976" d="M41 47l405 877h80l410 -877l-188 -84l-76 160h-369l-72 -160zM104 1417h302l116 -346h-86zM391 313h193l-99 209z" />
<glyph unicode="&#xe1;" horiz-adv-x="976" d="M41 47l405 877h80l410 -877l-188 -84l-76 160h-369l-72 -160zM391 313h193l-99 209zM457 1071l116 346h301l-331 -346h-86z" />
<glyph unicode="&#xe2;" horiz-adv-x="976" d="M41 47l405 877h80l410 -877l-188 -84l-76 160h-369l-72 -160zM158 1067l233 363h189l233 -363h-82l-246 229l-245 -229h-82zM391 313h193l-99 209z" />
<glyph unicode="&#xe3;" horiz-adv-x="976" d="M41 47l405 877h80l410 -877l-188 -84l-76 160h-369l-72 -160zM209 1057v22q0 94 52.5 155.5t133.5 61.5q27 0 49 -6.5t76 -32.5q81 -40 125 -40q25 0 40 16.5t30 62.5h67v-28q0 -95 -51.5 -154t-134.5 -59q-48 0 -137 41h-1l-1 1h-1l-1 1h-1l-1 1h-1l-1 1h-1l-1 1h-1 l-2 1q-80 33 -102 35q-28 0 -42.5 -18.5t-22.5 -61.5h-70zM391 313h193l-99 209z" />
<glyph unicode="&#xe4;" horiz-adv-x="976" d="M41 47l405 877h80l410 -877l-188 -84l-76 160h-369l-72 -160zM82 1217l160 147l157 -147l-157 -148zM391 313h193l-99 209zM549 1217l160 147l157 -147l-157 -148z" />
<glyph unicode="&#xe5;" horiz-adv-x="976" d="M41 47l405 877h80l410 -877l-188 -84l-76 160h-369l-72 -160zM266 1260q0 88 61.5 149t149.5 61q87 0 148 -61t61 -149q0 -86 -61.5 -147.5t-147.5 -61.5q-88 0 -149.5 61.5t-61.5 147.5zM383 1260q0 -38 28 -65.5t66 -27.5q37 0 64.5 27.5t27.5 65.5t-27.5 66t-64.5 28 q-38 0 -66 -28t-28 -66zM391 313h193l-99 209z" />
<glyph unicode="&#xe6;" horiz-adv-x="976" d="M41 47l405 877h80l410 -877l-59 -47h-779zM334 190h307l-156 332z" />
<glyph unicode="&#xe7;" horiz-adv-x="1126" d="M123 451q0 135 74 246.5t200.5 175t278.5 63.5q169 0 319 -78v-248q-76 65 -147.5 94t-155.5 29q-141 0 -241.5 -81t-100.5 -201t97 -199.5t245 -79.5q160 0 303 129v-252q-160 -80 -319 -80q-45 0 -68 2l-47 -69q55 -21 89 -63.5t34 -94.5q0 -70 -61 -121t-146 -51 q-72 0 -147 33l28 49q14 -9 43.5 -15t49.5 -6q38 0 65 22.5t27 53.5q0 32 -27 55t-65 23q-36 0 -74 -23l-23 15l152 211q-174 44 -278.5 169t-104.5 292z" />
<glyph unicode="&#xe8;" horiz-adv-x="870" d="M162 1417h301l117 -346h-86zM184 0v905h555v-198h-346v-125h174l43 43l142 -142l-142 -141l-41 41h-176v-186h369v-197h-578z" />
<glyph unicode="&#xe9;" horiz-adv-x="870" d="M184 0v905h555v-198h-346v-125h174l43 43l142 -142l-142 -141l-41 41h-176v-186h369v-197h-578zM350 1071l117 346h301l-332 -346h-86z" />
<glyph unicode="&#xea;" horiz-adv-x="870" d="M119 1067l233 363h189l233 -363h-82l-246 229l-245 -229h-82zM184 0v905h555v-198h-346v-125h174l43 43l142 -142l-142 -141l-41 41h-176v-186h369v-197h-578z" />
<glyph unicode="&#xeb;" horiz-adv-x="870" d="M96 1217l148 147l147 -147l-147 -148zM184 0v905h555v-198h-346v-125h174l43 43l142 -142l-142 -141l-41 41h-176v-186h369v-197h-578zM530 1217l148 147l147 -147l-147 -148z" />
<glyph unicode="&#xec;" horiz-adv-x="606" d="M-35 1417h301l117 -346h-86zM199 0v905h209v-905h-209z" />
<glyph unicode="&#xed;" horiz-adv-x="606" d="M199 0v905h209v-905h-209zM236 1071l116 346h301l-331 -346h-86z" />
<glyph unicode="&#xee;" horiz-adv-x="606" d="M-31 1067l234 363h188l234 -363h-82l-246 229l-246 -229h-82zM199 0v905h209v-905h-209z" />
<glyph unicode="&#xef;" horiz-adv-x="606" d="M-61 1217l147 147l147 -147l-147 -148zM199 0v905h209v-905h-209zM373 1217l147 147l148 -147l-148 -148z" />
<glyph unicode="&#xf0;" horiz-adv-x="1247" d="M66 354v197h159v354h320q263 0 421 -119t158 -335q0 -204 -160 -327.5t-419 -123.5h-320v354h-159zM434 197h125q155 0 246.5 66.5t91.5 187.5q0 127 -90.5 191.5t-247.5 64.5h-125v-156h178v-197h-178v-157z" />
<glyph unicode="&#xf1;" horiz-adv-x="1136" d="M184 0v905h209v-96l553 102l66 -917l-209 -14l-51 694l-359 -68v-606h-209zM297 1057v22q0 94 52.5 155.5t133.5 61.5q27 0 49 -6.5t76 -32.5q81 -40 125 -40q25 0 40 16.5t30 62.5h67v-28q0 -95 -51.5 -154t-134.5 -59q-48 0 -137 41h-1l-1 1h-1l-1 1h-1l-1 1h-1l-1 1 h-1l-1 1h-1l-2 1q-80 33 -102 35q-28 0 -42.5 -18.5t-22.5 -61.5h-70z" />
<glyph unicode="&#xf2;" horiz-adv-x="1271" d="M123 451q0 135 68.5 247t186.5 175t259 63q222 0 367 -138.5t145 -346.5q0 -134 -68.5 -245t-186 -174t-257.5 -63q-223 0 -368.5 137.5t-145.5 344.5zM270 1417h301l117 -346h-86zM340 451q0 -119 84 -199t213 -80q122 0 208.5 80.5t86.5 198.5q0 121 -83.5 201.5 t-211.5 80.5q-123 0 -210 -81.5t-87 -200.5zM506 451l131 131l131 -131l-131 -132z" />
<glyph unicode="&#xf3;" horiz-adv-x="1271" d="M123 451q0 135 68.5 247t186.5 175t259 63q222 0 367 -138.5t145 -346.5q0 -134 -68.5 -245t-186 -174t-257.5 -63q-223 0 -368.5 137.5t-145.5 344.5zM340 451q0 -119 84 -199t213 -80q122 0 208.5 80.5t86.5 198.5q0 121 -83.5 201.5t-211.5 80.5q-123 0 -210 -81.5 t-87 -200.5zM506 451l131 131l131 -131l-131 -132zM580 1071l116 346h301l-331 -346h-86z" />
<glyph unicode="&#xf4;" horiz-adv-x="1271" d="M123 451q0 135 68.5 247t186.5 175t259 63q222 0 367 -138.5t145 -346.5q0 -134 -68.5 -245t-186 -174t-257.5 -63q-223 0 -368.5 137.5t-145.5 344.5zM299 1067l233 363h189l233 -363h-82l-245 229l-246 -229h-82zM340 451q0 -119 84 -199t213 -80q122 0 208.5 80.5 t86.5 198.5q0 121 -83.5 201.5t-211.5 80.5q-123 0 -210 -81.5t-87 -200.5zM506 451l131 131l131 -131l-131 -132z" />
<glyph unicode="&#xf5;" horiz-adv-x="1271" d="M123 451q0 135 68.5 247t186.5 175t259 63q222 0 367 -138.5t145 -346.5q0 -134 -68.5 -245t-186 -174t-257.5 -63q-223 0 -368.5 137.5t-145.5 344.5zM340 451q0 -119 84 -199t213 -80q122 0 208.5 80.5t86.5 198.5q0 121 -83.5 201.5t-211.5 80.5q-123 0 -210 -81.5 t-87 -200.5zM352 1057v22q0 94 52.5 155.5t134.5 61.5q27 0 49 -6.5t76 -32.5q81 -40 124 -40q25 0 40 16.5t30 62.5h68v-28q0 -95 -52 -154t-135 -59q-48 0 -137 41h-1l-1 1h-1l-1 1h-1l-1 1h-1l-1 1h-1l-1 1h-1l-2 1q-80 33 -102 35q-28 0 -42.5 -18.5t-22.5 -61.5h-70z M506 451l131 131l131 -131l-131 -132z" />
<glyph unicode="&#xf6;" horiz-adv-x="1271" d="M123 451q0 135 68.5 247t186.5 175t259 63q222 0 367 -138.5t145 -346.5q0 -134 -68.5 -245t-186 -174t-257.5 -63q-223 0 -368.5 137.5t-145.5 344.5zM270 1217l148 147l147 -147l-147 -148zM340 451q0 -119 84 -199t213 -80q122 0 208.5 80.5t86.5 198.5 q0 121 -83.5 201.5t-211.5 80.5q-123 0 -210 -81.5t-87 -200.5zM506 451l131 131l131 -131l-131 -132zM705 1217l147 147l147 -147l-147 -148z" />
<glyph unicode="&#xf7;" horiz-adv-x="1366" d="M195 535v186h972v-186h-972zM567 231q0 47 34 80t81 33t80 -33t33 -80q0 -46 -33 -79t-80 -33t-81 33t-34 79zM567 1038q3 43 36 73t79 30t79.5 -32t33.5 -77q0 -47 -33.5 -80.5t-79.5 -33.5q-48 0 -81.5 34.5t-33.5 85.5z" />
<glyph unicode="&#xf8;" horiz-adv-x="1519" d="M106 369v168h148q28 155 144.5 262.5t279.5 130.5v178h168v-178q166 -25 279 -131.5t139 -261.5h153v-168h-151q-28 -154 -143 -261.5t-277 -132.5v-178h-168v178q-169 22 -284.5 129t-141.5 265h-146zM475 369q22 -71 74.5 -120.5t128.5 -66.5v187h-203zM477 537h201 v186q-72 -21 -126 -69.5t-75 -116.5zM846 184q70 19 122 68t74 117h-196v-185zM846 537h196q-22 69 -73 117.5t-123 68.5v-186z" />
<glyph unicode="&#xf9;" horiz-adv-x="1107" d="M168 276v629h209v-577q0 -77 44.5 -123.5t117.5 -46.5q56 0 104.5 34.5t69.5 83.5v629h209v-905h-209v47q-116 -78 -221 -78q-144 0 -234 85.5t-90 221.5zM182 1417h301l117 -346h-86z" />
<glyph unicode="&#xfa;" horiz-adv-x="1107" d="M168 276v629h209v-577q0 -77 44.5 -123.5t117.5 -46.5q56 0 104.5 34.5t69.5 83.5v629h209v-905h-209v47q-116 -78 -221 -78q-144 0 -234 85.5t-90 221.5zM500 1071l116 346h302l-332 -346h-86z" />
<glyph unicode="&#xfb;" horiz-adv-x="1107" d="M168 276v629h209v-577q0 -77 44.5 -123.5t117.5 -46.5q56 0 104.5 34.5t69.5 83.5v629h209v-905h-209v47q-116 -78 -221 -78q-144 0 -234 85.5t-90 221.5zM195 1067l233 363h188l234 -363h-82l-246 229l-246 -229h-81z" />
<glyph unicode="&#xfc;" horiz-adv-x="1107" d="M168 276v629h209v-577q0 -77 44.5 -123.5t117.5 -46.5q56 0 104.5 34.5t69.5 83.5v629h209v-905h-209v47q-116 -78 -221 -78q-144 0 -234 85.5t-90 221.5zM178 1217l148 147l147 -147l-147 -148zM612 1217l148 147l147 -147l-147 -148z" />
<glyph unicode="&#xfd;" horiz-adv-x="897" d="M37 852l182 92l227 -364l230 364l184 -92l-309 -492v-360h-209v360zM418 1071l117 346h301l-332 -346h-86z" />
<glyph unicode="&#xfe;" horiz-adv-x="909" d="M184 0v905h209v-143h119q139 0 224 -83.5t85 -211.5q0 -120 -96.5 -207.5t-226.5 -87.5h-105v-172h-209zM393 369h76q54 0 96.5 29t42.5 69q0 43 -34.5 70.5t-92.5 27.5h-88v-196z" />
<glyph unicode="&#xff;" horiz-adv-x="897" d="M37 852l182 92l227 -364l230 364l184 -92l-309 -492v-360h-209v360zM86 1217l147 147l148 -147l-148 -148zM520 1217l148 147l147 -147l-147 -148z" />
<glyph unicode="&#x152;" horiz-adv-x="2224" d="M164 637q0 190 94 344t253.5 239t350.5 85q275 0 469 -160v129h723v-221h-493v-244h436v-221h-436v-367h526v-221h-756v135q-200 -166 -469 -166q-200 0 -359.5 85.5t-249 238t-89.5 344.5zM403 637q0 -193 129 -315.5t330 -122.5q192 0 325.5 124t133.5 314 q0 193 -129 315.5t-330 122.5q-192 0 -325.5 -124t-133.5 -314z" />
<glyph unicode="&#x153;" horiz-adv-x="1642" d="M123 451q0 135 68.5 247t186.5 175t259 63q172 0 305 -90v59h555v-198h-346v-125h305v-199h-305v-186h369v-197h-578v61q-139 -92 -305 -92q-223 0 -368.5 137.5t-145.5 344.5zM340 451q0 -119 84 -199t213 -80q122 0 208.5 80.5t86.5 198.5q0 121 -83.5 201.5 t-211.5 80.5q-123 0 -210 -81.5t-87 -200.5z" />
<glyph unicode="&#x178;" horiz-adv-x="1241" d="M72 1221l202 102l338 -561l338 561l203 -102l-426 -711v-510h-229v510zM244 1593l147 148l148 -148l-148 -147zM678 1593l147 148l148 -148l-148 -147z" />
<glyph unicode="&#x2c6;" horiz-adv-x="681" d="M20 936l234 362h188l234 -362h-82l-246 229l-246 -229h-82z" />
<glyph unicode="&#x2dc;" horiz-adv-x="681" d="M45 944v23q0 94 52.5 155.5t133.5 61.5q27 0 49 -6.5t76 -32.5q84 -41 125 -41q25 0 40 17t30 63h67v-29q0 -95 -51.5 -154t-134.5 -59q-48 0 -137 41q-83 38 -103 40q-6 1 -12 1q-28 0 -42.5 -18.5t-22.5 -61.5h-70z" />
<glyph unicode="&#x2000;" horiz-adv-x="925" />
<glyph unicode="&#x2001;" horiz-adv-x="1851" />
<glyph unicode="&#x2002;" horiz-adv-x="925" />
<glyph unicode="&#x2003;" horiz-adv-x="1851" />
<glyph unicode="&#x2004;" horiz-adv-x="617" />
<glyph unicode="&#x2005;" horiz-adv-x="462" />
<glyph unicode="&#x2006;" horiz-adv-x="308" />
<glyph unicode="&#x2007;" horiz-adv-x="308" />
<glyph unicode="&#x2008;" horiz-adv-x="231" />
<glyph unicode="&#x2009;" horiz-adv-x="370" />
<glyph unicode="&#x200a;" horiz-adv-x="102" />
<glyph unicode="&#x2010;" horiz-adv-x="1038" d="M184 518v221h670v-221h-670z" />
<glyph unicode="&#x2011;" horiz-adv-x="1038" d="M184 518v221h670v-221h-670z" />
<glyph unicode="&#x2012;" horiz-adv-x="1038" d="M184 518v221h670v-221h-670z" />
<glyph unicode="&#x2013;" horiz-adv-x="1079" d="M0 518v221h1079v-221h-1079z" />
<glyph unicode="&#x2014;" horiz-adv-x="1693" d="M0 518v221h1694v-221h-1694z" />
<glyph unicode="&#x2018;" horiz-adv-x="593" d="M113 1151l168 168l182 -182q-108 -60 -116 -142.5t97 -173.5l-59 -43q-81 60 -165 173.5t-107 199.5z" />
<glyph unicode="&#x2019;" horiz-adv-x="593" d="M117 1137l182 182l168 -168q-23 -86 -107 -199.5t-165 -173.5l-60 43q105 91 97.5 173.5t-115.5 142.5z" />
<glyph unicode="&#x201a;" d="M184 637q0 181 67.5 335t183 243.5t251.5 89.5t251.5 -89.5t183 -243.5t67.5 -335t-67.5 -335t-183 -243.5t-251.5 -89.5t-251.5 89.5t-183 243.5t-67.5 335zM424 637q0 -119 35 -220t95.5 -159.5t131.5 -58.5t131.5 58.5t95.5 159.5t35 220t-35 220t-95.5 159.5 t-131.5 58.5t-131.5 -58.5t-95.5 -159.5t-35 -220z" />
<glyph unicode="&#x201c;" horiz-adv-x="1011" d="M113 1151l168 168l182 -182q-108 -60 -116 -142.5t97 -173.5l-59 -43q-81 60 -165 173.5t-107 199.5zM582 1151l168 168l182 -182q-108 -60 -116 -142.5t97 -173.5l-59 -43q-81 60 -165 173.5t-107 199.5z" />
<glyph unicode="&#x201d;" horiz-adv-x="1011" d="M96 1137l183 182l167 -168q-23 -86 -107 -199.5t-165 -173.5l-59 43q105 91 97 173.5t-116 142.5zM565 1137l183 182l167 -168q-23 -86 -107 -199.5t-165 -173.5l-59 43q105 91 97 173.5t-116 142.5z" />
<glyph unicode="&#x201e;" horiz-adv-x="1011" d="M96 104l183 183l167 -168q-23 -86 -107 -199.5t-165 -173.5l-59 43q105 91 97 173t-116 142zM565 104l183 183l167 -168q-23 -86 -107 -199.5t-165 -173.5l-59 43q105 91 97 173t-116 142z" />
<glyph unicode="&#x2022;" horiz-adv-x="724" d="M111 637q0 104 74 178t177 74t177.5 -74t74.5 -178t-74.5 -177t-177.5 -73t-177 73t-74 177z" />
<glyph unicode="&#x2026;" horiz-adv-x="2027" d="M129 109l178 178l178 -178l-178 -179zM805 109l178 178l178 -178l-178 -179zM1481 109l178 178l178 -178l-178 -179z" />
<glyph unicode="&#x202f;" horiz-adv-x="370" />
<glyph unicode="&#x2039;" horiz-adv-x="1171" d="M150 193l176 88q30 -51 82.5 -81t117.5 -30q97 0 163.5 63t66.5 154t-66.5 154t-163.5 63q-38 0 -82 -14l-125 137q251 109 328 326h-440v221h778q-36 -155 -115 -281.5t-184 -206.5q125 -36 213 -145t88 -252q0 -174 -130 -297t-314 -123q-125 0 -230 61t-163 163z" />
<glyph unicode="&#x203a;" horiz-adv-x="1208" d="M125 299v158l551 817h227v-778h146v-197h-146v-299h-229v299h-549zM389 496h285v419z" />
<glyph unicode="&#x205f;" horiz-adv-x="462" />
<glyph unicode="&#x2122;" horiz-adv-x="2232" d="M154 1094v180h669v-180h-241v-506h-189v506h-239zM985 588v698l485 -141l486 141v-698h-189v456l-202 -57v-399h-189v399l-202 57v-456h-189z" />
<glyph unicode="&#xe000;" horiz-adv-x="931" d="M0 0v932h932v-932h-932z" />
<glyph unicode="&#xfb01;" horiz-adv-x="1447" d="M184 0v905h1065v-905h-209v707h-647v-125h305v-199h-305v-383h-209zM1004 1165l141 142l141 -142l-141 -141z" />
<glyph unicode="&#xfb02;" horiz-adv-x="1665" d="M184 0v905h1051v-708h381v-197h-590v707h-633v-125h305v-199h-305v-383h-209z" />
</font>
</defs>
</svg>
