<?xml version="1.0" standalone="no"?>
<!DOCTYPE svg PUBLIC "-//W3C//DTD SVG 1.1//EN" "http://www.w3.org/Graphics/SVG/1.1/DTD/svg11.dtd" >
<svg xmlns="http://www.w3.org/2000/svg">
<metadata></metadata>
<defs>
<font id="nettootregular" horiz-adv-x="1064" >
<font-face units-per-em="2048" ascent="1591" descent="-457" />
<missing-glyph horiz-adv-x="512" />
<glyph unicode="&#xfb01;" horiz-adv-x="1056" d="M143 49v1139q0 110 79.5 189t189.5 79q58 0 116 -12q26 -6 42 -24.5t16 -43.5q0 -30 -20.5 -47.5t-47.5 -17.5q-16 0 -48.5 6t-57.5 6q-54 0 -91.5 -37.5t-37.5 -91.5v-168h235q28 0 48 -19.5t20 -48.5t-20 -47t-48 -18h-235v-844q0 -29 -20.5 -49t-49.5 -20t-49.5 20 t-20.5 49zM729 1364q0 38 27 65t65 27t65 -27t27 -65t-27 -66t-65 -28t-65 28t-27 66zM752 49v928q0 28 20 49t49 21t49.5 -21t20.5 -49v-928q0 -29 -20.5 -49t-49.5 -20t-49 20t-20 49z" />
<glyph unicode="&#xfb02;" horiz-adv-x="1062" d="M143 49v1139q0 110 79.5 189t189.5 79q58 0 116 -12q26 -6 42 -24.5t16 -43.5q0 -30 -20.5 -47.5t-47.5 -17.5q-16 0 -48.5 6t-57.5 6q-54 0 -91.5 -37.5t-37.5 -91.5v-168h235q28 0 48 -19.5t20 -48.5t-20 -47t-48 -18h-235v-844q0 -29 -20.5 -49t-49.5 -20t-49.5 20 t-20.5 49zM770 49v1337q0 29 20.5 49.5t49.5 20.5t49 -20.5t20 -49.5v-1337q0 -29 -20 -49t-49 -20t-49.5 20t-20.5 49z" />
<glyph horiz-adv-x="0" />
<glyph horiz-adv-x="0" />
<glyph horiz-adv-x="682" />
<glyph unicode="&#xd;" horiz-adv-x="512" />
<glyph unicode=" "  horiz-adv-x="512" />
<glyph unicode="&#x09;" horiz-adv-x="512" />
<glyph unicode="&#xa0;" horiz-adv-x="512" />
<glyph unicode="!" horiz-adv-x="716" d="M266 72q0 38 27 66t65 28t65.5 -28t27.5 -66q0 -37 -27.5 -64.5t-65.5 -27.5t-65 27.5t-27 64.5zM289 453v933q0 28 20 49t49 21t49.5 -20.5t20.5 -49.5v-933q0 -28 -20.5 -49t-49.5 -21t-49 21t-20 49z" />
<glyph unicode="&#x22;" horiz-adv-x="798" d="M184 1096v290q0 29 20.5 49.5t49.5 20.5t49.5 -20.5t20.5 -49.5v-290q0 -29 -20.5 -49.5t-49.5 -20.5t-49.5 20.5t-20.5 49.5zM475 1096v290q0 29 20.5 49.5t49.5 20.5t49 -20.5t20 -49.5v-290q0 -29 -20 -49.5t-49 -20.5t-49.5 20.5t-20.5 49.5z" />
<glyph unicode="#" d="M20 530q0 28 19 46t47 18h168l43 283h-164q-28 0 -46.5 18.5t-18.5 44.5q0 28 18.5 46t46.5 18h182l60 395q3 25 21.5 41t43.5 16q28 0 47 -19t19 -46q0 -15 -4 -39l-53 -348h239l60 395q3 25 21.5 41t43.5 16q27 0 46.5 -19t19.5 -46q0 -9 -5 -39l-53 -348h158 q26 0 44.5 -19t18.5 -45t-18.5 -44.5t-44.5 -18.5h-176l-41 -283h170q26 0 44.5 -19t18.5 -45t-18.5 -44.5t-44.5 -18.5h-189l-63 -430q-3 -25 -22 -41t-44 -16q-28 0 -46.5 19.5t-18.5 47.5q0 13 4 37l55 383h-237l-64 -430q-3 -25 -21.5 -41t-43.5 -16q-28 0 -47 19.5 t-19 47.5q0 13 4 37l56 383h-150q-28 0 -47 18.5t-19 44.5zM389 594h238l43 283h-240z" />
<glyph unicode="$" d="M119 121q0 28 20 47.5t49 19.5q17 0 29 -6q148 -69 291 -69q147 0 221 66.5t74 191.5q0 91 -59 154t-156 110l-223 108q-126 61 -186 139t-60 216q0 143 96.5 236t247.5 116v201q0 29 20 49t49 20t49.5 -20t20.5 -49v-197q134 -7 277 -65q45 -16 45 -66 q0 -27 -20.5 -47.5t-49.5 -20.5q-15 0 -29 7q-143 61 -278 61q-52 0 -100 -12t-91 -37.5t-68.5 -71.5t-25.5 -108q0 -75 40.5 -129.5t123.5 -94.5l223 -108q68 -33 114 -63.5t91.5 -76.5t68.5 -109t23 -142q0 -158 -96 -258.5t-248 -124.5v-203q0 -29 -20.5 -49.5 t-49.5 -20.5t-49 20.5t-20 49.5v197q-151 9 -303 75q-18 7 -29.5 25t-11.5 39z" />
<glyph unicode="%" horiz-adv-x="1802" d="M154 975v199q0 126 78 204t204 78q127 0 206 -78t79 -204v-199q0 -127 -78.5 -205t-206.5 -78q-127 0 -204.5 77.5t-77.5 205.5zM274 969q0 -75 43.5 -118.5t118.5 -43.5q76 0 119 43.5t43 118.5v211q0 75 -43 117t-119 42q-75 0 -118.5 -42t-43.5 -117v-211zM377 47 q0 14 14 37l926 1337q20 27 47 27q24 0 41.5 -16.5t17.5 -40.5q0 -21 -14 -39l-926 -1338q-19 -26 -49 -26q-24 0 -40.5 16.5t-16.5 42.5zM1081 262v199q0 126 78.5 204t204.5 78q127 0 206 -78t79 -204v-199q0 -127 -78.5 -204.5t-206.5 -77.5q-127 0 -205 77t-78 205z M1202 256q0 -75 43.5 -118.5t118.5 -43.5q76 0 119 43.5t43 118.5v211q0 75 -43 117.5t-119 42.5q-75 0 -118.5 -42.5t-43.5 -117.5v-211z" />
<glyph unicode="&#x26;" horiz-adv-x="1376" d="M143 362q0 121 66 222q77 117 231 211l-65 73q-117 129 -117 267q0 133 95 227t227 94t226.5 -94t94.5 -227q0 -29 -20.5 -49.5t-49.5 -20.5t-49 20.5t-20 49.5q0 78 -53.5 134t-128.5 56t-129 -56t-54 -134q0 -86 80 -172l492 -547l182 221q21 27 55 27q28 0 48 -20 t20 -50q0 -26 -14 -43l-197 -240l194 -215q17 -17 17 -45t-19 -49.5t-49 -21.5q-31 0 -53 22l-182 205q-48 -50 -88.5 -85t-96 -70.5t-121 -53.5t-139.5 -18q-158 0 -270.5 112t-112.5 270zM283 362q0 -101 71.5 -177t171.5 -76q101 0 177.5 49t173.5 153l-347 383 q-146 -91 -204 -182q-43 -64 -43 -150z" />
<glyph unicode="'" horiz-adv-x="507" d="M184 1096v290q0 29 20.5 49.5t49.5 20.5t49.5 -20.5t20.5 -49.5v-290q0 -29 -20.5 -49.5t-49.5 -20.5t-49.5 20.5t-20.5 49.5z" />
<glyph unicode="(" horiz-adv-x="595" d="M113 649q0 493 219 910q19 36 63 36q27 0 47.5 -20t20.5 -49q0 -20 -8 -33q-203 -385 -203 -844q0 -458 203 -846q8 -13 8 -32q0 -27 -20 -48.5t-48 -21.5q-44 0 -63 39q-219 417 -219 909z" />
<glyph unicode=")" horiz-adv-x="606" d="M143 -229q0 17 9 32q202 386 202 846q0 461 -202 844q-9 15 -9 33q0 27 20 48t50 21q42 0 61 -36q220 -418 220 -910q0 -491 -220 -909q-19 -39 -63 -39q-27 0 -47.5 20.5t-20.5 49.5z" />
<glyph unicode="*" horiz-adv-x="878" d="M102 1194q0 25 17 42t43 17q14 0 20 -2l197 -63v207q0 26 17.5 43.5t43.5 17.5q25 0 43.5 -17.5t18.5 -43.5v-207l196 63q6 2 21 2q23 0 40 -17t17 -44q0 -43 -41 -55l-196 -66l123 -168q10 -17 10 -35q0 -24 -18 -42.5t-44 -18.5q-31 0 -49 24l-121 168l-123 -168 q-18 -24 -47 -24q-24 0 -42.5 17.5t-18.5 43.5q0 18 10 35l123 168l-197 66q-43 13 -43 57z" />
<glyph unicode="+" d="M27 514q0 29 19 48.5t48 19.5h369v395q0 28 20 49t49 21t49.5 -21t20.5 -49v-395h369q28 0 47.5 -19.5t19.5 -48.5q0 -28 -19 -46.5t-48 -18.5h-369v-400q0 -29 -20.5 -49t-49.5 -20t-49 20t-20 49v400h-369q-29 0 -48 18.5t-19 46.5z" />
<glyph unicode="," horiz-adv-x="411" d="M66 -182q0 6 4 22l98 291q7 22 25 34.5t40 12.5q29 0 49.5 -20t20.5 -47q0 -9 -4 -25l-98 -291q-7 -21 -25.5 -34t-40.5 -13q-29 0 -49 21.5t-20 48.5z" />
<glyph unicode="-" horiz-adv-x="847" d="M123 608q0 27 18.5 47.5t46.5 20.5h469q29 0 48.5 -20.5t19.5 -47.5t-20 -46t-48 -19h-469q-28 0 -46.5 18.5t-18.5 46.5z" />
<glyph unicode="." horiz-adv-x="411" d="M106 80q0 41 29.5 69.5t69.5 28.5q41 0 70.5 -28.5t29.5 -69.5t-29.5 -70.5t-70.5 -29.5q-40 0 -69.5 29.5t-29.5 70.5z" />
<glyph unicode="/" horiz-adv-x="1118" d="M225 49q0 18 6 33l529 1329q16 45 65 45q27 0 47.5 -20.5t20.5 -49.5q0 -15 -6 -30l-529 -1331q-16 -45 -65 -45q-28 0 -48 20t-20 49z" />
<glyph unicode="0" horiz-adv-x="1132" d="M133 414v608q0 195 119.5 314.5t314.5 119.5q194 0 313 -119.5t119 -314.5v-608q0 -195 -119 -314.5t-313 -119.5q-195 0 -314.5 119.5t-119.5 314.5zM272 403q0 -139 78 -217q77 -77 217 -77q138 0 215 77q78 81 78 217v629q0 139 -78 217t-215 78q-139 0 -217 -78 t-78 -217v-629z" />
<glyph unicode="1" horiz-adv-x="729" d="M41 1196q0 43 35 61l323 189q17 10 41 10q35 0 59.5 -24.5t24.5 -59.5v-1323q0 -29 -20 -49t-49 -20t-49.5 20t-20.5 49v1237l-244 -141q-17 -10 -35 -10q-27 0 -46 16.5t-19 44.5z" />
<glyph unicode="2" horiz-adv-x="954" d="M61 82q0 27 17 51l504 655q108 139 108 277q0 120 -66 191t-182 71q-137 0 -260 -63q-23 -9 -32 -9q-28 0 -48 18t-20 48q0 45 39 61q83 44 156 59t165 15q173 0 280 -108t107 -283q0 -179 -135 -356l-442 -576h520q29 0 49.5 -18.5t20.5 -46.5q0 -29 -20.5 -48.5 t-49.5 -19.5h-629q-34 0 -58 24t-24 58z" />
<glyph unicode="3" horiz-adv-x="985" d="M61 115q0 27 19.5 47t48.5 20q16 0 33 -10q126 -63 274 -63q130 0 208.5 80t78.5 208q0 116 -90 198.5t-217 82.5h-43q-29 0 -48.5 19t-19.5 48q0 28 20.5 47t47.5 19h28q116 0 198.5 75.5t82.5 178.5q0 120 -66 191t-182 71q-137 0 -258 -63q-22 -11 -37 -11 q-27 0 -46 18.5t-19 47.5q0 42 39 61q83 44 158 60t163 16q173 0 280 -108t107 -283q0 -93 -46 -175.5t-124 -137.5q97 -57 154 -150.5t57 -204.5q0 -184 -119 -300.5t-307 -116.5q-187 0 -336 73q-39 19 -39 62z" />
<glyph unicode="4" horiz-adv-x="948" d="M51 408q0 17 6 32l351 969q7 22 25 34.5t40 12.5q26 0 45 -20.5t19 -49.5q0 -4 -5 -24l-329 -905h372v280q0 29 20.5 49.5t49.5 20.5q28 0 49 -20.5t21 -49.5v-280h155q28 0 48 -19t20 -47q0 -29 -20 -48t-48 -19h-155v-275q0 -29 -21 -49t-49 -20q-29 0 -49.5 20 t-20.5 49v275h-442q-34 0 -58 24.5t-24 59.5z" />
<glyph unicode="5" horiz-adv-x="1017" d="M123 115q0 27 18 46t47 19q20 0 33 -8q112 -63 275 -63q107 0 183.5 81t76.5 191v104q0 109 -76.5 188t-183.5 79q-121 0 -234 -58q-20 -10 -39 -10q-34 0 -58 24t-24 58v573q0 40 28.5 68.5t68.5 28.5h550q28 0 48 -19.5t20 -48.5q0 -27 -20 -46t-48 -19h-507v-461 q98 39 215 39q165 0 282 -115.5t117 -280.5v-104q0 -166 -117.5 -283.5t-281.5 -117.5q-187 0 -336 73q-37 18 -37 62z" />
<glyph unicode="6" horiz-adv-x="1026" d="M133 381v410q0 305 123 475q138 190 410 190q78 0 135 -14q24 -4 38.5 -23t14.5 -43q0 -27 -19 -46t-49 -19q-10 0 -18 2q-2 0 -41 7t-61 7q-198 0 -297 -135q-97 -135 -97 -404q114 99 260 99q166 0 284 -118t118 -284v-104q0 -166 -118 -283.5t-284 -117.5 q-164 0 -281.5 117.5t-117.5 283.5zM272 371q0 -109 76.5 -185.5t183.5 -76.5q109 0 186 76.5t77 185.5v125q0 109 -77 185.5t-186 76.5q-107 0 -183.5 -76.5t-76.5 -185.5v-125z" />
<glyph unicode="7" horiz-adv-x="905" d="M20 1368q0 29 19.5 48.5t48.5 19.5h684q34 0 58 -24t24 -58q0 -22 -6 -37l-508 -1292q-7 -21 -25 -33t-39 -12q-27 0 -47 20t-20 49q0 15 6 27l481 1227h-608q-29 0 -48.5 18.5t-19.5 46.5z" />
<glyph unicode="8" horiz-adv-x="1085" d="M123 399q0 111 52.5 205t141.5 150q-75 55 -118 137.5t-43 177.5q0 160 113.5 273.5t273.5 113.5t273.5 -113.5t113.5 -273.5q0 -95 -43.5 -177.5t-118.5 -137.5q89 -57 142 -150.5t53 -204.5q0 -173 -123.5 -296t-296.5 -123t-296.5 123t-123.5 296zM262 399 q0 -117 82.5 -203.5t198.5 -86.5t198 86.5t82 203.5q0 118 -82 203.5t-198 85.5t-198.5 -85.5t-82.5 -203.5zM295 1069q0 -103 73 -177.5t175 -74.5t175 74.5t73 177.5q0 104 -73 181t-175 77t-175 -77t-73 -181z" />
<glyph unicode="9" horiz-adv-x="1026" d="M92 950v105q0 165 118 283t282 118q166 0 283.5 -117.5t117.5 -283.5v-410q0 -305 -123 -475q-140 -190 -410 -190q-76 0 -133 14q-55 13 -55 67q0 30 21 48t45 18q4 0 24 -4q62 -12 98 -12q201 0 297 131q97 135 97 405q-112 -98 -262 -98q-164 0 -282 117.5t-118 283.5 zM231 940q0 -108 76.5 -185t184.5 -77q109 0 185.5 76.5t76.5 185.5v125q0 109 -76.5 185.5t-185.5 76.5q-108 0 -184.5 -76.5t-76.5 -185.5v-125z" />
<glyph unicode=":" horiz-adv-x="411" d="M106 80q0 41 29.5 69.5t69.5 28.5q41 0 70.5 -28.5t29.5 -69.5t-29.5 -70.5t-70.5 -29.5q-40 0 -69.5 29.5t-29.5 70.5zM106 946q0 41 29.5 71t69.5 30q41 0 70.5 -30t29.5 -71t-29.5 -69.5t-70.5 -28.5q-40 0 -69.5 28.5t-29.5 69.5z" />
<glyph unicode=";" horiz-adv-x="411" d="M37 -182q0 6 4 22l98 291q7 21 25.5 34t40.5 13q29 0 49 -20t20 -47q0 -9 -4 -25l-98 -291q-7 -21 -25.5 -34t-40.5 -13q-28 0 -48.5 21.5t-20.5 48.5zM106 946q0 41 29.5 71t69.5 30q41 0 70.5 -30t29.5 -71t-29.5 -69.5t-70.5 -28.5q-40 0 -69.5 28.5t-29.5 69.5z" />
<glyph unicode="&#x3c;" d="M111 512q0 54 45 82l692 440q15 10 39 10q27 0 47 -19t20 -48q0 -40 -32 -59l-646 -406l646 -403q32 -19 32 -60q0 -27 -19.5 -48t-47.5 -21q-21 0 -39 12q-692 440 -694 440q-43 29 -43 80z" />
<glyph unicode="=" d="M27 334q0 28 19 47.5t48 19.5h875q29 0 49 -19.5t20 -47.5q0 -29 -20.5 -47.5t-48.5 -18.5h-875q-28 0 -47.5 18.5t-19.5 47.5zM27 694q0 28 19 48t48 20h875q29 0 49 -20t20 -48q0 -29 -20 -47t-49 -18h-875q-28 0 -47.5 18t-19.5 47z" />
<glyph unicode="&#x3e;" d="M111 49q0 38 32 60l645 403l-645 406q-32 19 -32 59q0 27 19 47t48 20q24 0 39 -10l694 -440q20 -12 31.5 -34.5t11.5 -47.5q0 -52 -45 -80l-692 -440q-15 -10 -39 -10q-27 0 -47 19t-20 48z" />
<glyph unicode="?" horiz-adv-x="933" d="M123 1329q0 43 39 62q142 65 295 65q155 0 264.5 -110t109.5 -265q0 -178 -135 -280l-133 -101q-49 -40 -49 -114v-119q0 -29 -21 -49.5t-49 -20.5q-29 0 -49 20.5t-20 49.5v119q0 64 25.5 120.5t74.5 94.5l133 102q84 66 84 178q0 99 -69.5 172.5t-165.5 73.5 q-119 0 -240 -57q-15 -6 -29 -6q-28 0 -46.5 17.5t-18.5 47.5zM344 80q0 40 29.5 69t70.5 29q40 0 69.5 -29t29.5 -69q0 -41 -29.5 -70.5t-69.5 -29.5q-41 0 -70.5 29.5t-29.5 70.5z" />
<glyph unicode="@" horiz-adv-x="1482" d="M246 182v768q0 209 148.5 357.5t357.5 148.5q137 0 253.5 -68t184 -184.5t67.5 -253.5v-583q0 -30 -17 -55.5t-44 -35.5q-113 -45 -246 -45q-138 0 -236 98t-98 236t98 236t236 98h170v51q0 152 -108 259.5t-260 107.5t-259.5 -107.5t-107.5 -259.5v-768q0 -137 90 -241 q85 -99 221 -121q25 -4 41.5 -24.5t16.5 -45.5q0 -28 -20 -48.5t-50 -20.5q-21 0 -59 10q-154 43 -256 159q-123 141 -123 332zM756 565q0 -79 57 -136.5t137 -57.5q91 0 170 26v365h-170q-80 0 -137 -57.5t-57 -139.5z" />
<glyph unicode="A" horiz-adv-x="1126" d="M31 49q0 7 4 23l450 1331q7 23 29.5 38t48.5 15t48.5 -15t29.5 -38l451 -1331q4 -16 4 -23q0 -27 -20.5 -48t-49.5 -21q-22 0 -40 12.5t-25 34.5l-125 370h-545l-125 -370q-7 -21 -25.5 -34t-40.5 -13q-27 0 -48 20t-21 49zM338 535h450l-225 682z" />
<glyph unicode="B" horiz-adv-x="1093" d="M154 96v1243q0 40 28 68.5t68 28.5h317q171 0 277 -103t106 -278q0 -91 -43.5 -169.5t-122.5 -133.5q95 -56 151 -145.5t56 -198.5q0 -188 -112.5 -298t-298.5 -110h-330q-40 0 -68 28t-28 68zM297 137h283q124 0 196 68.5t72 202.5q0 113 -87 190.5t-214 77.5h-250v-539 zM297 813h235q117 0 196 70t79 172q0 116 -62 179.5t-178 63.5h-270v-485z" />
<glyph unicode="C" horiz-adv-x="993" d="M113 473v490q0 223 135 358t358 135q147 0 295 -90q31 -19 31 -57q0 -28 -19 -48t-49 -20q-24 0 -39 10q-112 72 -219 72q-164 0 -258 -94q-92 -95 -92 -260v-502q0 -165 92 -260q94 -94 258 -94q105 0 219 73q17 11 39 11q28 0 48 -20t20 -50q0 -38 -31 -57 q-148 -90 -295 -90q-223 0 -358 135q-135 138 -135 358z" />
<glyph unicode="D" horiz-adv-x="1159" d="M154 96v1243q0 40 28 68.5t68 28.5h270q236 0 383 -144q144 -141 144 -377v-393q0 -238 -144 -379q-146 -143 -383 -143h-270q-40 0 -68 28t-28 68zM297 137h223q179 0 281 103t102 282v393q0 178 -102 280.5t-281 102.5h-223v-1161z" />
<glyph unicode="E" horiz-adv-x="999" d="M154 96v1243q0 40 28 68.5t68 28.5h596q28 0 48.5 -20.5t20.5 -49.5t-20 -48.5t-49 -19.5h-549v-487h522q28 0 49 -19.5t21 -48.5t-19.5 -49t-50.5 -20h-522v-537h561q30 0 50 -19t20 -48t-20.5 -49.5t-49.5 -20.5h-608q-40 0 -68 28t-28 68z" />
<glyph unicode="F" horiz-adv-x="937" d="M154 49v1290q0 40 28 68.5t68 28.5h588q29 0 49 -20.5t20 -49.5q0 -28 -20 -48t-49 -20h-541v-485h514q29 0 49.5 -20.5t20.5 -49.5q0 -28 -20.5 -47.5t-49.5 -19.5h-514v-627q0 -29 -21 -49t-51 -20q-29 0 -50 20t-21 49z" />
<glyph unicode="G" horiz-adv-x="1124" d="M113 473v490q0 223 135 358t358 135q77 0 163.5 -24t156.5 -64q32 -17 32 -61q0 -27 -19 -46.5t-48 -19.5q-21 0 -37 8q-141 74 -248 74q-162 0 -256 -94q-94 -97 -94 -260v-502q0 -163 94 -260q94 -94 256 -94q135 0 262 45v473h-235q-30 0 -50 19t-20 48t20.5 49.5 t49.5 20.5h285q38 0 66 -28t28 -68v-537q0 -28 -15 -52t-41 -36q-146 -67 -350 -67q-223 0 -358 135q-135 138 -135 358z" />
<glyph unicode="H" horiz-adv-x="1200" d="M154 51v1333q0 29 21 50.5t50 21.5t50.5 -21.5t21.5 -50.5v-571h606v571q0 29 22 50.5t50 21.5q29 0 50.5 -21.5t21.5 -50.5v-1333q0 -29 -21.5 -50t-50.5 -21q-28 0 -50 21t-22 50v625h-606v-625q0 -29 -21.5 -50t-50.5 -21t-50 21t-21 50z" />
<glyph unicode="I" horiz-adv-x="450" d="M154 51v1333q0 29 21 50.5t50 21.5t50.5 -21.5t21.5 -50.5v-1333q0 -29 -21.5 -50t-50.5 -21t-50 21t-21 50z" />
<glyph unicode="J" horiz-adv-x="749" d="M51 57q0 32 21 52t49 20q2 0 42.5 -6t76.5 -6q94 0 158.5 67.5t64.5 163.5v1038q0 29 22 49.5t50 20.5q29 0 50 -20.5t21 -49.5v-1038q0 -152 -107 -260t-259 -108q-74 0 -125 10q-29 6 -46.5 24t-17.5 43z" />
<glyph unicode="K" horiz-adv-x="1024" d="M154 51v1333q0 29 21 50.5t50 21.5t50.5 -21.5t21.5 -50.5v-555l549 605q22 22 51 22q28 0 49 -20.5t21 -49.5q0 -25 -19 -47l-545 -596l574 -647q16 -19 16 -47q0 -27 -19.5 -48t-47.5 -21q-33 0 -54 24l-575 653v-606q0 -29 -21.5 -50t-50.5 -21t-50 21t-21 50z" />
<glyph unicode="L" horiz-adv-x="958" d="M154 96v1288q0 29 21 50.5t50 21.5t50.5 -21.5t21.5 -50.5v-1247h561q30 0 50 -19t20 -48t-20.5 -49.5t-49.5 -20.5h-608q-40 0 -68 28t-28 68z" />
<glyph unicode="M" horiz-adv-x="1490" d="M154 51v1321q0 35 24 59.5t58 24.5q50 0 75 -49l434 -838l435 838q25 49 75 49q34 0 58 -24.5t24 -59.5v-1321q0 -29 -21 -50t-50 -21q-28 0 -50 21t-22 50v1086l-375 -727q-22 -45 -74 -45q-51 0 -73 45l-375 727v-1086q0 -29 -21.5 -50t-50.5 -21t-50 21t-21 50z" />
<glyph unicode="N" horiz-adv-x="1214" d="M154 51v1321q0 35 24 59.5t58 24.5q51 0 73 -43l609 -1120v1091q0 29 21 50.5t50 21.5q28 0 50 -21.5t22 -50.5v-1321q0 -35 -24.5 -59t-59.5 -24q-50 0 -72 43l-608 1118v-1090q0 -29 -21.5 -50t-50.5 -21t-50 21t-21 50z" />
<glyph unicode="O" horiz-adv-x="1159" d="M113 446v543q0 209 129 338t338 129t338 -129t129 -338v-543q0 -208 -129 -337t-338 -129t-338 129t-129 337zM256 440q0 -151 88 -239t236 -88q147 0 235 88t88 239v553q0 154 -88 242t-235 88q-148 0 -236 -88t-88 -242v-553z" />
<glyph unicode="P" horiz-adv-x="1062" d="M154 49v1290q0 40 28 68.5t68 28.5h323q186 0 301 -115q117 -117 117 -307q0 -185 -110 -295q-116 -113 -308 -113h-276v-557q0 -29 -21 -49t-51 -20q-29 0 -50 20t-21 49zM297 743h272q132 0 209 74q70 70 70 197q0 133 -76 209q-75 75 -203 75h-272v-555z" />
<glyph unicode="Q" horiz-adv-x="1167" d="M113 446v543q0 209 129 338t338 129t338 -129t129 -338v-543q0 -208 -129 -337q-40 -40 -107 -76l389 -105q23 -6 36 -23.5t13 -41.5q0 -28 -20 -47t-49 -19q-15 0 -27 4l-717 201q-118 31 -194 107q-129 129 -129 337zM256 444q0 -153 86 -239q88 -88 238 -88 q149 0 237 88q86 86 86 239v551q0 154 -86 240q-88 88 -237 88q-150 0 -238 -88q-86 -86 -86 -240v-551z" />
<glyph unicode="R" horiz-adv-x="1081" d="M154 51v1288q0 40 28 68.5t68 28.5h364q178 0 287 -109q113 -113 113 -297q0 -156 -86 -259t-234 -126l318 -561q8 -13 8 -33q0 -43 -35 -61q-17 -10 -35 -10q-40 0 -59 36l-352 623h-242v-588q0 -29 -21.5 -50t-50.5 -21t-50 21t-21 50zM297 776h313q124 0 193 66 q67 64 67 188q0 130 -69 199t-191 69h-313v-522z" />
<glyph unicode="S" horiz-adv-x="970" d="M72 121q0 28 20 47.5t49 19.5q17 0 29 -6q148 -69 291 -69q147 0 221 66.5t74 191.5q0 91 -59 154t-156 110l-224 108q-61 30 -103 59.5t-76 71t-50 97t-16 127.5q0 109 59.5 192t156 124.5t212.5 41.5q170 0 331 -67q21 -7 33.5 -25.5t12.5 -40.5q0 -27 -20.5 -47.5 t-49.5 -20.5q-15 0 -29 7q-143 61 -278 61q-52 0 -100 -12t-91 -37.5t-68.5 -71.5t-25.5 -108q0 -75 40.5 -129.5t123.5 -94.5l223 -108q68 -33 114 -63.5t91.5 -76.5t68.5 -109t23 -142q0 -123 -61 -213t-159 -134t-218 -44q-169 0 -348 77q-18 7 -29.5 25t-11.5 39z" />
<glyph unicode="T" horiz-adv-x="980" d="M10 1366q0 29 20.5 49.5t49.5 20.5h821q28 0 49 -20.5t21 -49.5q0 -28 -21 -48t-49 -20h-340v-1247q0 -29 -21.5 -50t-50.5 -21t-50 21t-21 50v1247h-338q-29 0 -49.5 20t-20.5 48z" />
<glyph unicode="U" horiz-adv-x="1212" d="M133 453v931q0 29 21.5 50.5t50.5 21.5t50 -21.5t21 -50.5v-938q0 -157 86 -243q90 -90 244 -90t244 90q86 86 86 243v938q0 29 21.5 50.5t50.5 21.5t50 -21.5t21 -50.5v-931q0 -213 -129 -342q-131 -131 -344 -131t-344 131q-129 129 -129 342z" />
<glyph unicode="V" horiz-adv-x="1067" d="M20 1386q0 30 19 50t51 20q22 0 41.5 -13.5t26.5 -35.5l377 -1182l374 1182q7 22 26.5 35.5t41.5 13.5q30 0 50 -20t20 -50q0 -2 -5 -22l-430 -1327q-9 -26 -30.5 -41.5t-49.5 -15.5q-26 0 -47 15.5t-30 41.5l-430 1327q-5 20 -5 22z" />
<glyph unicode="W" horiz-adv-x="1576" d="M31 1391q0 26 19.5 45.5t47.5 19.5q24 0 44 -14.5t26 -38.5l276 -1124l265 1116q6 27 28.5 44t50.5 17t51 -17t29 -44l265 -1116l276 1124q6 24 26 38.5t44 14.5q27 0 47 -20t20 -47q0 -11 -2 -19l-332 -1329q-7 -28 -29 -44.5t-50 -16.5t-51 17.5t-29 43.5l-265 1114 l-264 -1114q-6 -26 -29 -43.5t-51 -17.5t-50 16.5t-29 44.5l-332 1329q-2 8 -2 21z" />
<glyph unicode="X" horiz-adv-x="1040" d="M20 51q0 17 11 35l409 637l-401 627q-12 20 -12 36q0 27 20.5 48.5t48.5 21.5q37 0 60 -33l364 -573l365 573q23 33 59 33q28 0 48 -20t20 -50q0 -20 -11 -36l-401 -627l410 -637q10 -17 10 -35q0 -28 -21 -49.5t-51 -21.5q-38 0 -57 32l-371 584l-373 -584 q-19 -32 -57 -32q-27 0 -48.5 20.5t-21.5 50.5z" />
<glyph unicode="Y" horiz-adv-x="999" d="M20 1386q0 27 20 48.5t50 21.5q42 0 60 -35l350 -635l350 635q18 35 61 35q27 0 47.5 -20.5t20.5 -49.5q0 -18 -8 -34l-402 -713v-590q0 -29 -20 -49t-49 -20t-49.5 20t-20.5 49v590l-401 713q-9 15 -9 34z" />
<glyph unicode="Z" horiz-adv-x="1001" d="M41 82q0 25 12 43l719 1175h-657q-29 0 -48.5 18.5t-19.5 47.5t19.5 49.5t48.5 20.5h757q34 0 58 -24t24 -58q0 -25 -12 -43l-721 -1176h670q29 0 49.5 -18.5t20.5 -46.5q0 -30 -20 -50t-50 -20h-768q-34 0 -58 24t-24 58z" />
<glyph unicode="[" horiz-adv-x="694" d="M133 -229v1755q0 29 20.5 49t49.5 20h280q27 0 47.5 -18.5t20.5 -46.5t-20 -48t-48 -20h-211v-1626h211q28 0 48 -18t20 -47q0 -28 -20 -48t-48 -20h-280q-29 0 -49.5 20t-20.5 48z" />
<glyph unicode="\" horiz-adv-x="1122" d="M225 1389q0 28 20 47.5t50 19.5q49 0 65 -45l531 -1335q6 -12 6 -29q0 -27 -20.5 -47t-49.5 -20q-21 0 -39.5 12t-25.5 33l-531 1333q-6 15 -6 31z" />
<glyph unicode="]" horiz-adv-x="704" d="M154 -229q0 29 19.5 47t47.5 18h211v1626h-211q-28 0 -47.5 20t-19.5 48t20 46.5t47 18.5h281q29 0 49 -20t20 -49v-1755q0 -28 -20 -48t-49 -20h-281q-28 0 -47.5 20t-19.5 48z" />
<glyph unicode="^" d="M94 805q0 22 10 37l371 581q20 33 60 33q37 0 57 -33l371 -581q10 -15 10 -39q0 -30 -20.5 -49t-47.5 -19q-40 0 -59 31l-311 502l-312 -502q-22 -31 -61 -31q-28 0 -48 22t-20 48z" />
<glyph unicode="_" horiz-adv-x="1120" d="M41 -229q0 29 19 47t49 18h903q27 0 47 -18.5t20 -46.5t-19.5 -48t-47.5 -20h-903q-29 0 -48.5 20t-19.5 48z" />
<glyph unicode="`" horiz-adv-x="819" d="M236 1389q0 26 17.5 46.5t45.5 20.5q22 0 37 -10l219 -133q31 -22 31 -60q0 -26 -20 -44.5t-48 -18.5q-21 0 -39 12l-211 129q-32 19 -32 58z" />
<glyph unicode="a" horiz-adv-x="962" d="M82 295q0 143 90 227q91 82 285 82h233v129q0 89 -59 137t-158 48q-114 0 -235 -70q-17 -10 -33 -10q-29 0 -49.5 17.5t-20.5 47.5q0 41 35 62q133 82 303 82q153 0 254.5 -81t101.5 -231v-614q0 -31 -18 -56t-47 -34q-151 -51 -307 -51q-188 0 -285 88q-90 81 -90 227z M221 295q0 -36 8 -64.5t31 -58.5t73 -46.5t124 -16.5q124 0 233 34v332h-233q-74 0 -124 -15.5t-73 -44.5t-31 -56.5t-8 -63.5z" />
<glyph unicode="b" horiz-adv-x="1003" d="M143 121v1265q0 29 20.5 49.5t49.5 20.5t49.5 -20.5t20.5 -49.5v-401q114 62 235 62q170 0 271.5 -102.5t101.5 -272.5v-318q0 -167 -103 -270.5t-270 -103.5q-158 0 -309 51q-29 9 -47.5 34t-18.5 56zM283 143q109 -34 235 -34q109 0 171.5 62.5t62.5 172.5v338 q0 110 -62.5 173t-171.5 63q-147 0 -235 -82v-693z" />
<glyph unicode="c" horiz-adv-x="845" d="M102 354v318q0 168 103.5 271.5t271.5 103.5q141 0 268 -62q39 -19 39 -61q0 -28 -20 -47t-49 -19q-16 0 -31 6q-108 54 -207 54q-110 0 -172.5 -63t-62.5 -173v-338q0 -110 62.5 -172.5t172.5 -62.5q107 0 207 51q16 8 31 8q28 0 48.5 -19.5t20.5 -46.5q0 -42 -39 -61 q-125 -61 -268 -61q-169 0 -272 103t-103 271z" />
<glyph unicode="d" horiz-adv-x="993" d="M102 354v318q0 170 101.5 272.5t271.5 102.5q122 0 236 -62v401q0 29 20 49.5t49 20.5t49.5 -20.5t20.5 -49.5v-1265q0 -31 -18.5 -56t-47.5 -34q-151 -51 -309 -51q-167 0 -270 103.5t-103 270.5zM242 344q0 -110 62 -172.5t171 -62.5q127 0 236 34v693q-88 82 -236 82 q-109 0 -171 -63t-62 -173v-338z" />
<glyph unicode="e" horiz-adv-x="952" d="M102 354v318q0 168 103.5 271.5t271.5 103.5q167 0 270 -104t103 -271v-107q0 -40 -28 -68t-68 -28h-512v-115q0 -111 63 -178t172 -67q106 0 234 57q15 6 28 6q29 0 49.5 -19t20.5 -47q0 -42 -39 -61q-133 -65 -293 -65q-169 0 -272 103t-103 271zM242 598h469v84 q0 110 -62.5 173t-171.5 63q-110 0 -172.5 -63t-62.5 -173v-84z" />
<glyph unicode="f" horiz-adv-x="616" d="M143 49v1139q0 110 79.5 189t189.5 79q58 0 116 -12q26 -6 42 -24.5t16 -43.5q0 -30 -20.5 -47.5t-47.5 -17.5q-16 0 -48.5 6t-57.5 6q-54 0 -91.5 -37.5t-37.5 -91.5v-168h235q28 0 48 -19.5t20 -48.5t-20 -47t-48 -18h-235v-844q0 -29 -20.5 -49t-49.5 -20t-49.5 20 t-20.5 49z" />
<glyph unicode="g" horiz-adv-x="993" d="M102 354v318q0 168 103.5 271.5t271.5 103.5q164 0 307 -52q30 -11 48 -35.5t18 -54.5v-987q0 -169 -103 -272t-270 -103q-141 0 -284 62q-19 7 -30 24t-11 37q0 28 19 48t48 20q12 0 27 -6q130 -56 231 -56q108 0 171 67.5t63 178.5v133q-104 -71 -234 -71 q-169 0 -272 103t-103 271zM242 344q0 -110 62.5 -172.5t172.5 -62.5q136 0 234 92v682q-113 35 -234 35q-110 0 -172.5 -63t-62.5 -173v-338z" />
<glyph unicode="h" horiz-adv-x="1024" d="M143 49v1337q0 29 20.5 49.5t49.5 20.5t49.5 -20.5t20.5 -49.5v-401q114 62 235 62q167 0 270 -104t103 -271v-623q0 -29 -20.5 -49t-49.5 -20t-49 20t-20 49v633q0 110 -62.5 173t-171.5 63q-136 0 -235 -93v-776q0 -29 -20.5 -49t-49.5 -20t-49.5 20t-20.5 49z" />
<glyph unicode="i" horiz-adv-x="471" d="M143 1364q0 38 27.5 65t65.5 27t65 -27t27 -65t-27 -66t-65 -28t-65.5 28t-27.5 66zM166 49v928q0 28 20.5 49t49.5 21t49 -21t20 -49v-928q0 -29 -20 -49t-49 -20t-49.5 20t-20.5 49z" />
<glyph unicode="j" horiz-adv-x="485" d="M-41 -389q0 24 14.5 41.5t38.5 21.5q85 20 131.5 84.5t46.5 161.5v1057q0 28 20.5 49t49.5 21t49.5 -21t20.5 -49v-1051q0 -145 -78.5 -250.5t-206.5 -130.5q-12 -2 -20 -2q-25 0 -45.5 19t-20.5 49zM168 1364q0 38 27 65t65 27t65 -27t27 -65t-27 -66t-65 -28t-65 28 t-27 66z" />
<glyph unicode="k" horiz-adv-x="888" d="M154 49v1337q0 29 20 49.5t49 20.5t49.5 -20.5t20.5 -49.5v-741l426 383q19 19 47 19q27 0 48.5 -20t21.5 -48q0 -30 -23 -53l-412 -359l430 -471q19 -19 19 -47q0 -29 -20.5 -49t-49.5 -20q-32 0 -53 24l-434 490v-445q0 -29 -20.5 -49t-49.5 -20t-49 20t-20 49z" />
<glyph unicode="l" horiz-adv-x="446" d="M154 49v1337q0 29 20 49.5t49 20.5t49.5 -20.5t20.5 -49.5v-1337q0 -29 -20.5 -49t-49.5 -20t-49 20t-20 49z" />
<glyph unicode="m" horiz-adv-x="1540" d="M143 49v850q0 29 17 53t45 35q160 60 317 60q149 0 244 -95q135 95 291 95q145 0 247.5 -103.5t102.5 -249.5v-645q0 -29 -20.5 -49t-49.5 -20t-49 20t-20 49v656q0 88 -61.5 150.5t-149.5 62.5q-118 0 -213 -70v-799q0 -29 -20 -49t-48 -20q-29 0 -49 20t-20 49v723 q0 67 -55.5 106.5t-129.5 39.5q-126 0 -239 -39v-830q0 -29 -20.5 -49t-49.5 -20t-49.5 20t-20.5 49z" />
<glyph unicode="n" horiz-adv-x="1024" d="M143 49v856q0 30 18 54.5t48 35.5q143 52 309 52q167 0 270 -104t103 -271v-623q0 -29 -20.5 -49t-49.5 -20t-49 20t-20 49v633q0 110 -62.5 173t-171.5 63q-122 0 -235 -35v-834q0 -29 -20.5 -49t-49.5 -20t-49.5 20t-20.5 49z" />
<glyph unicode="o" horiz-adv-x="991" d="M102 375v276q0 177 108.5 286.5t285.5 109.5t285 -109.5t108 -286.5v-276q0 -177 -108 -286t-285 -109t-285.5 109t-108.5 286zM242 365q0 -120 67 -188t187 -68t187 68t67 188v297q0 120 -67 188t-187 68t-187 -68t-67 -188v-297z" />
<glyph unicode="p" horiz-adv-x="1003" d="M143 -387v1292q0 30 18 54.5t48 35.5q146 52 309 52q167 0 270 -104t103 -271v-318q0 -167 -103 -270.5t-270 -103.5q-122 0 -235 61v-428q0 -29 -20.5 -49.5t-49.5 -20.5t-49.5 20.5t-20.5 49.5zM283 190q86 -81 235 -81q109 0 171.5 62.5t62.5 172.5v338 q0 110 -62.5 173t-171.5 63q-119 0 -235 -35v-693z" />
<glyph unicode="q" horiz-adv-x="993" d="M102 354v318q0 168 103.5 271.5t271.5 103.5q161 0 307 -52q30 -11 48 -35.5t18 -54.5v-1292q0 -29 -20.5 -49.5t-49.5 -20.5t-49 20.5t-20 49.5v428q-113 -61 -234 -61q-169 0 -272 103t-103 271zM242 344q0 -110 62.5 -172.5t172.5 -62.5q148 0 234 81v693 q-116 35 -234 35q-110 0 -172.5 -63t-62.5 -173v-338z" />
<glyph unicode="r" horiz-adv-x="645" d="M143 49v715q0 126 78 204.5t191 78.5q64 0 147 -17q24 -4 39.5 -23.5t15.5 -43.5q0 -28 -20 -47t-49 -19q-4 0 -10 1t-13.5 2.5t-11.5 2.5q-55 10 -98 10q-56 0 -92.5 -38.5t-36.5 -104.5v-721q0 -29 -20.5 -49t-49.5 -20t-49.5 20t-20.5 49z" />
<glyph unicode="s" horiz-adv-x="825" d="M92 102q0 28 20 47t50 19q8 0 28 -8q116 -51 220 -51q75 0 128.5 41.5t53.5 109.5q0 62 -31 100.5t-98 67.5l-193 80q-178 76 -178 260q0 125 96 202t236 77q133 0 250 -52q43 -19 43 -65q0 -28 -20 -46t-50 -18q-11 0 -26 6q-97 46 -213 46q-69 0 -123 -36t-54 -108 q0 -100 103 -141l192 -78q94 -38 149.5 -109t55.5 -163q0 -128 -94 -215.5t-234 -87.5q-146 0 -270 59q-41 18 -41 63z" />
<glyph unicode="t" horiz-adv-x="647" d="M143 260v1126q0 29 20.5 49.5t49.5 20.5t49.5 -20.5t20.5 -49.5v-360h235q28 0 48 -19.5t20 -48.5t-20 -47t-48 -18h-235v-637q0 -64 36.5 -102.5t92.5 -38.5q17 0 58 4t50 4q24 0 45 -18.5t21 -47.5q0 -25 -16 -44t-42 -23q-65 -10 -116 -10q-112 0 -190.5 79t-78.5 201 z" />
<glyph unicode="u" horiz-adv-x="1024" d="M133 354v623q0 28 20.5 49t49.5 21t49 -21t20 -49v-633q0 -110 63 -172.5t173 -62.5q124 0 233 34v834q0 28 20.5 49t49.5 21t49.5 -21t20.5 -49v-856q0 -31 -18 -56t-46 -34q-151 -51 -309 -51q-173 0 -274 101.5t-101 272.5z" />
<glyph unicode="v" horiz-adv-x="829" d="M31 977q0 29 19.5 49.5t49.5 20.5q22 0 40.5 -13t25.5 -35l258 -780l240 778q6 22 23.5 36t39.5 14q30 0 51 -19.5t21 -50.5q0 -7 -4 -23l-291 -915q-7 -26 -29.5 -42.5t-50.5 -16.5q-27 0 -48.5 16t-29.5 41l-311 917q-4 16 -4 23z" />
<glyph unicode="w" horiz-adv-x="1382" d="M51 977q0 26 19.5 46.5t50.5 20.5q24 0 42.5 -13t24.5 -36l218 -762l206 752q8 27 30.5 44.5t49.5 17.5t49.5 -17.5t30.5 -44.5l205 -752l217 762q6 23 25 36t43 13q27 0 48 -19.5t21 -47.5q0 -9 -4 -21l-272 -917q-8 -26 -29 -42.5t-49 -16.5t-50.5 17t-29.5 44 l-205 747l-205 -747q-7 -28 -29 -44.5t-50 -16.5t-50.5 16.5t-29.5 42.5l-273 917q-4 12 -4 21z" />
<glyph unicode="x" horiz-adv-x="849" d="M51 51q0 22 10 37l285 430l-276 420q-13 19 -13 39q0 27 20.5 48.5t49.5 21.5q36 0 59 -33l240 -373l240 373q20 33 57 33q27 0 48.5 -20t21.5 -50q0 -20 -13 -39l-276 -420l284 -430q11 -17 11 -37q0 -29 -19.5 -50t-50.5 -21q-38 0 -57 32l-246 383l-248 -383 q-19 -32 -57 -32q-29 0 -49.5 20t-20.5 51z" />
<glyph unicode="y" horiz-adv-x="868" d="M41 -389q0 26 20 44.5t48 20.5q182 9 231 164l49 160l-342 952q-4 16 -4 23q0 28 19.5 48.5t50.5 20.5q49 0 65 -45l281 -800l241 798q6 22 25 36t41 14q29 0 50.5 -20t21.5 -50q0 -7 -4 -23l-365 -1155q-37 -117 -132.5 -186.5t-227.5 -69.5q-28 0 -48 19t-20 49z" />
<glyph unicode="z" horiz-adv-x="870" d="M61 82q0 28 15 49l549 762h-488q-30 0 -49.5 18t-19.5 47t20 48.5t49 19.5h582q35 0 59.5 -24.5t24.5 -59.5q0 -26 -15 -47l-550 -762h501q29 0 49.5 -18.5t20.5 -46.5q0 -29 -20.5 -48.5t-49.5 -19.5h-596q-34 0 -58 24t-24 58z" />
<glyph unicode="{" horiz-adv-x="802" d="M102 649q0 26 18 45.5t44 22.5q69 9 115.5 61.5t46.5 122.5v399q0 122 87 208.5t208 86.5q30 0 49.5 -18t19.5 -47t-20 -48.5t-49 -19.5q-64 0 -110 -48.5t-46 -113.5v-399q0 -75 -35 -141t-96 -111q61 -45 96 -112t35 -142v-368q0 -77 46 -134t110 -57q29 0 49 -19 t20 -48q0 -28 -20 -47t-49 -19q-122 0 -208.5 95.5t-86.5 228.5v368q0 71 -46.5 124.5t-115.5 60.5q-27 3 -44.5 22.5t-17.5 46.5z" />
<glyph unicode="|" horiz-adv-x="630" d="M246 -387v1913q0 29 20 49t49 20t49.5 -20t20.5 -49v-1913q0 -29 -20.5 -49.5t-49.5 -20.5t-49 20.5t-20 49.5z" />
<glyph unicode="}" horiz-adv-x="802" d="M113 -231q0 29 20 48t49 19q64 0 110 57t46 134v368q0 75 35 142t96 112q-61 45 -96 111t-35 141v399q0 65 -46 113.5t-110 48.5q-29 0 -49 19.5t-20 48.5t19.5 47t49.5 18q122 0 208.5 -86.5t86.5 -208.5v-399q0 -70 46.5 -122.5t115.5 -61.5q26 -3 43.5 -22.5 t17.5 -45.5q0 -28 -17.5 -47t-43.5 -22q-69 -7 -115.5 -60.5t-46.5 -124.5v-368q0 -133 -86.5 -228.5t-208.5 -95.5q-29 0 -49 19t-20 47z" />
<glyph unicode="~" d="M25 467q0 26 14 43q54 72 134 112t171 40q103 0 229 -78q83 -52 144 -52q58 0 111 27.5t87 73.5q24 31 56 31q27 0 47 -19.5t20 -48.5q0 -20 -14 -41q-55 -73 -135 -112.5t-172 -39.5q-104 0 -228 76q-82 53 -145 53q-58 0 -110.5 -28t-88.5 -76q-21 -27 -55 -27 q-27 0 -46 18.5t-19 47.5z" />
<glyph unicode="&#xa1;" horiz-adv-x="731" d="M266 946q0 41 29.5 71t69.5 30q41 0 70.5 -30t29.5 -71t-29.5 -69.5t-70.5 -28.5q-40 0 -69.5 28.5t-29.5 69.5zM295 -387v969q0 29 21 49t49 20q29 0 49 -20t20 -49v-969q0 -29 -20 -49.5t-49 -20.5q-28 0 -49 20.5t-21 49.5z" />
<glyph unicode="&#xa2;" d="M240 582v272q0 133 71 223t193 113v196q0 29 20 49.5t49 20.5t49.5 -20.5t20.5 -49.5v-192q93 -9 186 -53q37 -16 37 -60q0 -28 -18.5 -46.5t-48.5 -18.5q-15 0 -31 8q-92 45 -184 45q-96 0 -150.5 -56t-54.5 -153v-289q0 -97 54 -150.5t151 -53.5q92 0 184 45q16 8 31 8 q29 0 48 -18t19 -48q0 -40 -39 -59q-86 -44 -184 -53v-193q0 -29 -20.5 -49t-49.5 -20t-49 20t-20 49v197q-122 23 -193 113t-71 223z" />
<glyph unicode="&#xa3;" d="M127 72q0 29 20 49q164 164 164 389v250h-116q-29 0 -48.5 18.5t-19.5 46.5q0 29 19.5 48.5t48.5 19.5h116v211q0 158 97.5 255t255.5 97q106 0 210 -63q31 -19 31 -58q0 -26 -18.5 -44.5t-46.5 -18.5q-18 0 -35 10q-77 45 -141 45q-99 0 -156 -61t-57 -162v-211h385 q29 0 49 -19.5t20 -48.5q0 -28 -19 -46.5t-48 -18.5h-387v-250q0 -194 -119 -377h538q30 0 50 -19t20 -48t-20 -47.5t-50 -18.5h-673q-28 0 -49 21t-21 51z" />
<glyph unicode="&#xa4;" d="M45 299q0 28 21 49l141 141q-74 99 -74 230q0 125 74 229l-141 139q-21 21 -21 50q0 27 20 48t48 21q31 0 51 -20l141 -139q99 71 230 71q125 0 229 -71l139 139q20 20 49 20q28 0 49 -20t21 -49t-21 -50l-139 -139q72 -106 72 -229q0 -129 -72 -230l139 -141 q21 -25 21 -49q0 -27 -20.5 -48.5t-49.5 -21.5q-31 0 -49 21l-139 141q-104 -74 -229 -74q-131 0 -230 74l-141 -141q-21 -21 -49 -21t-49 20t-21 50zM272 719q0 -109 77.5 -188.5t185.5 -79.5q107 0 183.5 79.5t76.5 188.5q0 108 -76.5 187t-183.5 79q-108 0 -185.5 -79 t-77.5 -187z" />
<glyph unicode="&#xa5;" d="M53 1384q0 29 19.5 50.5t50.5 21.5q41 0 59 -35l350 -620l351 620q18 35 59 35q28 0 49 -20t21 -50q0 -18 -8 -34l-340 -594h186q29 0 49.5 -19.5t20.5 -48.5t-20 -47t-50 -18h-248v-199h248q29 0 49.5 -19.5t20.5 -48.5t-20 -47t-50 -18h-248v-244q0 -29 -20.5 -49 t-49.5 -20t-49 20t-20 49v244h-248q-30 0 -50 18t-20 47t20.5 48.5t49.5 19.5h248v199h-248q-30 0 -50 18t-20 47t20.5 48.5t49.5 19.5h188l-342 594q-8 13 -8 32z" />
<glyph unicode="&#xa6;" horiz-adv-x="630" d="M246 313q0 29 20 49.5t49 20.5t49.5 -20.5t20.5 -49.5v-700q0 -29 -20.5 -49.5t-49.5 -20.5t-49 20.5t-20 49.5v700zM246 823v703q0 28 20 48.5t49 20.5t49.5 -20t20.5 -49v-703q0 -28 -20.5 -48.5t-49.5 -20.5t-49 20.5t-20 48.5z" />
<glyph unicode="&#xa7;" d="M188 -158q0 28 19.5 46t48.5 18q11 0 31 -8q128 -54 245 -54q85 0 146 57t61 132q0 58 -30.5 109t-83.5 77l-252 121q-86 41 -135.5 115.5t-49.5 165.5q0 168 115 292q-54 44 -84.5 107.5t-30.5 132.5q0 126 100.5 214.5t243.5 88.5q145 0 283 -55q21 -7 33 -25t12 -39 q0 -29 -19.5 -47t-47.5 -18q-11 0 -31 8q-120 47 -230 47q-83 0 -143.5 -52.5t-60.5 -121.5q0 -51 28.5 -95t77.5 -69l252 -127q90 -45 141.5 -123t51.5 -174q0 -166 -109 -284q109 -101 109 -248q0 -131 -102.5 -224.5t-244.5 -93.5q-163 0 -303 64q-41 20 -41 63zM328 621 q0 -51 28 -94t78 -68l215 -105q90 87 90 211q0 57 -30 104.5t-84 73.5l-199 97q-98 -85 -98 -219z" />
<glyph unicode="&#xa8;" horiz-adv-x="819" d="M160 1364q0 38 27 65t65 27t65 -27t27 -65t-27 -66t-65 -28t-65 28t-27 66zM477 1364q0 38 27 65t65 27t65.5 -27t27.5 -65t-27.5 -66t-65.5 -28t-65 28t-27 66z" />
<glyph unicode="&#xa9;" horiz-adv-x="1722" d="M123 719q0 200 99 369.5t268.5 268.5t369.5 99q201 0 371 -99t269 -268.5t99 -369.5q0 -150 -58.5 -287t-157.5 -236t-236 -157.5t-287 -58.5q-200 0 -369.5 99t-268.5 269t-99 371zM244 719q0 -167 82.5 -310.5t224.5 -228t309 -84.5t309.5 84.5t225 228t82.5 310.5 q0 125 -49 239.5t-131.5 198t-197 133t-239.5 49.5q-167 0 -309 -84t-224.5 -227t-82.5 -309zM586 621v196q0 133 82.5 215t216.5 82q99 0 178 -53q27 -20 27 -51q0 -25 -18.5 -40.5t-43.5 -15.5q-15 0 -33 11q-52 34 -110 34q-83 0 -129.5 -47t-46.5 -129v-209 q0 -83 46.5 -129.5t129.5 -46.5q58 0 108 33q20 12 35 12q26 0 44 -17t18 -40q0 -31 -27 -51q-79 -53 -178 -53q-133 0 -216 83t-83 216z" />
<glyph unicode="&#xaa;" horiz-adv-x="737" d="M127 1014q0 22 3.5 43.5t18 50.5t38 50.5t68 36.5t103.5 15h109v50q0 31 -27 55t-57 24q-43 0 -70.5 -6t-60.5 -26q-15 -9 -31 -9q-23 0 -41 16.5t-18 41.5q0 35 31 51q92 49 196 49q67 0 125 -45q76 -60 76 -151v-345q0 -24 -14 -44t-37 -27q-83 -29 -181 -29 q-59 0 -103.5 15.5t-68 37t-38 51.5t-18 51.5t-3.5 43.5zM248 1014q0 -14 2.5 -25t12 -25.5t34 -23t61.5 -8.5q56 0 109 12v152h-109q-37 0 -61.5 -8.5t-34 -23t-12 -25.5t-2.5 -25z" />
<glyph unicode="&#xab;" horiz-adv-x="999" d="M123 512q0 33 18 57l228 316q22 28 57 28q27 0 47.5 -20t20.5 -49q0 -22 -13 -41l-209 -291l209 -289q13 -20 13 -41q0 -27 -20 -48t-48 -21q-35 0 -57 28l-228 316q-18 24 -18 55zM506 512q0 33 18 57l228 316q22 28 57 28q27 0 47.5 -20t20.5 -49q0 -22 -13 -41 l-209 -291l209 -289q13 -20 13 -41q0 -27 -20 -48t-48 -21q-35 0 -57 28l-228 316q-18 24 -18 55z" />
<glyph unicode="&#xac;" d="M74 514q0 29 19 48.5t48 19.5h729q40 0 68.5 -28.5t28.5 -66.5v-352q0 -28 -20.5 -48.5t-49.5 -20.5q-28 0 -49 20.5t-21 48.5v314h-686q-29 0 -48 18.5t-19 46.5z" />
<glyph unicode="&#xad;" horiz-adv-x="847" d="M123 608q0 27 18.5 47.5t46.5 20.5h469q29 0 48.5 -20.5t19.5 -47.5t-20 -46t-48 -19h-469q-28 0 -46.5 18.5t-18.5 46.5z" />
<glyph unicode="&#xae;" horiz-adv-x="1722" d="M123 719q0 200 99 369.5t268.5 268.5t369.5 99q201 0 371 -99t269 -268.5t99 -369.5q0 -150 -58.5 -287t-157.5 -236t-236 -157.5t-287 -58.5q-200 0 -369.5 99t-268.5 269t-99 371zM248 719q0 -168 81.5 -311t222.5 -227.5t308 -84.5t309.5 84.5t225 228t82.5 310.5 q0 125 -49 239.5t-131.5 198t-197 133t-239.5 49.5q-167 0 -308 -84t-222.5 -226.5t-81.5 -309.5zM639 381v655q0 31 21.5 52.5t52.5 21.5h184q96 0 162.5 -65.5t66.5 -165.5q0 -101 -63 -164q-39 -34 -80 -47l139 -256q11 -22 11 -35q0 -24 -17 -41t-43 -17q-33 0 -53 33 l-164 303h-94v-274q0 -24 -18.5 -41.5t-43.5 -17.5q-26 0 -43.5 17t-17.5 42zM762 772h135q109 0 109 107q0 53 -28.5 82.5t-80.5 29.5h-135v-219z" />
<glyph unicode="&#xaf;" horiz-adv-x="819" d="M182 1368q0 29 19.5 48.5t48.5 19.5h319q29 0 49.5 -19.5t20.5 -48.5q0 -28 -20.5 -46.5t-49.5 -18.5h-319q-29 0 -48.5 18.5t-19.5 46.5z" />
<glyph unicode="&#xb0;" horiz-adv-x="776" d="M102 1169q0 119 84 203t203 84q118 0 201.5 -84t83.5 -203q0 -118 -83 -201t-202 -83t-203 83t-84 201zM223 1169q0 -68 48.5 -116.5t117.5 -48.5q67 0 115.5 48.5t48.5 116.5t-48.5 117t-115.5 49q-69 0 -117.5 -49t-48.5 -117z" />
<glyph unicode="&#xb1;" d="M106 66q0 29 19.5 48t48.5 19h717q30 0 50 -19t20 -48t-20 -47.5t-50 -18.5h-717q-29 0 -48.5 18.5t-19.5 47.5zM106 662q0 29 19.5 48t48.5 19h295v248q0 28 20.5 49t49.5 21t49 -21t20 -49v-248h283q30 0 50 -19t20 -48t-20 -47.5t-50 -18.5h-283v-248q0 -29 -20 -49 t-49 -20t-49.5 20t-20.5 49v248h-295q-29 0 -48.5 18.5t-19.5 47.5z" />
<glyph unicode="&#xb2;" horiz-adv-x="737" d="M129 664q0 24 14 41l281 366q57 74 57 143q0 58 -30.5 91.5t-85.5 33.5q-81 0 -140 -30q-18 -9 -28 -9q-26 0 -42 17.5t-16 38.5q0 34 35 55q81 43 191 43q107 0 173 -66.5t66 -173.5q0 -110 -80 -213l-217 -290h242q27 0 44 -16t17 -42q0 -25 -17.5 -41t-43.5 -16h-350 q-29 0 -49.5 20t-20.5 48z" />
<glyph unicode="&#xb3;" horiz-adv-x="737" d="M123 682q0 25 17.5 41t41.5 16q8 0 33 -10q62 -29 139 -29q64 0 102 39t38 103q0 56 -44.5 96.5t-107.5 40.5h-23q-25 0 -42 16t-17 41q0 24 17 41t42 17h17q55 0 95 36t40 84q0 58 -31 92.5t-86 34.5q-43 0 -70 -5t-65 -25q-18 -11 -33 -11q-25 0 -41 17.5t-16 40.5 q0 36 35 53q85 45 190 45q107 0 172.5 -66.5t65.5 -175.5q0 -103 -90 -174q112 -73 112 -198q0 -114 -72 -185t-188 -71q-119 0 -196 43q-35 17 -35 53z" />
<glyph unicode="&#xb4;" horiz-adv-x="819" d="M236 1253q0 39 30 60l219 133q15 10 37 10q28 0 46 -20.5t18 -46.5q0 -38 -33 -58l-211 -129q-18 -12 -39 -12q-28 0 -47.5 18.5t-19.5 44.5z" />
<glyph unicode="&#xb5;" d="M170 -387v1364q0 28 20.5 49t49.5 21t49 -21t20 -49v-633q0 -110 63 -172.5t173 -62.5q124 0 233 34v834q0 28 20.5 49t49.5 21t49.5 -21t20.5 -49v-856q0 -31 -18 -56t-46 -34q-151 -51 -309 -51q-139 0 -236 75v-442q0 -29 -20 -49.5t-49 -20.5t-49.5 20.5t-20.5 49.5z " />
<glyph unicode="&#xb6;" d="M27 1042q0 177 108 285.5t285 108.5h524q38 0 66 -28.5t28 -68.5v-1724q0 -29 -21 -50.5t-50 -21.5q-28 0 -50 21.5t-22 50.5v1683h-262v-1683q0 -29 -21.5 -50.5t-50.5 -21.5t-50.5 21.5t-21.5 50.5v1034h-69q-177 0 -285 108t-108 285z" />
<glyph unicode="&#xb7;" horiz-adv-x="567" d="M184 606q0 40 29.5 69.5t69.5 29.5q41 0 70.5 -29.5t29.5 -69.5q0 -41 -29.5 -70.5t-70.5 -29.5q-40 0 -69.5 29.5t-29.5 70.5z" />
<glyph unicode="&#xb8;" horiz-adv-x="819" d="M231 -393q0 47 48 59q21 4 45 11.5t55.5 20.5t51.5 33t20 44q0 15 -8.5 26.5t-17.5 17t-29 15t-29 14.5q-33 16 -33 54q0 12 10 57l18 72q15 53 66 53q29 0 48.5 -17t19.5 -47q0 -10 -2 -18l-17 -68q52 -28 81.5 -61.5t29.5 -83.5q0 -156 -238 -233q-46 -13 -55 -13 q-26 0 -45 18t-19 46z" />
<glyph unicode="&#xb9;" horiz-adv-x="737" d="M154 1288q0 37 28 53l185 107q16 8 32 8q28 0 48 -19.5t20 -47.5v-742q0 -26 -17 -43.5t-42 -17.5q-26 0 -44 17.5t-18 43.5v651l-104 -57q-13 -8 -29 -8q-26 0 -42.5 15.5t-16.5 39.5z" />
<glyph unicode="&#xba;" horiz-adv-x="737" d="M127 1057v155q0 109 66.5 176.5t175.5 67.5q108 0 174.5 -67.5t66.5 -176.5v-155q0 -108 -66.5 -175t-174.5 -67t-175 67t-67 175zM248 1049q0 -57 32 -88t89 -31q58 0 89 31t31 88v172q0 59 -30.5 89.5t-89.5 30.5q-57 0 -89 -31t-32 -89v-172z" />
<glyph unicode="&#xbb;" horiz-adv-x="999" d="M123 182q0 23 12 41l209 289l-209 291q-12 18 -12 41q0 29 20 49t47 20q36 0 58 -28l227 -316q19 -25 19 -57q0 -30 -19 -55l-227 -316q-22 -28 -58 -28q-28 0 -47.5 21t-19.5 48zM506 182q0 23 12 41l209 289l-209 291q-12 18 -12 41q0 29 20 49t47 20q36 0 58 -28 l227 -316q19 -25 19 -57q0 -30 -19 -55l-227 -316q-22 -28 -58 -28q-28 0 -47.5 21t-19.5 48z" />
<glyph unicode="&#xbc;" horiz-adv-x="1636" d="M82 1288q0 37 29 53l184 107q16 8 33 8q28 0 47.5 -19.5t19.5 -47.5v-742q0 -26 -17 -43.5t-42 -17.5q-26 0 -44 17.5t-18 43.5v651l-104 -57q-13 -8 -29 -8q-26 0 -42.5 15.5t-16.5 39.5zM262 47q0 14 14 37l926 1337q20 27 47 27q24 0 42 -16.5t18 -40.5q0 -20 -15 -39 l-925 -1338q-19 -26 -50 -26q-24 0 -40.5 16.5t-16.5 42.5zM993 244q0 10 4 22l197 543q13 41 57 41q26 0 44 -18.5t18 -43.5q0 -8 -4 -20l-172 -477h149v133q0 26 18 43.5t44 17.5q25 0 42 -17.5t17 -43.5v-133h66q26 0 43.5 -16.5t17.5 -41.5t-17.5 -41t-43.5 -16h-66 v-137q0 -25 -17 -42t-42 -17q-26 0 -44 17t-18 42v137h-225q-28 0 -48 20t-20 48z" />
<glyph unicode="&#xbd;" horiz-adv-x="1740" d="M82 1288q0 37 29 53l184 107q16 8 33 8q28 0 47.5 -19.5t19.5 -47.5v-742q0 -26 -17 -43.5t-42 -17.5q-26 0 -44 17.5t-18 43.5v651l-104 -57q-13 -8 -29 -8q-26 0 -42.5 15.5t-16.5 39.5zM262 47q0 14 14 37l926 1337q20 27 47 27q24 0 42 -16.5t18 -40.5q0 -20 -15 -39 l-925 -1338q-19 -26 -50 -26q-24 0 -40.5 16.5t-16.5 42.5zM1106 68q0 24 14 41l281 358q57 74 57 143q0 58 -31 91.5t-86 33.5q-80 0 -139 -30q-18 -9 -28 -9q-26 0 -42 17.5t-16 38.5q0 34 35 55q81 43 190 43q107 0 173.5 -66.5t66.5 -173.5q0 -110 -80 -213l-217 -282 h242q27 0 44 -16t17 -42q0 -25 -17.5 -41t-43.5 -16h-350q-29 0 -49.5 20t-20.5 48z" />
<glyph unicode="&#xbe;" horiz-adv-x="1740" d="M98 682q0 25 18 41t42 16q7 0 32 -10q62 -29 140 -29q64 0 101.5 39t37.5 103q0 56 -44.5 96.5t-107.5 40.5h-22q-25 0 -42 16t-17 41q0 24 17 41t42 17h16q55 0 95 36t40 84q0 58 -30.5 92.5t-85.5 34.5q-43 0 -70 -5t-65 -25q-18 -11 -33 -11q-25 0 -41.5 17.5 t-16.5 40.5q0 36 35 53q85 45 191 45q107 0 172 -66.5t65 -175.5q0 -103 -90 -174q113 -74 113 -198q0 -114 -72 -185t-188 -71q-120 0 -197 43q-35 17 -35 53zM375 47q0 14 14 37l926 1337q20 27 47 27q24 0 41.5 -16.5t17.5 -40.5q0 -21 -14 -39l-926 -1338 q-20 -26 -49 -26q-24 0 -40.5 16.5t-16.5 42.5zM1104 244q0 10 4 22l197 543q13 41 57 41q26 0 43.5 -18.5t17.5 -43.5q0 -8 -4 -20l-172 -477h150v133q0 26 17.5 43.5t43.5 17.5q25 0 42.5 -17.5t17.5 -43.5v-133h65q26 0 44 -16.5t18 -41.5t-18 -41t-44 -16h-65v-137 q0 -25 -17.5 -42t-42.5 -17q-26 0 -43.5 17t-17.5 42v137h-226q-28 0 -47.5 20t-19.5 48z" />
<glyph unicode="&#xbf;" horiz-adv-x="931" d="M102 -82q0 83 35 155.5t99 121.5l135 102q49 37 49 109v176q0 29 20 49t49 20t49.5 -20t20.5 -49v-168q0 -64 -25.5 -120.5t-74.5 -94.5l-133 -103q-84 -66 -84 -178q0 -99 69 -172.5t166 -73.5q104 0 234 58q15 6 30 6q29 0 48.5 -18t19.5 -48q0 -42 -39 -61 q-135 -66 -293 -66q-155 0 -265 110t-110 265zM391 946q0 42 28.5 71.5t69.5 29.5t70 -30t29 -71t-29 -69.5t-70 -28.5t-69.5 28.5t-28.5 69.5z" />
<glyph unicode="&#xc0;" horiz-adv-x="1126" d="M31 49q0 7 4 23l450 1331q7 23 29.5 38t48.5 15t48.5 -15t29.5 -38l451 -1331q4 -16 4 -23q0 -27 -20.5 -48t-49.5 -21q-22 0 -40 12.5t-25 34.5l-125 370h-545l-125 -370q-7 -21 -25.5 -34t-40.5 -13q-27 0 -48 20t-21 49zM338 535h450l-225 682zM356 1772q0 26 18 46.5 t46 20.5q22 0 37 -10l219 -133q31 -22 31 -60q0 -26 -20 -44.5t-48 -18.5q-21 0 -39 12l-211 129q-33 20 -33 58z" />
<glyph unicode="&#xc1;" horiz-adv-x="1126" d="M31 49q0 7 4 23l450 1331q7 23 29.5 38t48.5 15t48.5 -15t29.5 -38l451 -1331q4 -16 4 -23q0 -27 -20.5 -48t-49.5 -21q-22 0 -40 12.5t-25 34.5l-125 370h-545l-125 -370q-7 -21 -25.5 -34t-40.5 -13q-27 0 -48 20t-21 49zM338 535h450l-225 682zM418 1636q0 38 31 60 l219 133q15 10 37 10q28 0 45.5 -20.5t17.5 -46.5q0 -38 -33 -58l-211 -129q-18 -12 -39 -12q-28 0 -47.5 18.5t-19.5 44.5z" />
<glyph unicode="&#xc2;" horiz-adv-x="1126" d="M31 49q0 7 4 23l450 1331q7 23 29.5 38t48.5 15t48.5 -15t29.5 -38l451 -1331q4 -16 4 -23q0 -27 -20.5 -48t-49.5 -21q-22 0 -40 12.5t-25 34.5l-125 370h-545l-125 -370q-7 -21 -25.5 -34t-40.5 -13q-27 0 -48 20t-21 49zM293 1636q0 36 31 58l182 127q24 18 55 18 t55 -18l183 -127q30 -21 30 -58q0 -27 -19 -46t-48 -19q-21 0 -39 12l-162 113l-164 -113q-18 -12 -39 -12q-27 0 -46 18t-19 47zM338 535h450l-225 682z" />
<glyph unicode="&#xc3;" horiz-adv-x="1126" d="M31 49q0 7 4 23l450 1331q7 23 29.5 38t48.5 15t48.5 -15t29.5 -38l451 -1331q4 -16 4 -23q0 -27 -20.5 -48t-49.5 -21q-22 0 -40 12.5t-25 34.5l-125 370h-545l-125 -370q-7 -21 -25.5 -34t-40.5 -13q-27 0 -48 20t-21 49zM268 1710q0 20 15 43q65 86 182 86 q65 0 137 -45q29 -18 53 -18q46 0 78 36q24 27 53 27q27 0 46.5 -18.5t19.5 -46.5q0 -24 -14 -41q-32 -42 -80 -65t-103 -23q-70 0 -137 45q-29 18 -53 18q-49 0 -78 -37q-23 -26 -53 -26q-27 0 -46.5 18.5t-19.5 46.5zM338 535h450l-225 682z" />
<glyph unicode="&#xc4;" horiz-adv-x="1126" d="M31 49q0 7 4 23l450 1331q7 23 29.5 38t48.5 15t48.5 -15t29.5 -38l451 -1331q4 -16 4 -23q0 -27 -20.5 -48t-49.5 -21q-22 0 -40 12.5t-25 34.5l-125 370h-545l-125 -370q-7 -21 -25.5 -34t-40.5 -13q-27 0 -48 20t-21 49zM311 1724q0 38 27 65.5t65 27.5t65.5 -27.5 t27.5 -65.5t-27.5 -65t-65.5 -27t-65 27t-27 65zM338 535h450l-225 682zM629 1724q0 38 27 65.5t65 27.5t66 -27.5t28 -65.5t-28 -65t-66 -27t-65 27t-27 65z" />
<glyph unicode="&#xc5;" horiz-adv-x="1126" d="M31 49q0 7 4 23l450 1331q7 23 29.5 38t48.5 15t48.5 -15t29.5 -38l451 -1331q4 -16 4 -23q0 -27 -20.5 -48t-49.5 -21q-22 0 -40 12.5t-25 34.5l-125 370h-545l-125 -370q-7 -21 -25.5 -34t-40.5 -13q-27 0 -48 20t-21 49zM338 535h450l-225 682zM350 1769 q0 88 61.5 150.5t149.5 62.5t150.5 -62.5t62.5 -150.5q0 -87 -62.5 -148.5t-150.5 -61.5t-149.5 61t-61.5 149zM457 1769q0 -43 30.5 -74.5t73.5 -31.5q44 0 75.5 31.5t31.5 74.5q0 44 -31.5 76.5t-75.5 32.5q-43 0 -73.5 -32.5t-30.5 -76.5z" />
<glyph unicode="&#xc6;" horiz-adv-x="1671" d="M31 49q0 22 10 37l799 1305q25 45 82 45h594q29 0 49 -20.5t20 -49.5q0 -28 -20 -48t-49 -20h-547v-487h522q28 0 48 -20.5t20 -49.5q0 -28 -20 -47.5t-48 -19.5h-522v-537h561q29 0 49 -19t20 -48t-20 -49.5t-49 -20.5h-608q-40 0 -68.5 28t-28.5 68v303h-430l-235 -387 q-19 -32 -60 -32q-27 0 -48 19.5t-21 49.5zM479 537h346v565z" />
<glyph unicode="&#xc7;" horiz-adv-x="993" d="M113 473v490q0 223 135 358t358 135q147 0 295 -90q31 -19 31 -57q0 -28 -19 -48t-49 -20q-24 0 -39 10q-112 72 -219 72q-164 0 -258 -94q-92 -95 -92 -260v-502q0 -165 92 -260q94 -94 258 -94q105 0 219 73q17 11 39 11q28 0 48 -20t20 -50q0 -38 -31 -57 q-138 -84 -280 -90l-11 -46q52 -28 81.5 -61.5t29.5 -83.5q0 -156 -238 -233q-45 -13 -55 -13q-26 0 -44.5 18t-18.5 46q0 48 47 59q21 4 45 11.5t55.5 20.5t51.5 33t20 44q0 15 -8.5 26.5t-17.5 17t-29 15t-29 14.5q-33 16 -33 54q0 12 10 57l8 33q-145 28 -237 123 q-135 138 -135 358z" />
<glyph unicode="&#xc8;" horiz-adv-x="999" d="M154 96v1243q0 40 28 68.5t68 28.5h596q28 0 48.5 -20.5t20.5 -49.5t-20 -48.5t-49 -19.5h-549v-487h522q28 0 49 -19.5t21 -48.5t-19.5 -49t-50.5 -20h-522v-537h561q30 0 50 -19t20 -48t-20.5 -49.5t-49.5 -20.5h-608q-40 0 -68 28t-28 68zM332 1772q0 26 17.5 46.5 t45.5 20.5q22 0 37 -10l219 -133q31 -22 31 -60q0 -26 -20 -44.5t-48 -18.5q-21 0 -39 12l-210 129q-33 20 -33 58z" />
<glyph unicode="&#xc9;" horiz-adv-x="999" d="M154 96v1243q0 40 28 68.5t68 28.5h596q28 0 48.5 -20.5t20.5 -49.5t-20 -48.5t-49 -19.5h-549v-487h522q28 0 49 -19.5t21 -48.5t-19.5 -49t-50.5 -20h-522v-537h561q30 0 50 -19t20 -48t-20.5 -49.5t-49.5 -20.5h-608q-40 0 -68 28t-28 68zM393 1636q0 38 31 60 l219 133q15 10 37 10q28 0 45.5 -20.5t17.5 -46.5q0 -39 -32 -58l-211 -129q-18 -12 -39 -12q-28 0 -48 18.5t-20 44.5z" />
<glyph unicode="&#xca;" horiz-adv-x="999" d="M154 96v1243q0 40 28 68.5t68 28.5h596q28 0 48.5 -20.5t20.5 -49.5t-20 -48.5t-49 -19.5h-549v-487h522q28 0 49 -19.5t21 -48.5t-19.5 -49t-50.5 -20h-522v-537h561q30 0 50 -19t20 -48t-20.5 -49.5t-49.5 -20.5h-608q-40 0 -68 28t-28 68zM268 1636q0 36 31 58 l182 127q24 18 56 18q31 0 55 -18l182 -127q31 -22 31 -58q0 -27 -19.5 -46t-48.5 -19q-21 0 -39 12l-161 113l-164 -113q-18 -12 -39 -12q-27 0 -46.5 18.5t-19.5 46.5z" />
<glyph unicode="&#xcb;" horiz-adv-x="999" d="M154 96v1243q0 40 28 68.5t68 28.5h596q28 0 48.5 -20.5t20.5 -49.5t-20 -48.5t-49 -19.5h-549v-487h522q28 0 49 -19.5t21 -48.5t-19.5 -49t-50.5 -20h-522v-537h561q30 0 50 -19t20 -48t-20.5 -49.5t-49.5 -20.5h-608q-40 0 -68 28t-28 68zM285 1724q0 38 27 65.5 t65 27.5t65 -27.5t27 -65.5t-27 -65t-65 -27t-65 27t-27 65zM602 1724q0 38 27 65.5t65 27.5t66 -27.5t28 -65.5t-28 -65t-66 -27t-65 27t-27 65z" />
<glyph unicode="&#xcc;" horiz-adv-x="450" d="M18 1772q0 26 18 46.5t46 20.5q22 0 37 -10l219 -133q31 -22 31 -60q0 -26 -20 -44.5t-48 -18.5q-21 0 -39 12l-211 129q-33 20 -33 58zM154 51v1333q0 29 21 50.5t50 21.5t50.5 -21.5t21.5 -50.5v-1333q0 -29 -21.5 -50t-50.5 -21t-50 21t-21 50z" />
<glyph unicode="&#xcd;" horiz-adv-x="450" d="M80 1636q0 38 31 60l219 133q15 10 37 10q28 0 45.5 -20.5t17.5 -46.5q0 -38 -33 -58l-211 -129q-18 -12 -39 -12q-28 0 -47.5 18.5t-19.5 44.5zM154 51v1333q0 29 21 50.5t50 21.5t50.5 -21.5t21.5 -50.5v-1333q0 -29 -21.5 -50t-50.5 -21t-50 21t-21 50z" />
<glyph unicode="&#xce;" horiz-adv-x="450" d="M-43 1636q0 36 31 58l182 127q24 18 55 18q32 0 56 -18l182 -127q31 -22 31 -58q0 -27 -19.5 -46t-48.5 -19q-21 0 -39 12l-162 113l-164 -113q-18 -12 -38 -12q-27 0 -46.5 18.5t-19.5 46.5zM156 51v1333q0 29 21 50.5t50 21.5t50.5 -21.5t21.5 -50.5v-1333 q0 -29 -21.5 -50t-50.5 -21t-50 21t-21 50z" />
<glyph unicode="&#xcf;" horiz-adv-x="450" d="M-27 1724q0 38 27.5 65.5t65.5 27.5t65 -27.5t27 -65.5t-27 -65t-65 -27t-65.5 27t-27.5 65zM154 51v1333q0 29 21 50.5t50 21.5t50.5 -21.5t21.5 -50.5v-1333q0 -29 -21.5 -50t-50.5 -21t-50 21t-21 50zM291 1724q0 38 27 65.5t65 27.5t66 -27.5t28 -65.5t-28 -65 t-66 -27t-65 27t-27 65z" />
<glyph unicode="&#xd0;" horiz-adv-x="1245" d="M41 743q0 29 20.5 49.5t49.5 20.5h129v526q0 40 28 68.5t68 28.5h270q237 0 381 -144q146 -143 146 -377v-393q0 -238 -146 -381q-144 -141 -381 -141h-270q-40 0 -68 28t-28 68v580h-129q-31 0 -50.5 19t-19.5 48zM383 137h223q180 0 281.5 102t101.5 281v398 q0 177 -101.5 278.5t-281.5 101.5h-223v-485h229q29 0 49.5 -20.5t20.5 -49.5q0 -28 -20.5 -47.5t-49.5 -19.5h-229v-539z" />
<glyph unicode="&#xd1;" horiz-adv-x="1214" d="M154 51v1321q0 35 24 59.5t58 24.5q51 0 73 -43l609 -1120v1091q0 29 21 50.5t50 21.5q28 0 50 -21.5t22 -50.5v-1321q0 -35 -24.5 -59t-59.5 -24q-50 0 -72 43l-608 1118v-1090q0 -29 -21.5 -50t-50.5 -21t-50 21t-21 50zM317 1710q0 20 15 43q65 86 182 86 q65 0 137 -45q29 -18 54 -18q45 0 77 36q24 27 54 27q27 0 46 -18t19 -47q0 -24 -14 -41q-66 -88 -182 -88q-71 0 -138 45q-29 18 -53 18q-49 0 -78 -37q-23 -26 -53 -26q-27 0 -46.5 18.5t-19.5 46.5z" />
<glyph unicode="&#xd2;" horiz-adv-x="1159" d="M113 446v543q0 209 129 338t338 129t338 -129t129 -338v-543q0 -208 -129 -337t-338 -129t-338 129t-129 337zM256 440q0 -151 88 -239t236 -88q147 0 235 88t88 239v553q0 154 -88 242t-235 88q-148 0 -236 -88t-88 -242v-553zM373 1772q0 26 17.5 46.5t45.5 20.5 q22 0 37 -10l219 -133q31 -22 31 -60q0 -26 -20 -44.5t-48 -18.5q-21 0 -39 12l-210 129q-33 20 -33 58z" />
<glyph unicode="&#xd3;" horiz-adv-x="1159" d="M113 446v543q0 209 129 338t338 129t338 -129t129 -338v-543q0 -208 -129 -337t-338 -129t-338 129t-129 337zM256 440q0 -151 88 -239t236 -88q147 0 235 88t88 239v553q0 154 -88 242t-235 88q-148 0 -236 -88t-88 -242v-553zM434 1636q0 38 31 60l219 133q15 10 37 10 q28 0 45.5 -20.5t17.5 -46.5q0 -39 -32 -58l-211 -129q-18 -12 -39 -12q-28 0 -48 18.5t-20 44.5z" />
<glyph unicode="&#xd4;" horiz-adv-x="1159" d="M113 446v543q0 209 129 338t338 129t338 -129t129 -338v-543q0 -208 -129 -337t-338 -129t-338 129t-129 337zM256 440q0 -151 88 -239t236 -88q147 0 235 88t88 239v553q0 154 -88 242t-235 88q-148 0 -236 -88t-88 -242v-553zM309 1636q0 36 31 58l182 127q24 18 56 18 q31 0 55 -18l182 -127q31 -22 31 -58q0 -27 -19.5 -46t-48.5 -19q-21 0 -39 12l-161 113l-164 -113q-18 -12 -39 -12q-27 0 -46.5 18.5t-19.5 46.5z" />
<glyph unicode="&#xd5;" horiz-adv-x="1159" d="M113 446v543q0 209 129 338t338 129t338 -129t129 -338v-543q0 -208 -129 -337t-338 -129t-338 129t-129 337zM256 440q0 -151 88 -239t236 -88q147 0 235 88t88 239v553q0 154 -88 242t-235 88q-148 0 -236 -88t-88 -242v-553zM285 1710q0 22 14 43q65 86 182 86 q65 0 137 -45q29 -18 54 -18q46 0 78 36q24 27 53 27q27 0 46 -18t19 -47q0 -24 -14 -41q-66 -88 -182 -88q-70 0 -137 45q-29 18 -54 18q-49 0 -78 -37q-23 -26 -53 -26q-27 0 -46 18t-19 47z" />
<glyph unicode="&#xd6;" horiz-adv-x="1159" d="M113 446v543q0 209 129 338t338 129t338 -129t129 -338v-543q0 -208 -129 -337t-338 -129t-338 129t-129 337zM256 440q0 -151 88 -239t236 -88q147 0 235 88t88 239v553q0 154 -88 242t-235 88q-148 0 -236 -88t-88 -242v-553zM328 1724q0 38 27 65.5t65 27.5t65 -27.5 t27 -65.5t-27 -65t-65 -27t-65 27t-27 65zM645 1724q0 38 27 65.5t65 27.5t66 -27.5t28 -65.5t-28 -65t-66 -27t-65 27t-27 65z" />
<glyph unicode="&#xd7;" d="M106 176q0 28 21 49l307 307l-307 310q-21 24 -21 49q0 27 20.5 48.5t49.5 21.5q31 0 49 -21l307 -309l310 309q21 21 49 21q27 0 48.5 -20.5t21.5 -49.5q0 -28 -21 -49l-309 -310l309 -307q21 -18 21 -49q0 -27 -20 -48.5t-48 -21.5q-30 0 -51 21l-310 307l-307 -307 q-23 -23 -49 -23q-28 0 -49 21.5t-21 50.5z" />
<glyph unicode="&#xd8;" horiz-adv-x="1159" d="M113 446v543q0 209 129 338t338 129q139 0 245 -59l56 121q16 36 57 36q24 0 41.5 -17.5t17.5 -43.5q0 -15 -6 -27l-67 -145q123 -129 123 -332v-543q0 -208 -129 -337t-338 -129q-140 0 -246 59l-58 -121q-15 -35 -55 -35q-25 0 -43 18t-18 44q0 12 6 24l67 146 q-120 126 -120 331zM256 446q0 -117 43 -188l467 1012q-76 49 -186 49q-148 0 -238 -90q-86 -86 -86 -240v-543zM391 166q76 -49 189 -49q147 0 237 90q86 86 86 239v543q0 119 -45 191z" />
<glyph unicode="&#xd9;" horiz-adv-x="1212" d="M133 453v931q0 29 21.5 50.5t50.5 21.5t50 -21.5t21 -50.5v-938q0 -157 86 -243q90 -90 244 -90t244 90q86 86 86 243v938q0 29 21.5 50.5t50.5 21.5t50 -21.5t21 -50.5v-931q0 -213 -129 -342q-131 -131 -344 -131t-344 131q-129 129 -129 342zM399 1772q0 26 18 46.5 t46 20.5q22 0 37 -10l219 -133q31 -22 31 -60q0 -26 -20 -44.5t-48 -18.5q-21 0 -39 12l-211 129q-33 20 -33 58z" />
<glyph unicode="&#xda;" horiz-adv-x="1212" d="M133 453v931q0 29 21.5 50.5t50.5 21.5t50 -21.5t21 -50.5v-938q0 -157 86 -243q90 -90 244 -90t244 90q86 86 86 243v938q0 29 21.5 50.5t50.5 21.5t50 -21.5t21 -50.5v-931q0 -213 -129 -342q-131 -131 -344 -131t-344 131q-129 129 -129 342zM461 1636q0 38 31 60 l219 133q15 10 37 10q28 0 45.5 -20.5t17.5 -46.5q0 -38 -33 -58l-211 -129q-18 -12 -39 -12q-28 0 -47.5 18.5t-19.5 44.5z" />
<glyph unicode="&#xdb;" horiz-adv-x="1212" d="M133 453v931q0 29 21.5 50.5t50.5 21.5t50 -21.5t21 -50.5v-938q0 -157 86 -243q90 -90 244 -90t244 90q86 86 86 243v938q0 29 21.5 50.5t50.5 21.5t50 -21.5t21 -50.5v-931q0 -213 -129 -342q-131 -131 -344 -131t-344 131q-129 129 -129 342zM336 1636q0 36 31 58 l182 127q24 18 55 18t55 -18l183 -127q30 -21 30 -58q0 -27 -19 -46t-48 -19q-21 0 -39 12l-162 113l-164 -113q-18 -12 -39 -12q-27 0 -46 18t-19 47z" />
<glyph unicode="&#xdc;" horiz-adv-x="1212" d="M133 453v931q0 29 21.5 50.5t50.5 21.5t50 -21.5t21 -50.5v-938q0 -157 86 -243q90 -90 244 -90t244 90q86 86 86 243v938q0 29 21.5 50.5t50.5 21.5t50 -21.5t21 -50.5v-931q0 -213 -129 -342q-131 -131 -344 -131t-344 131q-129 129 -129 342zM352 1724q0 38 27 65.5 t65 27.5t65.5 -27.5t27.5 -65.5t-27.5 -65t-65.5 -27t-65 27t-27 65zM670 1724q0 38 27 65.5t65 27.5t66 -27.5t28 -65.5t-28 -65t-66 -27t-65 27t-27 65z" />
<glyph unicode="&#xdd;" horiz-adv-x="999" d="M20 1386q0 27 20 48.5t50 21.5q42 0 60 -35l350 -635l350 635q18 35 61 35q27 0 47.5 -20.5t20.5 -49.5q0 -18 -8 -34l-402 -713v-590q0 -29 -20 -49t-49 -20t-49.5 20t-20.5 49v590l-401 713q-9 15 -9 34zM356 1636q0 38 31 60l219 133q15 10 37 10q28 0 46 -20.5 t18 -46.5q0 -38 -33 -58l-211 -129q-18 -12 -39 -12q-28 0 -48 18.5t-20 44.5z" />
<glyph unicode="&#xde;" horiz-adv-x="1093" d="M154 51v1333q0 29 21 50.5t50 21.5t50.5 -21.5t21.5 -50.5v-251h276q186 0 301 -115q117 -117 117 -307q0 -183 -110 -293q-115 -115 -308 -115h-276v-252q0 -29 -21.5 -50t-50.5 -21t-50 21t-21 50zM297 440h272q140 0 209 72q70 73 70 199q0 135 -76 211 q-73 73 -203 73h-272v-555z" />
<glyph unicode="&#xdf;" horiz-adv-x="1097" d="M133 49v1041q0 164 101.5 265t265.5 101q163 0 264.5 -87.5t101.5 -227.5q0 -44 -11 -82t-24.5 -62t-39.5 -50t-41.5 -38t-44.5 -32q-55 -41 -76 -68t-21 -72q0 -29 17.5 -52.5t64.5 -51.5l176 -103q74 -43 117 -109t43 -147q0 -122 -87 -208t-210 -86q-127 0 -246 61 q-37 18 -37 61q0 28 19.5 46t48.5 18q12 0 31 -8q44 -19 64.5 -27t53.5 -15t66 -7q65 0 111.5 49.5t46.5 115.5q0 88 -86 140l-176 102q-26 16 -42 26.5t-40.5 31.5t-38.5 42t-24.5 53t-10.5 68q0 40 10.5 75t24.5 58t38.5 47.5t40 36t42.5 29.5q56 41 79 73t23 85 q0 62 -36 105.5t-85.5 62t-105.5 18.5q-107 0 -167.5 -60.5t-60.5 -166.5v-1051q0 -29 -20 -49t-49 -20t-49.5 20t-20.5 49z" />
<glyph unicode="&#xe0;" horiz-adv-x="962" d="M82 295q0 143 90 227q91 82 285 82h233v129q0 89 -59 137t-158 48q-114 0 -235 -70q-17 -10 -33 -10q-29 0 -49.5 17.5t-20.5 47.5q0 41 35 62q133 82 303 82q153 0 254.5 -81t101.5 -231v-614q0 -31 -18 -56t-47 -34q-151 -51 -307 -51q-188 0 -285 88q-90 81 -90 227z M221 295q0 -36 8 -64.5t31 -58.5t73 -46.5t124 -16.5q124 0 233 34v332h-233q-74 0 -124 -15.5t-73 -44.5t-31 -56.5t-8 -63.5zM276 1389q0 26 18 46.5t46 20.5q22 0 37 -10l219 -133q31 -22 31 -60q0 -26 -20 -44.5t-48 -18.5q-21 0 -39 12l-211 129q-33 20 -33 58z" />
<glyph unicode="&#xe1;" horiz-adv-x="962" d="M82 295q0 143 90 227q91 82 285 82h233v129q0 89 -59 137t-158 48q-114 0 -235 -70q-17 -10 -33 -10q-29 0 -49.5 17.5t-20.5 47.5q0 41 35 62q133 82 303 82q153 0 254.5 -81t101.5 -231v-614q0 -31 -18 -56t-47 -34q-151 -51 -307 -51q-188 0 -285 88q-90 81 -90 227z M221 295q0 -36 8 -64.5t31 -58.5t73 -46.5t124 -16.5q124 0 233 34v332h-233q-74 0 -124 -15.5t-73 -44.5t-31 -56.5t-8 -63.5zM338 1253q0 38 31 60l219 133q15 10 37 10q28 0 45.5 -20.5t17.5 -46.5q0 -38 -33 -58l-211 -129q-18 -12 -38 -12q-28 0 -48 18.5t-20 44.5z " />
<glyph unicode="&#xe2;" horiz-adv-x="962" d="M82 295q0 143 90 227q91 82 285 82h233v129q0 89 -59 137t-158 48q-114 0 -235 -70q-17 -10 -33 -10q-29 0 -49.5 17.5t-20.5 47.5q0 41 35 62q133 82 303 82q153 0 254.5 -81t101.5 -231v-614q0 -31 -18 -56t-47 -34q-151 -51 -307 -51q-188 0 -285 88q-90 81 -90 227z M213 1253q0 36 31 58l182 127q24 18 55 18q32 0 56 -18l182 -127q31 -22 31 -58q0 -27 -19.5 -46t-48.5 -19q-21 0 -39 12l-162 113l-164 -113q-18 -12 -38 -12q-27 0 -46.5 18.5t-19.5 46.5zM221 295q0 -36 8 -64.5t31 -58.5t73 -46.5t124 -16.5q124 0 233 34v332h-233 q-74 0 -124 -15.5t-73 -44.5t-31 -56.5t-8 -63.5z" />
<glyph unicode="&#xe3;" horiz-adv-x="962" d="M82 295q0 143 90 227q91 82 285 82h233v129q0 89 -59 137t-158 48q-114 0 -235 -70q-17 -10 -33 -10q-29 0 -49.5 17.5t-20.5 47.5q0 41 35 62q133 82 303 82q153 0 254.5 -81t101.5 -231v-614q0 -31 -18 -56t-47 -34q-151 -51 -307 -51q-188 0 -285 88q-90 81 -90 227z M190 1327q0 21 15 43q65 86 182 86q65 0 137 -45q29 -18 54 -18q44 0 77 37q23 26 54 26q27 0 46 -18t19 -47q0 -24 -14 -41q-66 -88 -182 -88q-71 0 -138 45q-29 18 -53 18q-49 0 -78 -37q-23 -26 -53 -26q-27 0 -46.5 18.5t-19.5 46.5zM221 295q0 -36 8 -64.5t31 -58.5 t73 -46.5t124 -16.5q124 0 233 34v332h-233q-74 0 -124 -15.5t-73 -44.5t-31 -56.5t-8 -63.5z" />
<glyph unicode="&#xe4;" horiz-adv-x="962" d="M82 295q0 143 90 227q91 82 285 82h233v129q0 89 -59 137t-158 48q-114 0 -235 -70q-17 -10 -33 -10q-29 0 -49.5 17.5t-20.5 47.5q0 41 35 62q133 82 303 82q153 0 254.5 -81t101.5 -231v-614q0 -31 -18 -56t-47 -34q-151 -51 -307 -51q-188 0 -285 88q-90 81 -90 227z M221 295q0 -36 8 -64.5t31 -58.5t73 -46.5t124 -16.5q124 0 233 34v332h-233q-74 0 -124 -15.5t-73 -44.5t-31 -56.5t-8 -63.5zM229 1364q0 38 27.5 65t65.5 27t65 -27t27 -65t-27 -66t-65 -28t-65.5 28t-27.5 66zM547 1364q0 38 27 65t65 27t65 -27t27 -65t-27 -66t-65 -28 t-65 28t-27 66z" />
<glyph unicode="&#xe5;" horiz-adv-x="962" d="M82 295q0 143 90 227q91 82 285 82h233v129q0 89 -59 137t-158 48q-114 0 -235 -70q-17 -10 -33 -10q-29 0 -49.5 17.5t-20.5 47.5q0 41 35 62q133 82 303 82q153 0 254.5 -81t101.5 -231v-614q0 -31 -18 -56t-47 -34q-151 -51 -307 -51q-188 0 -285 88q-90 81 -90 227z M221 295q0 -36 8 -64.5t31 -58.5t73 -46.5t124 -16.5q124 0 233 34v332h-233q-74 0 -124 -15.5t-73 -44.5t-31 -56.5t-8 -63.5zM270 1386q0 88 61.5 149.5t149.5 61.5t150.5 -61.5t62.5 -149.5q0 -87 -62.5 -148.5t-150.5 -61.5t-149.5 61t-61.5 149zM377 1386 q0 -44 30.5 -76t73.5 -32q44 0 75.5 32t31.5 76q0 43 -31.5 76t-75.5 33q-42 0 -73 -33t-31 -76z" />
<glyph unicode="&#xe6;" horiz-adv-x="1540" d="M82 295q0 143 90 227q95 86 285 86h233v125q0 89 -59 137t-158 48q-114 0 -235 -70q-17 -10 -33 -10q-29 0 -49.5 17.5t-20.5 47.5q0 41 35 62q133 82 303 82q95 0 173 -34t124 -102q102 136 295 136q167 0 270 -104t103 -271v-101q0 -40 -28.5 -68t-68.5 -28h-512v-121 q0 -111 63.5 -178t172.5 -67q105 0 233 57q15 6 29 6q29 0 49.5 -19t20.5 -47q0 -42 -39 -61q-133 -65 -293 -65q-99 0 -178 40t-127 113q-50 -73 -128 -113t-175 -40q-188 0 -285 88q-90 81 -90 227zM221 295q0 -36 8 -64.5t31 -58.5t73 -46.5t124 -16.5q108 0 170.5 67 t62.5 178v121h-233q-74 0 -124 -15.5t-73 -44.5t-31 -56.5t-8 -63.5zM829 608h469v74q0 110 -62 173t-171 63q-110 0 -173 -63t-63 -173v-74z" />
<glyph unicode="&#xe7;" horiz-adv-x="845" d="M102 354v318q0 168 103.5 271.5t271.5 103.5q141 0 268 -62q39 -19 39 -61q0 -28 -20 -47t-49 -19q-16 0 -31 6q-108 54 -207 54q-110 0 -172.5 -63t-62.5 -173v-338q0 -110 62.5 -172.5t172.5 -62.5q107 0 207 51q16 8 31 8q28 0 48.5 -19.5t20.5 -46.5q0 -42 -39 -61 q-109 -53 -225 -59l-10 -48q52 -28 81.5 -61.5t29.5 -83.5q0 -156 -238 -233q-45 -13 -55 -13q-26 0 -45 18t-19 46q0 48 47 59q21 4 45 11.5t55.5 20.5t51.5 33t20 44q0 15 -8.5 26.5t-17.5 17t-29 15t-29 14.5q-32 15 -32 54q0 12 10 57l8 31q-131 26 -207 123t-76 241z " />
<glyph unicode="&#xe8;" horiz-adv-x="952" d="M102 354v318q0 168 103.5 271.5t271.5 103.5q167 0 270 -104t103 -271v-107q0 -40 -28 -68t-68 -28h-512v-115q0 -111 63 -178t172 -67q106 0 234 57q15 6 28 6q29 0 49.5 -19t20.5 -47q0 -42 -39 -61q-133 -65 -293 -65q-169 0 -272 103t-103 271zM242 598h469v84 q0 110 -62.5 173t-171.5 63q-110 0 -172.5 -63t-62.5 -173v-84zM270 1389q0 26 18 46.5t46 20.5q22 0 37 -10l219 -133q31 -22 31 -60q0 -26 -20 -44.5t-48 -18.5q-21 0 -39 12l-211 129q-33 20 -33 58z" />
<glyph unicode="&#xe9;" horiz-adv-x="952" d="M102 354v318q0 168 103.5 271.5t271.5 103.5q167 0 270 -104t103 -271v-107q0 -40 -28 -68t-68 -28h-512v-115q0 -111 63 -178t172 -67q106 0 234 57q15 6 28 6q29 0 49.5 -19t20.5 -47q0 -42 -39 -61q-133 -65 -293 -65q-169 0 -272 103t-103 271zM242 598h469v84 q0 110 -62.5 173t-171.5 63q-110 0 -172.5 -63t-62.5 -173v-84zM332 1253q0 39 30 60l220 133q15 10 36 10q28 0 46 -20.5t18 -46.5q0 -38 -33 -58l-211 -129q-18 -12 -39 -12q-28 0 -47.5 18.5t-19.5 44.5z" />
<glyph unicode="&#xea;" horiz-adv-x="952" d="M102 354v318q0 168 103.5 271.5t271.5 103.5q167 0 270 -104t103 -271v-107q0 -40 -28 -68t-68 -28h-512v-115q0 -111 63 -178t172 -67q106 0 234 57q15 6 28 6q29 0 49.5 -19t20.5 -47q0 -42 -39 -61q-133 -65 -293 -65q-169 0 -272 103t-103 271zM207 1253q0 36 31 58 l182 127q24 18 55 18t55 -18l183 -127q30 -21 30 -58q0 -27 -19 -46t-48 -19q-21 0 -39 12l-162 113l-164 -113q-18 -12 -39 -12q-27 0 -46 18t-19 47zM242 598h469v84q0 110 -62.5 173t-171.5 63q-110 0 -172.5 -63t-62.5 -173v-84z" />
<glyph unicode="&#xeb;" horiz-adv-x="952" d="M102 354v318q0 168 103.5 271.5t271.5 103.5q167 0 270 -104t103 -271v-107q0 -40 -28 -68t-68 -28h-512v-115q0 -111 63 -178t172 -67q106 0 234 57q15 6 28 6q29 0 49.5 -19t20.5 -47q0 -42 -39 -61q-133 -65 -293 -65q-169 0 -272 103t-103 271zM223 1364q0 38 27 65 t65 27t65.5 -27t27.5 -65t-27.5 -66t-65.5 -28t-65 28t-27 66zM242 598h469v84q0 110 -62.5 173t-171.5 63q-110 0 -172.5 -63t-62.5 -173v-84zM541 1364q0 38 27 65t65 27t65 -27t27 -65t-27 -66t-65 -28t-65 28t-27 66z" />
<glyph unicode="&#xec;" horiz-adv-x="471" d="M31 1389q0 26 17.5 46.5t45.5 20.5q22 0 37 -10l219 -133q31 -22 31 -60q0 -26 -20 -44.5t-48 -18.5q-21 0 -39 12l-211 129q-32 19 -32 58zM166 49v928q0 28 20.5 49t49.5 21t49 -21t20 -49v-928q0 -29 -20 -49t-49 -20t-49.5 20t-20.5 49z" />
<glyph unicode="&#xed;" horiz-adv-x="471" d="M92 1253q0 38 31 60l219 133q15 10 37 10q28 0 45.5 -20.5t17.5 -46.5q0 -39 -32 -58l-211 -129q-18 -12 -39 -12q-28 0 -48 18.5t-20 44.5zM166 49v928q0 28 20.5 49t49.5 21t49 -21t20 -49v-928q0 -29 -20 -49t-49 -20t-49.5 20t-20.5 49z" />
<glyph unicode="&#xee;" horiz-adv-x="471" d="M-33 1253q0 36 31 58l182 127q24 18 56 18q31 0 55 -18l182 -127q31 -22 31 -58q0 -27 -19.5 -46t-48.5 -19q-21 0 -39 12l-161 113l-164 -113q-18 -12 -39 -12q-27 0 -46.5 18.5t-19.5 46.5zM166 49v928q0 28 20.5 49t49.5 21t49 -21t20 -49v-928q0 -29 -20 -49t-49 -20 t-49.5 20t-20.5 49z" />
<glyph unicode="&#xef;" horiz-adv-x="471" d="M-16 1364q0 38 27 65t65 27t65 -27t27 -65t-27 -66t-65 -28t-65 28t-27 66zM166 49v928q0 28 20.5 49t49.5 21t49 -21t20 -49v-928q0 -29 -20 -49t-49 -20t-49.5 20t-20.5 49zM301 1364q0 38 27 65t65 27t65 -27t27 -65t-27 -66t-65 -28t-65 28t-27 66z" />
<glyph unicode="&#xf0;" horiz-adv-x="1032" d="M102 375v276q0 177 108.5 286.5t285.5 109.5q58 0 119 -16.5t92 -39.5q-15 61 -52.5 120.5t-85.5 100.5l-186 -94q-8 -4 -27 -4q-25 0 -42 18t-17 44q0 40 35 55l125 55q-57 28 -121 45q-22 6 -35.5 23t-13.5 37q0 29 19 47t50 18q28 0 119 -33q72 -29 129 -69l191 88 q12 6 26 6q25 0 42.5 -18.5t17.5 -43.5q0 -40 -35 -55l-144 -65q72 -78 115 -185q72 -170 72 -430v-276q0 -177 -108 -286t-285 -109t-285.5 109t-108.5 286zM242 365q0 -120 67 -188t187 -68t188 68t68 188v297q0 120 -68 188t-188 68t-187 -68t-67 -188v-297z" />
<glyph unicode="&#xf1;" horiz-adv-x="1024" d="M143 49v856q0 30 18 54.5t48 35.5q143 52 309 52q167 0 270 -104t103 -271v-623q0 -29 -20.5 -49t-49.5 -20t-49 20t-20 49v633q0 110 -62.5 173t-171.5 63q-122 0 -235 -35v-834q0 -29 -20.5 -49t-49.5 -20t-49.5 20t-20.5 49zM219 1327q0 22 14 43q65 86 183 86 q65 0 137 -45q29 -18 53 -18q45 0 78 37q23 26 53 26q27 0 46.5 -18.5t19.5 -46.5q0 -23 -15 -41q-66 -88 -182 -88q-70 0 -137 45q-29 18 -53 18q-49 0 -78 -37q-23 -26 -53 -26q-27 0 -46.5 18.5t-19.5 46.5z" />
<glyph unicode="&#xf2;" horiz-adv-x="991" d="M102 375v276q0 177 108.5 286.5t285.5 109.5t285 -109.5t108 -286.5v-276q0 -177 -108 -286t-285 -109t-285.5 109t-108.5 286zM242 365q0 -120 67 -188t187 -68t187 68t67 188v297q0 120 -67 188t-187 68t-187 -68t-67 -188v-297zM291 1389q0 26 17.5 46.5t45.5 20.5 q22 0 37 -10l219 -133q31 -22 31 -60q0 -26 -20 -44.5t-48 -18.5q-20 0 -38 12l-211 129q-33 20 -33 58z" />
<glyph unicode="&#xf3;" horiz-adv-x="991" d="M102 375v276q0 177 108.5 286.5t285.5 109.5t285 -109.5t108 -286.5v-276q0 -177 -108 -286t-285 -109t-285.5 109t-108.5 286zM242 365q0 -120 67 -188t187 -68t187 68t67 188v297q0 120 -67 188t-187 68t-187 -68t-67 -188v-297zM352 1253q0 38 31 60l219 133 q15 10 37 10q28 0 45.5 -20.5t17.5 -46.5q0 -39 -32 -58l-211 -129q-18 -12 -39 -12q-28 0 -48 18.5t-20 44.5z" />
<glyph unicode="&#xf4;" horiz-adv-x="991" d="M102 375v276q0 177 108.5 286.5t285.5 109.5t285 -109.5t108 -286.5v-276q0 -177 -108 -286t-285 -109t-285.5 109t-108.5 286zM227 1253q0 36 31 58l182 127q24 18 56 18q31 0 55 -18l182 -127q31 -22 31 -58q0 -27 -19.5 -46t-48.5 -19q-21 0 -39 12l-161 113 l-164 -113q-18 -12 -39 -12q-27 0 -46.5 18.5t-19.5 46.5zM242 365q0 -120 67 -188t187 -68t187 68t67 188v297q0 120 -67 188t-187 68t-187 -68t-67 -188v-297z" />
<glyph unicode="&#xf5;" horiz-adv-x="991" d="M102 375v276q0 177 108.5 286.5t285.5 109.5t285 -109.5t108 -286.5v-276q0 -177 -108 -286t-285 -109t-285.5 109t-108.5 286zM203 1327q0 22 14 43q65 86 182 86q66 0 138 -45q29 -18 53 -18q45 0 78 37q23 26 53 26q27 0 46 -18t19 -47q0 -24 -14 -41 q-66 -88 -182 -88q-70 0 -137 45q-29 18 -54 18q-48 0 -77 -37q-23 -26 -54 -26q-27 0 -46 18t-19 47zM242 365q0 -120 67 -188t187 -68t187 68t67 188v297q0 120 -67 188t-187 68t-187 -68t-67 -188v-297z" />
<glyph unicode="&#xf6;" horiz-adv-x="991" d="M102 375v276q0 177 108.5 286.5t285.5 109.5t285 -109.5t108 -286.5v-276q0 -177 -108 -286t-285 -109t-285.5 109t-108.5 286zM242 365q0 -120 67 -188t187 -68t187 68t67 188v297q0 120 -67 188t-187 68t-187 -68t-67 -188v-297zM244 1364q0 38 27 65t65 27t65 -27 t27 -65t-27 -66t-65 -28t-65 28t-27 66zM561 1364q0 38 27 65t65 27t65 -27t27 -65t-27 -66t-65 -28t-65 28t-27 66z" />
<glyph unicode="&#xf7;" d="M27 514q0 28 19 48t48 20h875q29 0 49 -20t20 -48q0 -29 -20 -47t-49 -18h-875q-28 0 -47.5 18t-19.5 47zM434 80q0 40 28.5 69t69.5 29t71 -29t30 -69q0 -41 -30 -70.5t-71 -29.5t-69.5 29.5t-28.5 70.5zM434 946q0 42 28.5 71.5t69.5 29.5t71 -30t30 -71t-29.5 -69.5 t-71.5 -28.5q-41 0 -69.5 28.5t-28.5 69.5z" />
<glyph unicode="&#xf8;" horiz-adv-x="991" d="M102 375v276q0 177 108.5 286.5t285.5 109.5q95 0 180 -37l51 100q17 33 53 33q24 0 43 -18t19 -44q0 -14 -6 -26l-58 -115q111 -97 111 -289v-276q0 -177 -108 -286t-285 -109q-105 0 -181 36l-49 -100q-14 -33 -53 -33q-24 0 -43.5 17.5t-19.5 42.5q0 8 8 28l57 115 q-113 107 -113 289zM242 375q0 -102 39 -158l340 676q-55 25 -125 25q-120 0 -187 -68t-67 -188v-287zM375 135q54 -26 121 -26q120 0 188 68t68 188v286q0 101 -39 160z" />
<glyph unicode="&#xf9;" horiz-adv-x="1024" d="M133 354v623q0 28 20.5 49t49.5 21t49 -21t20 -49v-633q0 -110 63 -172.5t173 -62.5q124 0 233 34v834q0 28 20.5 49t49.5 21t49.5 -21t20.5 -49v-856q0 -31 -18 -56t-46 -34q-151 -51 -309 -51q-173 0 -274 101.5t-101 272.5zM307 1389q0 26 18 46.5t46 20.5 q22 0 37 -10l219 -133q30 -21 30 -60q0 -26 -19.5 -44.5t-47.5 -18.5q-21 0 -39 12l-211 129q-33 20 -33 58z" />
<glyph unicode="&#xfa;" horiz-adv-x="1024" d="M133 354v623q0 28 20.5 49t49.5 21t49 -21t20 -49v-633q0 -110 63 -172.5t173 -62.5q124 0 233 34v834q0 28 20.5 49t49.5 21t49.5 -21t20.5 -49v-856q0 -31 -18 -56t-46 -34q-151 -51 -309 -51q-173 0 -274 101.5t-101 272.5zM369 1253q0 39 30 60l219 133q15 10 37 10 q28 0 46 -20.5t18 -46.5q0 -38 -33 -58l-211 -129q-18 -12 -39 -12q-28 0 -47.5 18.5t-19.5 44.5z" />
<glyph unicode="&#xfb;" horiz-adv-x="1024" d="M133 354v623q0 28 20.5 49t49.5 21t49 -21t20 -49v-633q0 -110 63 -172.5t173 -62.5q124 0 233 34v834q0 28 20.5 49t49.5 21t49.5 -21t20.5 -49v-856q0 -31 -18 -56t-46 -34q-151 -51 -309 -51q-173 0 -274 101.5t-101 272.5zM244 1253q0 37 30 58l183 127q24 18 55 18 t55 -18l183 -127q30 -21 30 -58q0 -27 -19 -46t-48 -19q-21 0 -39 12l-162 113l-164 -113q-18 -12 -39 -12q-27 0 -46 18t-19 47z" />
<glyph unicode="&#xfc;" horiz-adv-x="1024" d="M133 354v623q0 28 20.5 49t49.5 21t49 -21t20 -49v-633q0 -110 63 -172.5t173 -62.5q124 0 233 34v834q0 28 20.5 49t49.5 21t49.5 -21t20.5 -49v-856q0 -31 -18 -56t-46 -34q-151 -51 -309 -51q-173 0 -274 101.5t-101 272.5zM260 1364q0 38 27 65t65 27t65 -27t27 -65 t-27 -66t-65 -28t-65 28t-27 66zM578 1364q0 38 27 65t65 27t65 -27t27 -65t-27 -66t-65 -28t-65 28t-27 66z" />
<glyph unicode="&#xfd;" horiz-adv-x="868" d="M41 -389q0 26 20 44.5t48 20.5q182 9 231 164l49 160l-342 952q-4 16 -4 23q0 28 19.5 48.5t50.5 20.5q49 0 65 -45l281 -800l241 798q6 22 25 36t41 14q29 0 50.5 -20t21.5 -50q0 -7 -4 -23l-365 -1155q-37 -117 -132.5 -186.5t-227.5 -69.5q-28 0 -48 19t-20 49z M291 1253q0 38 31 60l219 133q15 10 37 10q28 0 45.5 -20.5t17.5 -46.5q0 -38 -33 -58l-211 -129q-18 -12 -39 -12q-28 0 -47.5 18.5t-19.5 44.5z" />
<glyph unicode="&#xfe;" horiz-adv-x="1003" d="M143 -387v1773q0 29 20.5 49.5t49.5 20.5t49.5 -20.5t20.5 -49.5v-401q114 62 235 62q167 0 270 -104t103 -271v-318q0 -167 -103 -270.5t-270 -103.5q-122 0 -235 61v-428q0 -29 -20.5 -49.5t-49.5 -20.5t-49.5 20.5t-20.5 49.5zM283 201q98 -92 235 -92 q109 0 171.5 62.5t62.5 172.5v338q0 110 -62.5 173t-171.5 63q-136 0 -235 -93v-624z" />
<glyph unicode="&#xff;" horiz-adv-x="868" d="M41 -389q0 26 20 44.5t48 20.5q182 9 231 164l49 160l-342 952q-4 16 -4 23q0 28 19.5 48.5t50.5 20.5q49 0 65 -45l281 -800l241 798q6 22 25 36t41 14q29 0 50.5 -20t21.5 -50q0 -7 -4 -23l-365 -1155q-37 -117 -132.5 -186.5t-227.5 -69.5q-28 0 -48 19t-20 49z M182 1364q0 38 27 65t65 27t65.5 -27t27.5 -65t-27.5 -66t-65.5 -28t-65 28t-27 66zM500 1364q0 38 27 65t65 27t65 -27t27 -65t-27 -66t-65 -28t-65 28t-27 66z" />
<glyph unicode="&#x152;" horiz-adv-x="1753" d="M113 446v543q0 209 129 338t338 129q200 0 327 -121q0 44 28.5 72.5t68.5 28.5h593q29 0 49.5 -20.5t20.5 -49.5q0 -28 -20.5 -48t-49.5 -20h-548v-487h522q29 0 49 -20.5t20 -49.5q0 -28 -20 -47.5t-49 -19.5h-522v-537h563q29 0 49 -19t20 -48t-20 -49.5t-49 -20.5 h-608q-41 0 -69 28.5t-28 73.5q-125 -122 -327 -122q-209 0 -338 129t-129 337zM256 440q0 -151 88 -239t236 -88q149 0 237 88t88 239v555q0 152 -88 240t-237 88q-148 0 -236 -88t-88 -240v-555z" />
<glyph unicode="&#x153;" horiz-adv-x="1601" d="M102 375v276q0 177 108.5 286.5t285.5 109.5q208 0 319 -162q48 77 128.5 119.5t182.5 42.5q167 0 270 -104t103 -271v-107q0 -40 -28 -68t-68 -28h-512v-115q0 -111 63 -178t172 -67q106 0 234 57q15 6 29 6q29 0 49 -19t20 -47q0 -42 -39 -61q-133 -65 -293 -65 q-103 0 -183.5 41t-127.5 118q-109 -159 -319 -159q-177 0 -285.5 109t-108.5 286zM242 365q0 -120 67 -188t187 -68t187 68t67 188v297q0 120 -67 188t-187 68t-187 -68t-67 -188v-297zM891 602h469v80q0 110 -62.5 173t-171.5 63q-110 0 -172.5 -63t-62.5 -173v-80z" />
<glyph unicode="&#x178;" horiz-adv-x="999" d="M20 1386q0 27 20 48.5t50 21.5q42 0 60 -35l350 -635l350 635q18 35 61 35q27 0 47.5 -20.5t20.5 -49.5q0 -18 -8 -34l-402 -713v-590q0 -29 -20 -49t-49 -20t-49.5 20t-20.5 49v590l-401 713q-9 15 -9 34zM248 1724q0 38 27 65.5t65 27.5t65 -27.5t27 -65.5t-27 -65 t-65 -27t-65 27t-27 65zM565 1724q0 38 27 65.5t65 27.5t66.5 -27.5t28.5 -65.5t-28 -65t-67 -27q-38 0 -65 27t-27 65z" />
<glyph unicode="&#x2c6;" horiz-adv-x="819" d="M141 1253q0 36 31 58l182 127q24 18 56 18q31 0 55 -18l182 -127q31 -22 31 -58q0 -27 -19.5 -46t-48.5 -19q-21 0 -39 12l-161 113l-164 -113q-18 -12 -39 -12q-27 0 -46.5 18.5t-19.5 46.5z" />
<glyph unicode="&#x2dc;" horiz-adv-x="819" d="M119 1327q0 22 14 43q65 86 182 86q66 0 138 -45q29 -18 53 -18q45 0 78 37q23 26 53 26q27 0 46 -18t19 -47q0 -24 -14 -41q-66 -88 -182 -88q-70 0 -137 45q-29 18 -54 18q-48 0 -77 -37q-23 -26 -54 -26q-27 0 -46 18t-19 47z" />
<glyph unicode="&#x2000;" horiz-adv-x="991" />
<glyph unicode="&#x2001;" horiz-adv-x="1982" />
<glyph unicode="&#x2002;" horiz-adv-x="991" />
<glyph unicode="&#x2003;" horiz-adv-x="1982" />
<glyph unicode="&#x2004;" horiz-adv-x="660" />
<glyph unicode="&#x2005;" horiz-adv-x="495" />
<glyph unicode="&#x2006;" horiz-adv-x="330" />
<glyph unicode="&#x2007;" horiz-adv-x="330" />
<glyph unicode="&#x2008;" horiz-adv-x="247" />
<glyph unicode="&#x2009;" horiz-adv-x="396" />
<glyph unicode="&#x200a;" horiz-adv-x="110" />
<glyph unicode="&#x2010;" horiz-adv-x="847" d="M123 608q0 27 18.5 47.5t46.5 20.5h469q29 0 48.5 -20.5t19.5 -47.5t-20 -46t-48 -19h-469q-28 0 -46.5 18.5t-18.5 46.5z" />
<glyph unicode="&#x2011;" horiz-adv-x="847" d="M123 608q0 27 18.5 47.5t46.5 20.5h469q29 0 48.5 -20.5t19.5 -47.5t-20 -46t-48 -19h-469q-28 0 -46.5 18.5t-18.5 46.5z" />
<glyph unicode="&#x2012;" horiz-adv-x="847" d="M123 608q0 27 18.5 47.5t46.5 20.5h469q29 0 48.5 -20.5t19.5 -47.5t-20 -46t-48 -19h-469q-28 0 -46.5 18.5t-18.5 46.5z" />
<glyph unicode="&#x2013;" horiz-adv-x="1529" d="M246 608q0 28 19 48t48 20h901q29 0 49.5 -20t20.5 -48t-20.5 -46.5t-49.5 -18.5h-901q-28 0 -47.5 18t-19.5 47z" />
<glyph unicode="&#x2014;" horiz-adv-x="2404" d="M246 608q0 28 19 48t48 20h1776q29 0 49.5 -20t20.5 -48q0 -29 -20 -47t-50 -18h-1776q-28 0 -47.5 18t-19.5 47z" />
<glyph unicode="&#x2018;" horiz-adv-x="442" d="M123 1096q0 6 4 22l98 291q7 21 25.5 34t40.5 13q29 0 49 -20t20 -47q0 -9 -4 -25l-98 -291q-7 -22 -25 -34.5t-40 -12.5q-29 0 -49.5 21.5t-20.5 48.5z" />
<glyph unicode="&#x2019;" horiz-adv-x="442" d="M82 1096q0 6 4 22l98 291q7 21 25.5 34t40.5 13q29 0 49 -20t20 -47q0 -9 -4 -25l-98 -291q-7 -22 -25 -34.5t-40 -12.5q-29 0 -49.5 21.5t-20.5 48.5z" />
<glyph unicode="&#x201a;" horiz-adv-x="466" d="M117 -182q0 6 4 22l98 291q7 21 25.5 34t40.5 13q27 0 49 -20.5t22 -48.5q0 -7 -4 -23l-100 -291q-7 -21 -25.5 -34t-40.5 -13q-27 0 -48 20.5t-21 49.5z" />
<glyph unicode="&#x201c;" horiz-adv-x="759" d="M123 1096q0 6 4 22l98 291q7 21 25.5 34t40.5 13q29 0 49 -20t20 -47q0 -9 -4 -25l-98 -291q-7 -22 -25 -34.5t-40 -12.5q-29 0 -49.5 21.5t-20.5 48.5zM440 1096q0 6 4 22l99 291q7 22 25 34.5t40 12.5q29 0 49.5 -20t20.5 -47q0 -9 -4 -25l-99 -291q-7 -22 -25 -34.5 t-40 -12.5q-29 0 -49.5 21.5t-20.5 48.5z" />
<glyph unicode="&#x201d;" horiz-adv-x="759" d="M82 1096q0 6 4 22l98 291q7 21 25.5 34t40.5 13q29 0 49 -20t20 -47q0 -9 -4 -25l-98 -291q-7 -22 -25 -34.5t-40 -12.5q-29 0 -49.5 21.5t-20.5 48.5zM399 1096q0 6 4 22l99 291q7 22 25 34.5t40 12.5q29 0 49.5 -20t20.5 -47q0 -9 -4 -25l-98 -291q-7 -21 -25.5 -34 t-40.5 -13q-29 0 -49.5 21.5t-20.5 48.5z" />
<glyph unicode="&#x201e;" horiz-adv-x="761" d="M123 -182q0 6 4 22l98 291q7 21 25.5 34t40.5 13q27 0 49 -20.5t22 -48.5q0 -7 -4 -23l-100 -291q-7 -22 -25 -34.5t-40 -12.5q-27 0 -48.5 20.5t-21.5 49.5zM440 -182q0 6 4 22l99 291q7 22 25 34.5t40 12.5q27 0 49.5 -20.5t22.5 -48.5q0 -7 -4 -23l-101 -291 q-7 -22 -25 -34.5t-40 -12.5q-27 0 -48.5 20.5t-21.5 49.5z" />
<glyph unicode="&#x2022;" horiz-adv-x="1026" d="M328 647q0 77 54 130.5t130 53.5q77 0 131.5 -54t54.5 -130q0 -77 -55 -131.5t-131 -54.5t-130 54.5t-54 131.5z" />
<glyph unicode="&#x2026;" horiz-adv-x="1617" d="M154 78q0 41 29 70.5t69 29.5q41 0 70.5 -29.5t29.5 -70.5q0 -40 -29.5 -69t-70.5 -29q-40 0 -69 29t-29 69zM709 78q0 41 29.5 70.5t70.5 29.5t69.5 -29.5t28.5 -70.5q0 -40 -28.5 -69t-69.5 -29t-70.5 29t-29.5 69zM1266 78q0 41 29 70.5t69 29.5q41 0 70.5 -29.5 t29.5 -70.5q0 -40 -29.5 -69t-70.5 -29q-40 0 -69 29t-29 69z" />
<glyph unicode="&#x202f;" horiz-adv-x="396" />
<glyph unicode="&#x2039;" horiz-adv-x="616" d="M123 512q0 33 18 57l228 316q22 28 57 28q27 0 47.5 -20t20.5 -49q0 -22 -13 -41l-209 -291l209 -289q13 -20 13 -41q0 -27 -20 -48t-48 -21q-35 0 -57 28l-228 316q-18 24 -18 55z" />
<glyph unicode="&#x203a;" horiz-adv-x="616" d="M123 182q0 23 12 41l209 289l-209 291q-12 18 -12 41q0 29 20 49t47 20q36 0 58 -28l227 -316q19 -25 19 -57q0 -30 -19 -55l-227 -316q-22 -28 -58 -28q-28 0 -47.5 21t-19.5 48z" />
<glyph unicode="&#x205f;" horiz-adv-x="495" />
<glyph unicode="&#x20ac;" d="M31 557q0 29 19.5 47.5t49.5 18.5h115v204h-115q-30 0 -49.5 18.5t-19.5 47.5q0 28 20 48t49 20h115q0 223 137 360q135 135 357 135q149 0 297 -90q30 -18 30 -61q0 -24 -19.5 -43t-47.5 -19q-21 0 -39 12q-115 72 -221 72q-164 0 -258 -94q-97 -97 -97 -272h381 q29 0 49.5 -20t20.5 -48q0 -29 -20 -47.5t-50 -18.5h-381v-204h381q29 0 49.5 -19.5t20.5 -48.5t-20 -47.5t-50 -18.5h-381v-16q0 -173 97 -270q94 -94 258 -94q115 0 221 71q20 13 39 13q27 0 47 -19.5t20 -48.5q0 -37 -30 -55q-148 -90 -297 -90q-222 0 -357 135 q-137 137 -137 374h-115q-29 0 -49 19.5t-20 48.5z" />
<glyph unicode="&#x2122;" horiz-adv-x="1677" d="M82 1378q0 25 16.5 41.5t42.5 16.5h463q25 0 42.5 -16.5t17.5 -41.5q0 -26 -17.5 -41.5t-42.5 -15.5h-170v-684q0 -25 -18 -42t-43 -17q-26 0 -44 17t-18 42v684h-170q-26 0 -42.5 15.5t-16.5 41.5zM807 637v741q0 29 19.5 49.5t47.5 20.5q20 0 37 -10.5t25 -26.5 l223 -444l223 440q20 41 64 41q28 0 47.5 -20.5t19.5 -49.5v-741q0 -25 -17.5 -42t-43.5 -17q-25 0 -42 17t-17 42v532l-172 -340q-19 -36 -62 -36q-40 0 -59 36l-172 340v-532q0 -25 -18 -42t-44 -17q-25 0 -42 17t-17 42z" />
<glyph unicode="&#xe000;" horiz-adv-x="1044" d="M0 0v1044h1044v-1044h-1044z" />
</font>
</defs>
</svg>
