<?xml version="1.0" standalone="no"?>
<!DOCTYPE svg PUBLIC "-//W3C//DTD SVG 1.1//EN" "http://www.w3.org/Graphics/SVG/1.1/DTD/svg11.dtd" >
<svg xmlns="http://www.w3.org/2000/svg">
<metadata></metadata>
<defs>
<font id="masonregular" horiz-adv-x="1177" >
<font-face units-per-em="2048" ascent="1638" descent="-410" />
<missing-glyph horiz-adv-x="569" />
<glyph horiz-adv-x="2048" />
<glyph horiz-adv-x="2048" />
<glyph unicode="&#xd;" horiz-adv-x="2048" />
<glyph unicode=" "  horiz-adv-x="569" />
<glyph unicode="&#x09;" horiz-adv-x="569" />
<glyph unicode="&#xa0;" horiz-adv-x="569" />
<glyph unicode="!" horiz-adv-x="614" d="M143 61v17q42 15 76 49.5t49 75.5h17q15 -42 49.5 -76t75.5 -49v-17q-69 -25 -125 -124h-17q-18 42 -51 76t-74 48zM143 1163v17q42 15 76 49.5t49 75.5h17q15 -42 49.5 -76t75.5 -49v-17q-35 -13 -80 -394t-45 -480h-17q0 101 -44 481t-81 393z" />
<glyph unicode="&#x22;" horiz-adv-x="962" d="M143 1163v17q42 15 76 49.5t49 75.5h17q15 -42 49.5 -76t75.5 -49v-17q-98 -36 -125 -350h-17q-27 316 -125 350zM553 1163v17q42 15 76 49.5t49 75.5h16q15 -42 49.5 -76t75.5 -49v-17q-98 -36 -125 -350h-16q-27 316 -125 350z" />
<glyph unicode="#" horiz-adv-x="1368" d="M92 362v105h227l82 389h-309v105h332l86 409h102l-86 -409h441l86 409h102l-86 -409h205v-105h-225l-82 -389h307v-105h-328l-84 -409h-106l88 409h-443l-84 -409h-104l86 409h-207zM422 469h442l82 387h-442z" />
<glyph unicode="$" horiz-adv-x="1085" d="M150 305h28q25 -117 75.5 -183t135.5 -89v653q-221 144 -221 301q0 112 58.5 189t162.5 108v123h78v-107q50 5 65 5q17 0 62 -5v107h78v-123q8 -3 29.5 -10.5t32.5 -11t29.5 -8t37.5 -6.5t41 -1l30 -194h-16q-55 143 -184 184v-543q133 -82 203.5 -169t70.5 -206 q0 -102 -75.5 -192t-198.5 -131v-129h-78v110q-39 -8 -92 -8q-23 0 -35 2v-104h-78v113q-34 6 -68.5 15.5t-55 17.5t-45 18t-30.5 12zM297 1044q0 -99 92 -174v347q-92 -63 -92 -173zM467 20h35q39 0 92 11v532q-50 34 -127 78v-621zM467 815q48 -29 88 -53q6 -4 19.5 -11.5 t19.5 -11.5v514q-25 2 -72 2q-28 0 -55 -6v-434zM672 57q60 30 93.5 82.5t33.5 122.5q0 138 -127 244v-449z" />
<glyph unicode="%" horiz-adv-x="1544" d="M156 1001q0 123 89.5 213.5t219.5 90.5t219.5 -80t89.5 -207q0 -125 -89 -215t-220 -90q-130 0 -219.5 80t-89.5 208zM233 -55l996 1394h84l-996 -1394h-84zM281 1010q11 -109 66 -180.5t138 -71.5q80 0 125.5 73t36.5 179q-8 106 -62.5 176.5t-138.5 70.5 q-80 0 -126.5 -71t-38.5 -176zM770 258q0 123 89.5 213t219.5 90t220 -80.5t90 -206.5q0 -125 -89 -215t-221 -90q-130 0 -219.5 80.5t-89.5 208.5zM895 266q11 -108 66 -180t139 -72q80 0 125.5 73t36.5 179q-8 106 -62.5 177t-138.5 71q-80 0 -127 -72t-39 -176z" />
<glyph unicode="&#x26;" horiz-adv-x="1593" d="M164 410q0 129 97 224t249 128q-77 32 -134 99.5t-57 170.5q0 119 84 196t232 77q69 0 124.5 -15t92 -37.5t66.5 -58.5t47.5 -68t35.5 -77l-159 -177l-19 21q37 57 43.5 121t-14.5 115.5t-70 85.5t-116 34q-78 0 -133.5 -58.5t-55.5 -148.5q0 -79 30 -135.5t101 -98 t194.5 -61.5t303.5 -20h92q61 0 87 29t34 104q2 10 2 23l27 2l-2 -29q-11 -132 -11 -160v-6q0 -28 11 -160l2 -28l-27 2q0 12 -2 22q-8 75 -34 104t-87 29h-121v-706q0 -61 29 -87t104 -34q10 -2 23 -2l2 -27l-29 2q-132 11 -159 11h-78q-28 0 -160 -11l-29 -2l2 27 q13 0 23 2q75 8 104 34t29 87v39q-154 -23 -244 -23q-248 0 -389 120.5t-141 320.5zM297 330q0 -137 96 -225.5t256 -88.5q52 0 96.5 10t82 31.5t58 36t52.5 41.5v524h-281q-89 0 -170.5 -39.5t-135.5 -116.5t-54 -173z" />
<glyph unicode="'" horiz-adv-x="614" d="M143 1163v17q42 15 76 49.5t49 75.5h17q15 -42 49.5 -76t75.5 -49v-17q-98 -36 -125 -350h-17q-27 316 -125 350z" />
<glyph unicode="(" horiz-adv-x="823" d="M205 678q0 133 37.5 266.5t105 252t148 221t178.5 196.5l14 -29q-151 -170 -248.5 -408t-97.5 -499t97.5 -499t248.5 -408l-14 -29q-98 94 -178.5 196.5t-148 221t-105 252t-37.5 266.5z" />
<glyph unicode=")" horiz-adv-x="823" d="M131 -229q151 170 248.5 408t97.5 499t-97.5 499t-248.5 408l14 29q98 -94 178.5 -196.5t148 -221t105 -252t37.5 -266.5t-37.5 -266.5t-105 -252t-148 -221t-178.5 -196.5z" />
<glyph unicode="*" horiz-adv-x="978" d="M102 907v21q110 1 180 19t115 63t63 115t19 180h21q1 -110 19 -180t63 -115t115 -63t180 -19v-21q-110 -1 -180 -19t-115 -63t-63 -115t-19 -180h-21q-1 215 -81.5 295.5t-295.5 81.5z" />
<glyph unicode="+" horiz-adv-x="1366" d="M141 575v107h486v487h108v-487h488v-107h-488v-483h-108v483h-486z" />
<glyph unicode="," horiz-adv-x="614" d="M143 61v17q42 15 76 49.5t49 75.5h17q15 -42 49.5 -76t75.5 -49v-17q-25 -21 -86 -144t-101 -155l-22 17q28 40 42 79t12.5 78t-29.5 72t-83 53z" />
<glyph unicode="-" horiz-adv-x="833" d="M82 582v94h670v-94h-670z" />
<glyph unicode="." horiz-adv-x="614" d="M131 61v17q45 17 82 55t55 82h17q17 -45 55 -82t82 -55v-17q-72 -28 -137 -137h-17q-20 45 -56.5 82.5t-80.5 54.5z" />
<glyph unicode="/" horiz-adv-x="937" d="M80 -31l651 1336h129l-653 -1336h-127z" />
<glyph unicode="0" horiz-adv-x="1249" d="M184 616q0 184 56 341.5t158 252.5t227 95q122 0 222 -80t159 -229t59 -339q0 -184 -56 -341t-157.5 -252t-226.5 -95q-187 0 -314 180.5t-127 466.5zM326 637q10 -169 52.5 -305t115.5 -218.5t163 -82.5q85 0 149 81.5t94.5 220t21.5 304.5q-8 168 -50.5 305t-115 219 t-162.5 82q-85 0 -149 -82t-95 -220t-24 -304z" />
<glyph unicode="1" horiz-adv-x="987" d="M266 -10l2 26q13 0 23 2q75 8 104 34t29 87v996q0 61 -29 86.5t-104 33.5q-10 2 -23 2l-2 27l29 -2q120 -10 160 -10h77q40 0 160 10l29 2l-2 -27q-13 0 -23 -2q-75 -8 -104 -33.5t-29 -86.5v-996q0 -61 29 -87t104 -34q10 -2 23 -2l2 -26l-29 2q-120 10 -160 10h-77 q-40 0 -160 -10z" />
<glyph unicode="2" horiz-adv-x="1214" d="M158 0l6 35q58 71 158.5 177t176 188.5t151.5 179t117.5 193t41.5 185.5q0 132 -73 214.5t-195 82.5q-97 0 -162.5 -64.5t-73.5 -158.5q-6 -70 25.5 -109t105.5 -51q10 -2 23 -2l2 -26q-221 10 -297 26q0 109 36.5 195t96.5 137t130 77t144 26q111 0 200.5 -38.5 t143.5 -115.5t54 -180q0 -81 -44.5 -172.5t-122 -182.5t-154 -168t-168.5 -166.5t-138 -142.5h559q61 0 87 29t34 104q2 10 2 23l27 2l-2 -29q-11 -132 -11 -159v-78q0 -28 11 -160l2 -29l-27 2q0 13 -2 23q-8 75 -34 104t-87 29h-743z" />
<glyph unicode="3" horiz-adv-x="1167" d="M51 84l23 18q17 15 45.5 40t45 39.5t28.5 27.5l55 55q13 12 28 28.5t38 44t40 46.5l19 23l16 -21q-2 -3 -6.5 -7.5t-7.5 -8.5q-31 -39 -40 -69t-4 -52t23 -60q30 -66 99.5 -114.5t156.5 -48.5q118 0 186 102.5t56 251.5q-12 139 -98.5 219t-204.5 80q-18 0 -38 -5t-31 -9 l-11 -5q150 124 239.5 239t118.5 237h-405q-61 0 -87 -29.5t-34 -104.5q-2 -10 -2 -22l-27 -2l2 29q11 132 11 159v78q0 28 -11 160l-2 29l27 -2q0 -13 2 -23q8 -75 34 -104t87 -29h530q-27 -138 -98.5 -269t-169.5 -229q140 -32 227.5 -135t87.5 -250q0 -172 -120 -297 t-299 -125q-181 0 -312 121q-40 39 -81 38.5t-99 -46.5q-4 -3 -8.5 -7.5t-7.5 -6.5z" />
<glyph unicode="4" horiz-adv-x="1208" d="M82 344l625 928h81q40 0 160 10l29 2l-2 -27q-13 0 -23 -2q-75 -8 -104 -33.5t-29 -86.5v-691h60q61 0 86.5 29t33.5 105q2 10 2 22l27 2l-2 -29q-2 -28 -6 -82.5t-4 -76.5v-39q0 -40 10 -160l2 -29l-27 2q0 13 -2 23q-8 75 -33.5 104t-86.5 29h-60v-205q0 -61 29 -87 t104 -34q10 -2 23 -2l2 -26l-29 2q-120 10 -160 10h-77q-40 0 -160 -10l-29 -2l2 26q13 0 23 2q75 8 104 34t29 87v205h-598zM246 444h434v648z" />
<glyph unicode="5" horiz-adv-x="1142" d="M131 250q60 31 128.5 59t107.5 41l39 12l6 -26q-6 -2 -21 -8q-129 -64 -82 -160q70 -148 246 -148q124 0 196 98t58 238q-14 142 -100 238t-215 96q-66 0 -129.5 -21t-100.5 -55l-37 37l41 623h469q61 0 87 29t34 104q2 10 2 23l27 2l-2 -29q-11 -132 -11 -160v-78 q0 -27 11 -159l2 -29l-27 2q0 12 -2 22q-8 75 -34 104.5t-87 29.5h-397l-29 -412q101 63 228 63q177 0 298 -110t121 -285q0 -172 -120 -297t-299 -125q-85 0 -164 28t-147 93.5t-97 159.5z" />
<glyph unicode="6" horiz-adv-x="1173" d="M197 643q12 134 57.5 252t113.5 203.5t148.5 146t167.5 92.5q29 11 36 -4q8 -15 -28 -35q-141 -77 -230 -248t-110 -436q42 70 122 112t167 42q106 0 192 -57t133.5 -150.5t47.5 -202.5q0 -173 -107.5 -281t-265.5 -108q-109 0 -197.5 45.5t-148.5 130t-86 212.5t-12 286 zM367 369q-11 -144 53.5 -244t173.5 -100q117 0 194 98.5t89 245.5q11 146 -53.5 247t-176.5 101q-115 0 -191.5 -100t-88.5 -248z" />
<glyph unicode="7" horiz-adv-x="1085" d="M90 977l2 29q10 120 10 159v109h897l-301 -619q-153 -313 -242 -449.5t-182 -209.5q-14 -11 -26.5 -16.5t-19 -4t-8.5 7.5t4.5 19t21.5 29q42 45 78 101t101.5 195.5t154.5 364.5l176 443h-516q-61 0 -87 -29.5t-34 -104.5q-2 -10 -2 -22z" />
<glyph unicode="8" d="M195 334q0 118 66.5 216t176.5 142q-213 140 -213 295q0 98 55.5 172.5t137 110t172.5 35.5q150 0 254 -83.5t104 -207.5q0 -74 -55 -147t-127 -107q-32 -15 -37 -3q-2 8 10 19q97 90 97 225q0 107 -66.5 178.5t-177.5 71.5q-114 0 -176 -60.5t-62 -146.5q0 -25 4.5 -47 t17.5 -43.5t22.5 -36.5t34 -35t36.5 -30.5t46 -31.5t45.5 -28t51.5 -30q54 -31 87.5 -50.5t80 -50.5t74.5 -55.5t60 -58.5t49.5 -67t29 -74.5t11.5 -86.5q0 -131 -121.5 -240.5t-284.5 -109.5q-82 0 -150.5 23t-114 60.5t-77.5 86t-46.5 98t-14.5 97.5zM293 346 q0 -138 92 -225.5t203 -87.5q109 0 188.5 64.5t79.5 164.5q0 115 -77 197t-263 186q-5 3 -7 4t-7 4q-91 -30 -150 -114.5t-59 -192.5z" />
<glyph unicode="9" horiz-adv-x="1173" d="M164 915q0 173 108 281.5t265 108.5q109 0 197.5 -45.5t148.5 -130t86 -212.5t12 -286q-12 -134 -57.5 -252t-113.5 -203.5t-148.5 -146t-167.5 -92.5q-28 -10 -36 2q-10 16 27 36q141 77 230 248t110 436q-42 -70 -121.5 -111.5t-166.5 -41.5q-106 0 -192 56.5 t-133.5 150t-47.5 202.5zM301 905q-11 -146 53 -247t176 -101q115 0 192 100t89 248q11 144 -53.5 244t-173.5 100q-117 0 -194 -98.5t-89 -245.5z" />
<glyph unicode=":" horiz-adv-x="614" d="M143 61v17q42 15 76 49.5t49 75.5h17q15 -42 49.5 -76t75.5 -49v-17q-69 -25 -125 -124h-17q-18 42 -51 76t-74 48zM143 737v17q42 15 76 49.5t49 75.5h17q15 -42 49.5 -76t75.5 -49v-17q-68 -25 -125 -125h-17q-18 42 -51 76.5t-74 48.5z" />
<glyph unicode=";" horiz-adv-x="614" d="M143 61v17q42 15 76 49.5t49 75.5h17q15 -42 49.5 -76t75.5 -49v-17q-25 -21 -86 -144t-101 -155l-22 17q28 40 42 79t12.5 78t-29.5 72t-83 53zM143 737v17q42 15 76 49.5t49 75.5h17q15 -42 49.5 -76t75.5 -49v-17q-68 -25 -125 -125h-17q-18 42 -51 76.5t-74 48.5z " />
<glyph unicode="&#x3c;" horiz-adv-x="962" d="M143 1163v17q41 15 75.5 49t49.5 76h17q15 -41 49 -75.5t76 -49.5v-17q-55 -20 -83 -53t-29.5 -72t12.5 -78t42 -79l-22 -17q-40 32 -101 155t-86 144zM553 1163v17q41 15 75.5 49t49.5 76h16q15 -41 49 -75.5t76 -49.5v-17q-55 -20 -83 -53t-29 -72t13 -78t42 -79 l-23 -17q-40 32 -100.5 155t-85.5 144z" />
<glyph unicode="=" horiz-adv-x="1366" d="M143 334v108h1080v-108h-1080zM143 801v108h1080v-108h-1080z" />
<glyph unicode="&#x3e;" horiz-adv-x="962" d="M143 1163v17q42 15 76 49.5t49 75.5h17q15 -42 49.5 -76t75.5 -49v-17q-25 -21 -86 -144t-101 -155l-22 17q28 40 42 79t12.5 78t-29.5 72t-83 53zM553 1163v17q42 15 76 49.5t49 75.5h16q15 -42 49.5 -76t75.5 -49v-17q-25 -21 -85.5 -144t-100.5 -155l-23 17 q28 40 42 79t13 78t-29 72t-83 53z" />
<glyph unicode="?" horiz-adv-x="897" d="M113 1251q75 30 129 42t135 12q181 0 297.5 -99.5t116.5 -261.5q0 -111 -92 -208t-222 -144q-78 -30 -99 -52t-26 -63l-20 -166h-21l-35 328q161 9 261 98.5t100 208.5q0 116 -75.5 211.5t-184.5 95.5q-38 0 -67.5 -5.5t-51 -13.5t-38 -25t-27 -32t-20 -43t-15 -49.5 t-13.5 -58.5h-22q6 91 -10 225zM188 61v17q42 15 76 49.5t49 75.5h17q15 -42 49.5 -76t75.5 -49v-17q-69 -25 -125 -124h-17q-18 42 -51 76t-74 48z" />
<glyph unicode="@" horiz-adv-x="1880" d="M283 600q0 146 55.5 276.5t150 224.5t226.5 149t278 55q239 0 388 -137t149 -357q0 -138 -56 -255t-151 -185t-207 -68q-115 0 -115 100l11 107q-63 -108 -140 -157.5t-153 -49.5q-60 0 -97.5 52t-37.5 141q0 101 38 192.5t97.5 153t132 97.5t143.5 36q105 0 129 -101 l31 101h166l14 -25l-82 -10l-118 -412q-21 -74 -21 -114t13 -50t40 -10q52 0 107.5 35t102 93.5t76.5 145.5t30 181q0 189 -129.5 307.5t-327.5 118.5q-169 0 -312 -86.5t-227 -236.5t-84 -328q0 -156 72 -284.5t198.5 -201.5t280.5 -73q203 0 354.5 95.5t235.5 282.5h43 q-68 -200 -245 -321t-404 -121q-139 0 -261 48.5t-208.5 133t-136 203t-49.5 254.5zM700 518q0 -55 25 -92t61 -37q69 0 143 74t121.5 179t47.5 194q0 46 -26.5 75t-67.5 29q-49 0 -103.5 -36.5t-98.5 -94t-73 -136t-29 -155.5z" />
<glyph unicode="A" horiz-adv-x="1445" d="M102 -12l2 26q13 0 23 2q75 8 104 34t29 87v35q0 156 12.5 289t44.5 267t83.5 241.5t133 201.5t189.5 158q108 -64 189.5 -158t133 -201.5t83.5 -241.5t44.5 -267t12.5 -289v-35q0 -61 29 -87t104 -34q10 -2 22 -2l2 -26l-28 2q-120 10 -160 10h-78q-39 0 -159 -10 l-29 -2l2 26q12 0 22 2q75 8 104.5 34t29.5 87v29q0 98 -7 221h-634q-7 -126 -7 -221v-29q0 -61 29 -87t104 -34q10 -2 23 -2l2 -26l-29 2q-120 10 -159 10h-78q-40 0 -160 -10zM410 465h626q-53 662 -313 811q-259 -147 -313 -811z" />
<glyph unicode="B" horiz-adv-x="1392" d="M164 -10l2 26q12 0 22 2q75 8 104.5 34t29.5 87v996q0 61 -29 86.5t-105 33.5q-10 2 -22 2l-2 27l571 2q181 0 296.5 -78t115.5 -209q0 -88 -57 -161t-152 -105q145 -44 224 -134.5t79 -211.5q0 -75 -27.5 -141.5t-84 -123.5t-157 -90.5t-233.5 -33.5l-387 4 q-39 0 -159 -10zM461 299q0 -47 1.5 -79.5t8 -60t13 -44.5t23.5 -30.5t33 -19.5t47 -10t59.5 -5t76.5 -1q155 0 255.5 97.5t100.5 236.5q0 144 -94.5 237t-263.5 93h-260v-414zM461 762h274q138 0 204.5 66t66.5 153q0 132 -91 198t-299 66l-155 -8v-475z" />
<glyph unicode="C" horiz-adv-x="1505" d="M164 616q0 137 55.5 263t151.5 220t234 150t294 56q72 0 137.5 -12t102.5 -26.5t75.5 -27.5t57.5 -15.5t47 9.5l14 -262h-22q-25 83 -66 139.5t-98.5 88t-123 45t-151.5 13.5q-158 0 -283.5 -88.5t-190.5 -234.5q-59 -132 -59 -283q0 -16 1 -33q8 -176 90 -315 t212.5 -213t283.5 -74q90 0 156 15t120 51t86 101.5t43 162.5h35l-33 -272q-58 -43 -187.5 -74t-246.5 -31q-151 0 -286 47t-234 130t-157 205t-58 265z" />
<glyph unicode="D" horiz-adv-x="1671" d="M164 -10l2 26q12 0 22 2q75 8 104.5 34t29.5 87v996q0 61 -29 86.5t-105 33.5q-10 2 -22 2l-2 27l29 -2q120 -10 159 -10q332 10 420 10q151 0 286 -45t234 -124.5t157 -196.5t58 -254q0 -132 -55.5 -253t-151.5 -212t-234 -145t-294 -54l-420 4q-39 0 -159 -10zM461 229 q0 -73 24 -110t89.5 -54.5t195.5 -17.5q163 0 295.5 84t205 223t72.5 301q0 168 -77.5 299.5t-208 202t-287.5 70.5l-309 -8v-990z" />
<glyph unicode="E" horiz-adv-x="1220" d="M164 -10l2 26q12 0 22 2q75 8 104.5 34t29.5 87v996q0 61 -29 86.5t-105 33.5q-10 2 -22 2l-2 27l29 -2q120 -10 159 -10h639l39 -221h-29q-10 38 -17 59.5t-18 40t-20 26.5t-28.5 14t-38.5 7t-54 2l-364 4v-467h463v-65h-463v-479q0 -85 15 -102t89 -17h219 q77 0 120.5 15.5t71.5 46t73 104.5l34 4q-26 -47 -42.5 -86.5t-22 -58.5t-13.5 -55t-12 -52q-196 8 -321 10h-320q-39 0 -159 -10z" />
<glyph unicode="F" horiz-adv-x="1126" d="M164 -10l2 26q12 0 22 2q75 8 104.5 34t29.5 87v996q0 61 -29 86.5t-105 33.5q-10 2 -22 2l-2 27l29 -2q120 -10 159 -10l637 2l39 -223h-29q-9 39 -16.5 62.5t-18.5 41.5t-23 26t-32 12.5t-44 5.5t-60 1h-37l-307 4v-467h434v-65h-434v-533q0 -61 29 -87t104 -34 q10 -2 22 -2l2 -26l-28 2q-120 10 -160 10h-78q-39 0 -159 -10z" />
<glyph unicode="G" horiz-adv-x="1597" d="M164 616q0 137 55.5 263t151.5 220t234 150t294 56q72 0 138 -12t104 -27t77.5 -28.5t59 -16t47.5 9.5l47 -264h-29q-35 102 -106.5 168.5t-161.5 94t-203 27.5q-158 0 -283.5 -88.5t-190.5 -234.5q-59 -132 -59 -283q0 -16 1 -33q8 -176 90 -315t212.5 -213t283.5 -74 q173 0 291 78v316q0 60 -45.5 85.5t-131.5 34.5q-10 2 -43 2l-2 27l49 -2q120 -10 203 -10h78q40 0 160 10l28 2l-2 -27q-12 0 -22 -2q-75 -8 -104 -33.5t-29 -86.5v-332q-114 -62 -222 -85.5t-235 -23.5q-151 0 -286 47t-234 130t-157 205t-58 265z" />
<glyph unicode="H" horiz-adv-x="1671" d="M164 -10l2 26q12 0 22 2q75 8 104.5 34t29.5 87v996q0 61 -29 86.5t-105 33.5q-10 2 -22 2l-2 27l29 -2q120 -10 159 -10h78q40 0 160 10l28 2l-2 -27q-12 0 -22 -2q-75 -8 -104 -33.5t-29 -86.5v-332h749v332q0 61 -29 86.5t-104 33.5q-10 2 -22 2l-2 27l28 -2 q120 -10 160 -10h78q40 0 160 10l28 2l-2 -27q-12 0 -22 -2q-75 -8 -104 -33.5t-29 -86.5v-996q0 -61 29 -87t104 -34q10 -2 22 -2l2 -26l-28 2q-120 10 -160 10h-78q-40 0 -160 -10l-28 -2l2 26q12 0 22 2q75 8 104 34t29 87v467h-749v-467q0 -61 29 -87t104 -34 q10 -2 22 -2l2 -26l-28 2q-120 10 -160 10h-78q-39 0 -159 -10zM461 672h749v65h-749v-65z" />
<glyph unicode="I" horiz-adv-x="823" d="M184 -10l2 26q13 0 23 2q75 8 104 34t29 87v996q0 61 -29 86.5t-104 33.5q-10 2 -23 2l-2 27l29 -2q120 -10 160 -10h78q39 0 159 10l29 2l-2 -27q-13 0 -23 -2q-75 -8 -104 -33.5t-29 -86.5v-996q0 -61 29 -87t104 -34q10 -2 23 -2l2 -26l-29 2q-120 10 -159 10h-78 q-40 0 -160 -10zM279 1497v16q40 17 73.5 51t50.5 74h17q17 -40 51 -74t74 -51v-16q-40 -17 -74 -51t-51 -74h-17q-17 40 -50.5 74t-73.5 51z" />
<glyph unicode="J" horiz-adv-x="823" d="M184 1284l29 -2q120 -10 160 -10h78q39 0 159 10l29 2l-2 -27q-13 0 -23 -2q-75 -8 -104 -33.5t-29 -86.5v-1414l-139 -192v1606q0 61 -29 86.5t-104 33.5q-10 2 -23 2zM279 1497v16q40 17 73.5 51t50.5 74h17q17 -40 51 -74t74 -51v-16q-40 -17 -74 -51t-51 -74h-17 q-17 40 -50.5 74t-73.5 51z" />
<glyph unicode="K" horiz-adv-x="1331" d="M164 -10l2 26q12 0 22 2q75 8 104.5 34t29.5 87v996q0 61 -29 86.5t-105 33.5q-10 2 -22 2l-2 27l29 -2q120 -10 159 -10h78q40 0 160 10l28 2l-2 -27q-12 0 -22 -2q-75 -8 -104 -33.5t-29 -86.5v-490q58 0 134.5 44t146 111t130 141t96.5 140t36 101t-38 50.5t-108 22.5 q-10 2 -22 2l-2 27l28 -2q120 -10 160 -10h78q40 0 160 10l28 2l-2 -27q-12 0 -22 -2q-25 -3 -47.5 -10t-39 -14.5t-33.5 -21t-27 -23t-23.5 -28.5t-19.5 -29t-19.5 -32t-18.5 -30q-91 -143 -177.5 -232t-209.5 -176q28 -2 75.5 -53t102.5 -127t133 -171.5t159.5 -183.5 t189 -166t215.5 -116q92 -32 202.5 -32t182.5 32q-11 -30 -97 -56t-198 -26q-96 0 -192 31t-176.5 82t-159.5 118.5t-141 137.5t-121 142.5t-100.5 130.5t-77.5 104t-54 61q-48 40 -100 40q-15 0 -31 -3v-465q0 -61 29 -87t104 -34q10 -2 22 -2l2 -26l-28 2q-120 10 -160 10 h-78q-39 0 -159 -10z" />
<glyph unicode="L" horiz-adv-x="1212" d="M164 -10l2 26q12 0 22 2q75 8 104.5 34t29.5 87v996q0 61 -29 86.5t-105 33.5q-10 2 -22 2l-2 27l29 -2q120 -10 159 -10h78q40 0 160 10l28 2l-2 -27q-12 0 -22 -2q-75 -8 -104 -33.5t-29 -86.5v-942q0 -85 15 -102t89 -17h213q43 0 66 1t49 6.5t39.5 12.5t34.5 25 t37.5 38t44.5 56l65 86h43q-116 -156 -156 -311q-407 14 -571 14h-78q-39 0 -159 -10z" />
<glyph unicode="M" horiz-adv-x="1959" d="M164 -10l2 26q12 0 22 2q75 8 104.5 34t29.5 87v996q0 61 -29 86.5t-105 33.5q-10 2 -22 2l-2 27l29 -2q48 -4 74 -7t84.5 -16.5t135.5 -37.5l496 -152l496 152q77 24 136 37.5t84.5 16.5t74.5 7l28 2l-2 -27q-12 0 -22 -2q-75 -8 -104 -33.5t-29 -86.5v-996 q0 -61 29 -87t104 -34q10 -2 22 -2l2 -26l-28 2q-120 10 -160 10h-78q-40 0 -160 -10l-28 -2l2 26q12 0 22 2q75 8 104 34t29 87v1010l-452 -139v-871q0 -61 29 -87t104 -34q10 -2 22 -2l2 -26l-28 2q-120 10 -160 10h-78q-40 0 -160 -10l-28 -2l2 26q12 0 22 2q75 8 104 34 t29 87v871l-452 139v-1010q0 -61 29 -87t104 -34q10 -2 22 -2l2 -26l-28 2q-120 10 -160 10h-78q-39 0 -159 -10z" />
<glyph unicode="N" horiz-adv-x="1503" d="M164 -10l2 26q12 0 22 2q75 8 104.5 34t29.5 87v996q0 61 -29 86.5t-105 33.5q-10 2 -22 2l-2 27l29 -2q120 -10 159 -10h871q39 0 159 10l29 2l-2 -27q-13 0 -23 -2q-75 -8 -104 -33.5t-29 -86.5v-996q0 -61 29 -87t104 -34q10 -2 23 -2l2 -26l-29 2q-120 10 -159 10 h-78q-40 0 -160 -10l-29 -2l2 26q13 0 23 2q75 8 104 34t29 87v1055h-653v-1055q0 -61 29 -87t104 -34q10 -2 22 -2l2 -26l-28 2q-120 10 -160 10h-78q-39 0 -159 -10z" />
<glyph unicode="O" horiz-adv-x="1794" d="M164 616q0 137 55.5 263t151.5 220t234 150t294 56q203 0 370 -80t266 -229t99 -339q0 -137 -55.5 -263t-151.5 -219.5t-234 -149.5t-294 -56q-151 0 -286 47t-234 130t-157 205t-58 265zM305 637q13 -125 66 -235.5t136.5 -193t201.5 -130t254 -47.5q128 0 234 48 t175 129q70 82 102 194q23 80 23 165q0 34 -4 70q-13 125 -65.5 235.5t-136 193t-201.5 130t-254 47.5q-170 0 -298 -81q-130 -82 -190 -220q-47 -108 -47 -233q0 -36 4 -72z" />
<glyph unicode="P" horiz-adv-x="1208" d="M164 -10l2 26q12 0 22 2q75 8 104.5 34t29.5 87v996q0 61 -29 86.5t-105 33.5q-10 2 -22 2l-2 27l29 -2q120 -10 159 -10q19 0 141 5t179 5q206 0 327 -91t121 -228q0 -119 -72.5 -215.5t-190.5 -148.5t-255 -52q-40 0 -70 6v18q16 -2 52 -2q166 0 283.5 95t117.5 251 q0 132 -97.5 226t-273.5 94q-100 0 -126.5 -16t-26.5 -84v-996q0 -61 29 -87t104 -34q10 -2 22 -2l2 -26l-28 2q-120 10 -160 10h-78q-39 0 -159 -10z" />
<glyph unicode="Q" horiz-adv-x="1794" d="M164 616q0 137 55.5 263t151.5 220t234 150t294 56q203 0 370 -80t266 -229t99 -339q0 -231 -146.5 -415.5t-383.5 -245.5q57 -31 183.5 -103.5t203 -114.5t200.5 -102t218.5 -93t210.5 -58t221 -25q212 0 366 103q-2 -20 -32.5 -50t-80 -59.5t-127 -50.5t-161.5 -21 q-163 0 -365.5 51t-374 121.5t-329.5 149t-246.5 130.5t-109.5 69q-21 14 -64 30q-184 16 -331.5 98.5t-234.5 225t-87 319.5zM305 637q13 -125 66 -235.5t136.5 -193t201.5 -130t254 -47.5q128 0 234 48t175 129.5t102 193.5q23 79 23 165q0 35 -4 70q-13 125 -65.5 235.5 t-136 193t-201.5 130t-254 47.5q-170 0 -298.5 -81.5t-189.5 -219.5q-47 -109 -47 -233q0 -36 4 -72z" />
<glyph unicode="R" horiz-adv-x="1429" d="M164 -10l2 26q12 0 22 2q75 8 104.5 34t29.5 87v996q0 61 -29 86.5t-105 33.5q-10 2 -22 2l-2 27l29 -2q120 -10 159 -10q19 0 141 5t179 5q206 0 327 -91t121 -228q0 -130 -83.5 -230t-219.5 -149q41 -27 121.5 -107.5t174.5 -176t202.5 -195t236 -186t244.5 -128.5 q70 -25 153 -25q3 0 6 -1q79 1 141 15q64 14 118 38q-13 -33 -113.5 -76t-208.5 -43q-110 0 -226 42t-218 111t-201 153t-187 172.5t-163 164.5t-143 135t-113 78h-180v-416q0 -61 29 -87t104 -34q10 -2 22 -2l2 -26l-28 2q-120 10 -160 10h-78q-39 0 -159 -10zM461 604h297 q101 42 164 123t63 188q0 132 -97.5 226t-273.5 94q-100 0 -126.5 -16t-26.5 -84v-531z" />
<glyph unicode="S" horiz-adv-x="1085" d="M150 305h28q32 -151 108.5 -218t215.5 -67q130 0 213.5 64.5t83.5 177.5q0 115 -77 197t-263 186q-133 74 -212 157.5t-79 184.5q0 148 99 233t265 85q78 1 164 -29q83 -29 142 -29h4l30 -194h-16q-21 54 -52 92.5t-62.5 59t-72.5 32.5t-73 15t-74 3q-98 0 -161.5 -60.5 t-63.5 -150.5q0 -25 4.5 -47t17.5 -43.5t22.5 -36.5t34 -35t36.5 -30.5t46 -31.5t45.5 -28t51.5 -30q64 -36 102 -59.5t90 -59t82.5 -67t60 -72t43 -87t13.5 -98.5q0 -138 -127.5 -244t-316.5 -106q-56 0 -112 10t-85.5 20t-71 26.5t-43.5 17.5z" />
<glyph unicode="T" horiz-adv-x="1310" d="M41 1061l102 285h31q-11 -47 4.5 -60.5t83.5 -13.5h324v227q0 61 -29 87t-104 34q-10 2 -23 2l-2 27l29 -2q132 -11 159 -11h78q28 0 160 11l29 2l-2 -27q-13 0 -23 -2q-75 -8 -104 -34t-29 -87v-227h350q63 0 96.5 23t73.5 110h25l-103 -285h-30q11 47 -4.5 60.5 t-83.5 13.5h-324v-1055q0 -61 29 -87t104 -34q10 -2 23 -2l2 -26l-29 2q-120 10 -160 10h-78q-39 0 -159 -10l-29 -2l2 26q13 0 23 2q75 8 104 34t29 87v1055h-350q-63 0 -96.5 -23t-73.5 -110h-25z" />
<glyph unicode="U" horiz-adv-x="1527" d="M102 1286l29 -2q120 -10 160 -10h78q39 0 159 10l29 2l-2 -26q-8 0 -23 -3q-75 -8 -104 -33.5t-29 -86.5v-29q0 -238 29 -433t80 -327.5t115 -219t141 -130.5q77 44 140.5 130.5t115 219t80 327.5t28.5 433v29q0 61 -29 86.5t-104 33.5q-15 3 -22 3l-2 26l28 -2 q120 -10 160 -10h78q40 0 160 10l28 2l-2 -26q-7 0 -22 -3q-75 -8 -104 -33.5t-29 -86.5v-35q0 -191 -27.5 -359t-85.5 -320.5t-157 -275t-234 -202.5q-135 80 -234 202.5t-157 275t-85.5 320.5t-27.5 359v35q0 61 -29 86.5t-104 33.5q-15 3 -23 3z" />
<glyph unicode="V" horiz-adv-x="1443" d="M41 1284l29 -2q120 -10 196 -10h78q77 0 197 10l28 2l-2 -27q-12 0 -22 -2q-27 -3 -49.5 -7.5t-47 -13.5t-36.5 -22.5t-18.5 -34t7.5 -47.5l377 -886l332 866q10 26 10 48q0 83 -147 97q-10 2 -23 2l-2 27l29 -2q124 -10 155 -10h5h77q42 0 160 10l29 2l-2 -27 q-13 0 -23 -2q-56 -6 -84 -17t-54.5 -46t-53.5 -107l-426 -1108h-21l-491 1158q-29 67 -66 89.5t-116 30.5q-10 2 -23 2z" />
<glyph unicode="W" horiz-adv-x="2191" d="M102 1286l29 -2q120 -10 160 -10h78q39 0 159 10l29 2l-2 -26q-8 0 -23 -3q-75 -8 -104 -33.5t-29 -86.5v-29q0 -930 314 -1110q313 180 313 1110v29q0 61 -29 86.5t-104 33.5q-15 3 -23 3l-2 26l29 -2q120 -10 160 -10h78q39 0 159 10l29 2l-2 -26q-8 0 -23 -3 q-75 -8 -104 -33.5t-29 -86.5v-29q0 -930 314 -1110q313 180 313 1110v29q0 61 -29 86.5t-104 33.5q-15 3 -23 3l-2 26l29 -2q120 -10 160 -10h78q39 0 159 10l29 2l-2 -26q-8 0 -23 -3q-75 -8 -104 -33.5t-29 -86.5v-35q0 -157 -11.5 -289t-42 -267t-80 -242t-130 -201 t-188.5 -158q-274 163 -383 557q-109 -394 -383 -557q-108 64 -188.5 158t-130.5 201t-80.5 242t-42 267t-11.5 289v35q0 61 -29 86.5t-104 33.5q-15 3 -23 3z" />
<glyph unicode="X" horiz-adv-x="1484" d="M66 -10l2 26q12 0 22 2q67 7 111.5 39.5t83.5 81.5l385 490l-373 506q-81 109 -195 120q-10 2 -22 2l-2 27l28 -2q120 -10 160 -10h121q40 0 160 10l28 2l-2 -27q-12 0 -22 -2q-48 -5 -71.5 -24t-22 -44t21.5 -52l285 -387l303 387q18 23 19.5 48t-21.5 46t-70 26 q-10 2 -22 2l-2 27l28 -2q120 -10 160 -10h43q40 0 160 10l29 2l-2 -27q-13 0 -23 -2q-68 -7 -110.5 -37t-84.5 -83l-356 -455l399 -541q43 -58 70 -79q46 -36 107 -42q10 -2 22 -2l2 -26l-29 2q-120 10 -159 10h-121q-40 0 -160 -10l-28 -2l2 26q12 0 22 2q74 6 99 42 q11 15 11 32q0 22 -20 47l-311 422l-332 -422q-21 -27 -22.5 -52.5t22.5 -44.5t72 -24q10 -2 22 -2l2 -26l-28 2q-120 10 -160 10h-43q-40 0 -160 -10z" />
<glyph unicode="Y" horiz-adv-x="1386" d="M20 1284l29 -2q120 -10 180 -10h78q60 0 180 10l29 2l-2 -27q-12 0 -22 -2q-26 -2 -35.5 -3.5t-32.5 -5.5t-31.5 -9.5t-18.5 -15t-7.5 -24.5t14.5 -34l346 -553l322 516q18 28 20 50t-7 35t-30.5 22.5t-43 14t-52.5 7.5q-10 2 -23 2l-2 27l29 -2q120 -10 160 -10h78 q39 0 159 10l29 2l-2 -27q-13 0 -23 -2q-76 -8 -123.5 -45.5t-113.5 -142.5l-332 -528v-400q0 -61 29 -87t104 -34q10 -2 23 -2l2 -26l-29 2q-120 10 -160 10h-77q-40 0 -160 -10l-29 -2l2 26q13 0 23 2q75 8 104 34t29 87v361l-373 594q-63 100 -100 126.5t-115 34.5 q-10 2 -22 2z" />
<glyph unicode="Z" horiz-adv-x="1331" d="M129 0v43l455 623h-375l61 65h361l336 463h-570q-63 0 -96.5 -23t-73.5 -110h-24l102 287l31 -2q-11 -47 4.5 -60.5t83.5 -13.5h723v-39l-367 -502h385l-61 -65h-371l-426 -588h711q63 0 96.5 23t73.5 110h24l-102 -287l-31 2q11 47 -4.5 60.5t-83.5 13.5h-862z" />
<glyph unicode="[" horiz-adv-x="823" d="M287 -221v1769h399v-41h-260v-1687h260v-41h-399z" />
<glyph unicode="\" horiz-adv-x="937" d="M74 1305h129l661 -1336h-129z" />
<glyph unicode="]" horiz-adv-x="823" d="M137 -180h260v1687h-260v41h400v-1769h-400v41z" />
<glyph unicode="^" horiz-adv-x="960" d="M37 659l430 717h31l426 -717h-93l-350 586l-350 -586h-94z" />
<glyph unicode="_" horiz-adv-x="1024" d="M-16 -358h1056v-84h-1056v84z" />
<glyph unicode="`" horiz-adv-x="681" d="M119 1282h223l104 -346h-34z" />
<glyph unicode="a" d="M72 -10l2 28q12 0 22 2q72 7 92.5 31.5t20.5 89.5v9q3 265 97.5 474.5t281.5 319.5q188 -109 282 -316.5t99 -473.5v-13q0 -65 20 -89.5t92 -31.5q10 -2 23 -2l2 -28l-29 2q-120 10 -139 10h-74q-19 0 -139 -10l-29 -2l2 28q13 0 23 2q72 7 92.5 31.5t20.5 89.5v13 q0 24 -5 116h-481q-4 -78 -4 -120v-9q0 -65 20.5 -89.5t92.5 -31.5q10 -2 22 -2l2 -28l-28 2q-120 10 -140 10h-73q-20 0 -140 -10zM352 338h471q-19 227 -81 365t-154 190q-92 -49 -153.5 -187.5t-82.5 -367.5z" />
<glyph unicode="b" horiz-adv-x="1085" d="M133 -10l2 28q13 0 23 2q72 7 92 31.5t20 89.5v623q0 65 -20 89.5t-92 31.5q-10 2 -23 2l-2 26h457q132 0 217.5 -56.5t85.5 -149.5q0 -59 -37 -110t-100 -77q98 -36 151.5 -98t53.5 -146q0 -53 -20.5 -100.5t-62 -88.5t-115 -65t-169.5 -24l-293 4q-19 0 -139 -10z M399 215q0 -42 2 -68t11 -46.5t18.5 -30t33.5 -15.5t47.5 -7t68.5 -1q105 0 174 66.5t69 160.5q0 98 -64.5 162t-180.5 64h-179v-285zM399 545h189q94 0 139 44t45 103q0 90 -63 135t-205 45q-51 0 -105 -6v-321z" />
<glyph unicode="c" horiz-adv-x="1126" d="M133 438q0 132 68.5 246t192.5 183t276 69q62 0 118.5 -14t83 -27.5t59 -20.5t46.5 7l14 -201l-28 2q-33 111 -110.5 155t-201.5 44q-112 0 -201.5 -61.5t-135.5 -163.5q-42 -92 -42 -195v-23q9 -183 129 -298t287 -115q131 0 202 49t85 180h37l-25 -199 q-47 -33 -141 -59.5t-176 -26.5q-148 0 -270 57.5t-194.5 165.5t-72.5 246z" />
<glyph unicode="d" horiz-adv-x="1286" d="M133 -10l2 28q13 0 23 2q72 7 92 31.5t20 89.5v623q0 65 -20 89.5t-92 31.5q-10 2 -23 2l-2 28l29 -2q120 -10 215 -10q176 6 239 6q227 0 382 -123t155 -317q0 -93 -40.5 -179t-111 -150.5t-171 -103t-214.5 -38.5l-315 4q-19 0 -139 -10zM399 166q0 -71 42 -96t171 -25 q112 0 204.5 58.5t143 154.5t50.5 207q0 174 -115.5 283.5t-282.5 109.5q-114 0 -213 -6v-686z" />
<glyph unicode="e" horiz-adv-x="942" d="M133 -10l2 28q13 0 23 2q72 7 92 31.5t20 89.5v623q0 65 -20 89.5t-92 31.5q-10 2 -23 2l-2 28l29 -2q120 -10 139 -10h475l35 -168l-33 2q-19 70 -38.5 85.5t-84.5 17.5l-256 4v-316h334v-57h-334v-330q0 -55 10 -66.5t60 -11.5h158q53 0 84 11.5t50.5 33t49.5 72.5 l45 4q-13 -21 -22.5 -39t-17 -34t-12 -26t-9 -25t-6.5 -20t-6 -22t-5 -22q-143 4 -233 6h-244q-19 0 -139 -10z" />
<glyph unicode="f" horiz-adv-x="860" d="M133 -10l2 28q13 0 23 2q72 7 92 31.5t20 89.5v623q0 65 -20 89.5t-92 31.5q-10 2 -23 2l-2 28l29 -2q120 -10 139 -10h475l35 -168l-33 2q-19 70 -38.5 85.5t-84.5 17.5l-256 4v-316h334v-57h-334v-330q0 -65 20.5 -89.5t92.5 -31.5q10 -2 23 -2l2 -28l-29 2 q-120 10 -139 10h-68q-19 0 -139 -10z" />
<glyph unicode="g" horiz-adv-x="1181" d="M133 438q0 132 68.5 246t192.5 183t276 69q62 0 119 -14t85 -27.5t61.5 -20.5t47.5 7l35 -205h-33q-71 205 -334 205q-112 0 -201.5 -61.5t-135.5 -163.5q-42 -91 -42 -195v-23q9 -183 129 -298t287 -115q116 0 186 43v188q0 65 -20 89.5t-92 31.5q-10 2 -23 2l-2 29 l29 -2q132 -11 139 -11h68q7 0 139 11l21 2l-3 -31q-4 2 -14 0q-72 -7 -92 -31.5t-20 -89.5v-195q-48 -31 -151 -61.5t-183 -30.5q-148 0 -270 57.5t-194.5 165.5t-72.5 246z" />
<glyph unicode="h" horiz-adv-x="1292" d="M133 -10l2 28q13 0 23 2q72 7 92 31.5t20 89.5v623q0 65 -20 89.5t-92 31.5q-10 2 -23 2l-2 28l29 -2q120 -10 139 -10h68q19 0 139 10l29 2l-2 -28q-13 0 -23 -2q-72 -7 -92.5 -31.5t-20.5 -89.5v-176h494v176q0 65 -20.5 89.5t-92.5 31.5q-10 2 -22 2l-2 28l28 -2 q120 -10 140 -10h67q19 0 139 10l29 2l-2 -28q-12 0 -22 -2q-72 -7 -92.5 -31.5t-20.5 -89.5v-623q0 -65 20.5 -89.5t92.5 -31.5q10 -2 22 -2l2 -28l-29 2q-120 10 -139 10h-67q-20 0 -140 -10l-28 -2l2 28q12 0 22 2q72 7 92.5 31.5t20.5 89.5v262h-494v-262 q0 -65 20.5 -89.5t92.5 -31.5q10 -2 23 -2l2 -28l-29 2q-120 10 -139 10h-68q-19 0 -139 -10zM399 463h494v65h-494v-65z" />
<glyph unicode="i" horiz-adv-x="706" d="M152 -10l2 28q12 0 22 2q72 7 92.5 31.5t20.5 89.5v623q0 65 -20.5 89.5t-92.5 31.5q-10 2 -22 2l-2 28l28 -2q120 -10 139 -10h68q19 0 139 10l29 2l-2 -28q-13 0 -23 -2q-72 -7 -92 -31.5t-20 -89.5v-623q0 -65 20 -89.5t92 -31.5q10 -2 23 -2l2 -28l-29 2 q-120 10 -139 10h-68q-19 0 -139 -10zM231 1149v14q37 15 68.5 46.5t46.5 68.5h14q15 -37 46.5 -68.5t68.5 -46.5v-14q-37 -15 -68.5 -46.5t-46.5 -68.5h-14q-15 37 -46.5 68.5t-68.5 46.5z" />
<glyph unicode="j" horiz-adv-x="706" d="M152 915l28 -2q120 -10 139 -10h68q19 0 139 10l29 2l-2 -28q-13 0 -23 -2q-72 -7 -92 -31.5t-20 -89.5v-942l-129 -152v1094q0 65 -20.5 89.5t-92.5 31.5q-10 2 -22 2zM231 1149v14q37 15 68.5 46.5t46.5 68.5h14q15 -37 46.5 -68.5t68.5 -46.5v-14q-37 -15 -68.5 -46.5 t-46.5 -68.5h-14q-15 37 -46.5 68.5t-68.5 46.5z" />
<glyph unicode="k" horiz-adv-x="1024" d="M133 -10l2 28q13 0 23 2q72 7 92 31.5t20 89.5v623q0 65 -20 89.5t-92 31.5q-10 2 -23 2l-2 28l29 -2q120 -10 139 -10h68q19 0 139 10l29 2l-2 -28q-13 0 -23 -2q-72 -7 -92.5 -31.5t-20.5 -89.5v-301q48 3 115 48.5t123.5 104t96.5 118.5t40 91q0 28 -25 41t-87 19 l-23 2l-2 28l29 -2q120 -10 139 -10h26q20 0 140 10l28 2l-2 -28q-12 0 -22 -2q-28 -3 -52 -14t-42 -29.5t-29 -32t-23.5 -34.5t-15.5 -25q-117 -170 -248 -265q24 -12 66.5 -67t94.5 -128t114.5 -149t147 -142.5t171.5 -96.5q62 -23 140 -23h6q81 1 143 27 q-12 -30 -75.5 -52t-149.5 -22q-79 0 -159.5 29.5t-148 78t-130.5 107t-114 119.5t-90 111.5t-67 87t-37 43.5q-22 16 -55 16q-11 0 -23 -2v-281q0 -65 20.5 -89.5t92.5 -31.5q10 -2 23 -2l2 -28l-29 2q-120 10 -139 10h-68q-19 0 -139 -10z" />
<glyph unicode="l" horiz-adv-x="925" d="M133 -10l2 28q13 0 23 2q72 7 92 31.5t20 89.5v623q0 65 -20 89.5t-92 31.5q-10 2 -23 2l-2 28l29 -2q120 -10 139 -10h68q19 0 139 10l29 2l-2 -28q-13 0 -23 -2q-72 -7 -92.5 -31.5t-20.5 -89.5v-623q0 -55 10 -66.5t60 -11.5h152q58 0 84.5 6.5t46 23.5t59.5 67l49 61 h47q-96 -125 -123 -227q-294 8 -413 8h-70q-19 0 -139 -10z" />
<glyph unicode="m" horiz-adv-x="1521" d="M133 -10l2 28q13 0 23 2q72 7 92 31.5t20 89.5v623q0 65 -20 89.5t-92 31.5q-10 2 -23 2l-2 28l29 -2q98 -8 139 -18l459 -119l461 119q30 9 139 18l29 2l-3 -28q-12 0 -22 -2q-72 -7 -92.5 -31.5t-20.5 -89.5v-623q0 -65 20.5 -89.5t92.5 -31.5q10 -2 22 -2l3 -28l-29 2 q-120 10 -139 10h-68q-19 0 -139 -10l-13 -2l3 30v-1l6 1q72 7 92 31.5t20 89.5v656l-297 -78v-578q0 -65 20.5 -89.5t92.5 -31.5h6l2 -30l-12 2q-120 10 -139 10h-68q-19 0 -139 -10l-13 -2l3 30v-1l6 1q72 7 92 31.5t20 89.5v578l-297 78v-656q0 -65 20.5 -89.5 t92.5 -31.5h6l2 -30l-12 2q-120 10 -139 10h-68q-19 0 -139 -10z" />
<glyph unicode="n" horiz-adv-x="1239" d="M133 -10l2 28q13 0 23 2q72 7 92 31.5t20 89.5v623q0 65 -20 89.5t-92 31.5q-10 2 -23 2l-2 28l29 -2q120 -10 139 -10h637q19 0 139 10l29 2l-2 -28q-13 0 -23 -2q-72 -7 -92 -31.5t-20 -89.5v-623q0 -65 20 -89.5t92 -31.5q10 -2 23 -2l2 -28l-29 2q-120 10 -139 10 h-68q-19 0 -139 -10l-29 -2l3 28q12 0 22 2q72 7 92.5 31.5t20.5 89.5v695h-441v-695q0 -65 20.5 -89.5t92.5 -31.5q10 -2 23 -2l2 -28l-29 2q-120 10 -139 10h-68q-19 0 -139 -10z" />
<glyph unicode="o" horiz-adv-x="1337" d="M133 438q0 132 68.5 246t192.5 183t276 69q147 0 268.5 -57.5t193.5 -165.5t72 -246q0 -99 -40 -190t-109.5 -159t-170 -108.5t-214.5 -40.5q-148 0 -270 57.5t-194.5 165.5t-72.5 246zM264 453q19 -178 142.5 -299t306.5 -121q175 1 277 123q87 104 88 246q0 25 -3 51 q-21 178 -143 297.5t-305 119.5q-116 0 -204 -56.5t-129 -151.5q-32 -75 -32 -162q0 -23 2 -47z" />
<glyph unicode="p" horiz-adv-x="942" d="M133 -10l2 28q13 0 23 2q72 7 92 31.5t20 89.5v623q0 65 -20 89.5t-92 31.5q-10 2 -23 2l-2 28l29 -2q120 -10 139 -10h14q7 0 33.5 1.5t78 3t118.5 1.5q151 0 240 -66t89 -163q0 -129 -112 -213t-268 -84q-23 0 -43 2v27h26q110 0 188 64.5t78 170.5q0 91 -64 154 t-181 63q-65 0 -82 -9.5t-17 -53.5v-660q0 -65 20.5 -89.5t92.5 -31.5q10 -2 23 -2l2 -28l-29 2q-120 10 -139 10h-68q-19 0 -139 -10z" />
<glyph unicode="q" horiz-adv-x="1337" d="M133 438q0 132 68.5 246t192.5 183t276 69q147 0 268.5 -57.5t193.5 -165.5t72 -246q0 -162 -99 -292t-263 -181q28 -15 109 -60.5t121.5 -67t116.5 -60t129.5 -58.5t122.5 -43t133.5 -33t127.5 -10q85 0 148.5 20t125.5 60q-9 -46 -94.5 -95.5t-204.5 -49.5 q-118 0 -266 36.5t-274 87t-243 107t-181.5 93t-81.5 48.5q-99 5 -188.5 39.5t-158.5 93t-110 145.5t-41 191zM248 453q19 -178 147.5 -299t319.5 -121q183 0 289 123q91 103 91 245q0 26 -3 52q-21 178 -148.5 297.5t-318.5 119.5q-183 0 -289 -121q-91 -103 -91 -244 q0 -26 3 -52z" />
<glyph unicode="r" horiz-adv-x="1054" d="M133 -10l2 28q13 0 23 2q72 7 92 31.5t20 89.5v623q0 65 -20 89.5t-92 31.5q-10 2 -23 2l-2 28l29 -2q120 -10 139 -10h14q7 0 33.5 1.5t78 3t118.5 1.5q151 0 240 -66t89 -163q0 -94 -58.5 -161.5t-135.5 -98.5q31 -22 88.5 -81.5t122 -126.5t138.5 -136.5t161.5 -129 t169.5 -87.5q62 -23 140 -23h6q81 1 143 27q-12 -30 -75.5 -52t-150.5 -22q-91 0 -191 38t-182.5 95t-165.5 128.5t-140 131.5t-106 112.5t-63 63.5q-13 13 -47 25h-129v-242q0 -65 20.5 -89.5t92.5 -31.5q10 -2 23 -2l2 -28l-29 2q-120 10 -139 10h-68q-19 0 -139 -10z M399 428h181q74 26 118.5 82.5t44.5 136.5q0 91 -64 154t-181 63q-65 0 -82 -9.5t-17 -53.5v-373z" />
<glyph unicode="s" horiz-adv-x="813" d="M117 227h28q25 -106 80.5 -156.5t151.5 -50.5q91 0 150 46t59 127q0 40 -13.5 71t-47.5 61t-72.5 53.5t-108.5 61.5q-98 55 -155.5 116t-57.5 138q0 113 72.5 177.5t195.5 64.5q56 0 119 -25.5t109 -25.5l26 -148h-24q-61 150 -238 150q-67 0 -111 -43t-44 -107 q0 -14 2.5 -27t9.5 -25.5t13 -21.5t19.5 -20t21.5 -18t26.5 -18.5t27.5 -16.5t31 -17.5t31 -17.5q49 -27 75.5 -42.5t65.5 -41t60 -47.5t42.5 -51.5t31 -63.5t9.5 -73q0 -105 -92.5 -186t-232.5 -81q-52 0 -98 12.5t-87 33t-42 20.5z" />
<glyph unicode="t" horiz-adv-x="933" d="M14 743l80 211h35q-9 -33 1 -42t54 -9h219v115q0 65 -20 89.5t-92 31.5q-10 2 -23 2l-2 28l29 -2q120 -10 139 -10h68q19 0 139 10l29 2l-2 -28q-13 0 -23 -2q-72 -7 -92.5 -31.5t-20.5 -89.5v-115h238q41 0 65.5 17t53.5 75h31l-82 -211h-33q9 34 -1 43t-54 9h-218v-695 q0 -65 20.5 -89.5t92.5 -31.5q10 -2 23 -2l2 -28l-29 2q-120 10 -139 10h-68q-19 0 -139 -10l-29 -2l2 28q13 0 23 2q72 7 92 31.5t20 89.5v695h-237q-43 0 -68 -17.5t-53 -75.5h-31z" />
<glyph unicode="u" d="M72 915l28 -2q120 -10 140 -10h73q20 0 140 10l28 2l-2 -28q-12 0 -22 -2q-72 -7 -92.5 -31.5t-20.5 -89.5v-12q4 -311 70.5 -495t175.5 -245q109 61 175 246t69 498v8q0 65 -20.5 89.5t-92.5 31.5q-10 2 -23 2l-2 28l29 -2q120 -10 139 -10h74q19 0 139 10l29 2l-2 -28 q-13 0 -23 -2q-72 -7 -92 -31.5t-20 -89.5v-8q-3 -265 -97.5 -475t-281.5 -320q-188 109 -282 317t-99 474v12q0 65 -20.5 89.5t-92.5 31.5q-10 2 -22 2z" />
<glyph unicode="v" horiz-adv-x="1036" d="M20 913l27 -4q79 -6 143 -6h74q66 0 142 6l28 4l-4 -32q-14 0 -20 -2q-48 -5 -79 -32q-19 -17 -19 -39q0 -14 7 -30l248 -567l224 573q6 17 6 31q0 55 -101 64q-6 2 -20 2l-2 32l26 -4q85 -6 111 -6h6h55q16 0 115 6l29 4l-4 -32q-15 0 -21 -2q-54 -5 -80 -26.5 t-53 -88.5l-311 -778h-23l-346 792q-24 54 -53.5 75t-81.5 26q-6 2 -20 2z" />
<glyph unicode="w" horiz-adv-x="1679" d="M72 915l28 -2q120 -10 140 -10h73q20 0 140 10l28 2l-2 -28q-12 0 -22 -2q-72 -7 -92.5 -31.5t-20.5 -89.5v-12q4 -322 57.5 -502t157.5 -238q104 58 157 239t56 505v8q0 65 -20.5 89.5t-92.5 31.5q-10 2 -22 2l-2 28l29 -2q120 -10 139 -10h74q19 0 139 10l28 2l-2 -28 q-12 0 -22 -2q-72 -7 -92.5 -31.5t-20.5 -89.5v-12q4 -322 57.5 -502t157.5 -238q104 58 157 239t56 505v8q0 65 -20 89.5t-92 31.5q-10 2 -23 2l-2 28l29 -2q120 -10 139 -10h74q19 0 139 10l29 2l-2 -28q-13 0 -23 -2q-72 -7 -92.5 -31.5t-20.5 -89.5v-8 q-7 -594 -348 -795q-197 114 -282 358q-84 -242 -281 -358q-339 197 -350 791v12q0 65 -20.5 89.5t-92.5 31.5q-10 2 -22 2z" />
<glyph unicode="x" horiz-adv-x="1101" d="M25 -10l2 28q12 0 22 2q47 5 85.5 25t59 40t50.5 56l243 301l-213 287q-32 43 -45 59t-40 43t-55 38.5t-64 15.5q-10 2 -23 2l-2 28l29 -2q120 -10 139 -10h84q19 0 139 10l29 2l-2 -28q-13 0 -23 -2q-36 -4 -53.5 -14t-15.5 -27.5t11.5 -35t29.5 -44.5l159 -217l177 217 q40 47 40 77q0 38 -67 44q-10 2 -23 2l-2 28l29 -2q120 -10 139 -10h27q19 0 139 10l29 2l-2 -28q-13 0 -23 -2q-47 -5 -86.5 -25.5t-61 -41.5t-48.5 -54l-224 -277l256 -346q38 -51 81.5 -82.5t111.5 -38.5q10 -2 22 -2l2 -28l-28 2q-120 10 -139 10h-68q-34 0 -154 -10 l-28 -2l2 28q12 0 22 2q21 2 34 7.5t19.5 12t6.5 17t-2.5 19t-10.5 22t-13.5 21.5t-16.5 22l-181 242l-196 -242q-20 -25 -30.5 -43.5t-11.5 -35.5t16.5 -27.5t53.5 -14.5q10 -2 23 -2l2 -28l-29 2q-120 10 -139 10h-26q-20 0 -140 -10z" />
<glyph unicode="y" horiz-adv-x="1036" d="M0 915l29 -2q120 -10 139 -10h65q34 0 154 10l29 2l-2 -28q-13 0 -23 -2q-33 -3 -47.5 -13t-11.5 -26.5t11 -31t23 -37.5q6 -9 9 -13l200 -299l193 299q22 34 26 57.5t-16.5 41t-68.5 22.5q-10 2 -23 2l-2 28l29 -2q120 -10 139 -10h16q20 0 140 10l28 2l-2 -28 q-12 0 -22 -2q-36 -4 -62.5 -14t-47.5 -30.5t-31 -33.5t-29 -43l-240 -371v-252q0 -65 20.5 -89.5t92.5 -31.5q10 -2 22 -2l2 -28l-28 2q-120 10 -140 10h-67q-19 0 -139 -10l-29 -2l2 28q12 0 22 2q72 7 92.5 31.5t20.5 89.5v242l-256 381q-73 109 -192 121q-10 2 -23 2z " />
<glyph unicode="z" horiz-adv-x="983" d="M102 0v39l299 426h-239l57 59h225l218 312h-351q-37 0 -62.5 -25t-55.5 -88h-29l78 231h37q-10 -34 -1 -42.5t54 -8.5h497v-37l-239 -342h262l-55 -59h-250l-279 -397h465q37 0 62 24.5t55 87.5h33l-82 -231h-33q9 34 -0.5 42.5t-54.5 8.5h-611z" />
<glyph unicode="{" horiz-adv-x="962" d="M205 657v39q108 20 168.5 77t60.5 138q0 39 -23.5 147t-23.5 159q0 148 105.5 256.5t269.5 130.5l2 -35q-114 -28 -173 -91t-59 -155v-1292q0 -92 59 -155t173 -91l-2 -35q-164 22 -269.5 130.5t-105.5 256.5q0 51 23.5 158.5t23.5 146.5q0 81 -60.5 138t-168.5 77z" />
<glyph unicode="|" horiz-adv-x="1044" d="M467 -410v2048h111v-2048h-111z" />
<glyph unicode="}" horiz-adv-x="962" d="M199 -215q114 28 172.5 90.5t58.5 155.5v1292q0 93 -58.5 155.5t-172.5 90.5l2 35q164 -22 269 -130.5t105 -256.5q0 -51 -23.5 -159t-23.5 -147q0 -81 61 -138t169 -77v-39q-108 -20 -169 -77t-61 -138q0 -39 23.5 -146.5t23.5 -158.5q0 -148 -105 -256.5t-269 -130.5z " />
<glyph unicode="~" horiz-adv-x="1110" d="M47 477q1 135 82 228.5t195 93.5q61 0 119.5 -21t166.5 -82q146 -80 221 -80t124 49t59 136h49q-5 -138 -81.5 -231t-186.5 -93q-63 0 -130 23.5t-180 85.5q-148 80 -213 80q-73 0 -123.5 -53t-56.5 -136h-45z" />
<glyph horiz-adv-x="960" d="M158 438q0 132 41.5 246t116 183t165.5 69q135 0 228.5 -130.5t93.5 -338.5q0 -132 -41 -246t-115.5 -183t-165.5 -69q-137 0 -230 130.5t-93 338.5zM270 453q13 -179 76 -299.5t158 -120.5q90 0 141.5 122t42.5 298q-9 178 -71.5 297.5t-157.5 119.5q-60 0 -105.5 -56.5 t-67 -151.5t-16.5 -209z" />
<glyph horiz-adv-x="1024" d="M-23 -301q0 37 23 63.5t57 26.5q26 0 46 -18t20 -41q0 -14 -14 -37q-9 -18 -9 -23q0 -18 27 -18q52 0 90 73t78 232l225 887h-213v65h230l51 205q42 168 118.5 255t174.5 87q132 0 147 -115h66v-38h-176q0 104 -54 104q-44 0 -68.5 -47t-45.5 -160l-54 -291h262v-65h-274 l-25 -127q-31 -167 -68 -317t-89.5 -302t-110.5 -261.5t-133 -178t-156 -68.5q-54 0 -89.5 31t-35.5 78z" />
<glyph horiz-adv-x="962" d="M143 61v17q42 15 76 49.5t49 75.5h17q15 -42 49.5 -76t75.5 -49v-17q-25 -21 -86 -144t-101 -155l-22 17q28 40 42 79t12.5 78t-29.5 72t-83 53zM553 61v17q42 15 76 49.5t49 75.5h16q15 -42 49.5 -76t75.5 -49v-17q-25 -21 -85.5 -144t-100.5 -155l-23 17q28 40 42 79 t13 78t-29 72t-83 53z" />
<glyph unicode="&#x85;" horiz-adv-x="1843" d="M143 61v17q42 15 76 49.5t49 75.5h17q15 -42 49.5 -76t75.5 -49v-17q-69 -25 -125 -124h-17q-18 42 -51 76t-74 48zM758 61v17q42 15 76 49.5t49 75.5h16q15 -42 49.5 -76t75.5 -49v-17q-69 -25 -125 -124h-16q-18 42 -51 76t-74 48zM1372 61v17q42 15 76 49.5t49 75.5 h16q15 -42 49.5 -76t75.5 -49v-17q-69 -25 -125 -124h-16q-18 42 -51 76t-74 48z" />
<glyph horiz-adv-x="978" d="M152 649l2 29q10 120 10 160v36q0 40 -10 160l-2 29l26 -2q0 -13 2 -23q8 -75 34 -104t87 -29h111q-26 249 -56 258v17q42 15 76 49.5t49 75.5h17q15 -42 49.5 -76t75.5 -49v-17q-28 -9 -54 -258h109q61 0 87 29t34 104q2 10 2 23l26 2l-2 -29q-10 -120 -10 -160v-36 q0 -40 10 -160l2 -29l-26 2q0 13 -2 23q-8 75 -34 104t-87 29h-119q-40 -433 -61 -1100h-17q-22 698 -59 1100h-121q-61 0 -87 -29t-34 -104q-2 -10 -2 -23z" />
<glyph horiz-adv-x="843" d="M86 657l2 29q10 120 10 139v80h662l-219 -442q-114 -222 -180.5 -321t-133.5 -150q-38 -32 -51.5 -20.5t23.5 51.5q46 48 98.5 145.5t144.5 325.5l123 301h-327q-65 0 -89.5 -20.5t-31.5 -92.5q-2 -10 -2 -23z" />
<glyph horiz-adv-x="681" d="M59 936l189 330h184l191 -330h-31l-250 231l-252 -231h-31z" />
<glyph horiz-adv-x="2224" d="M156 1001q0 123 89.5 213.5t219.5 90.5t219.5 -80t89.5 -207q0 -125 -89 -215t-220 -90q-130 0 -219.5 80t-89.5 208zM233 -55l996 1394h84l-996 -1394h-84zM281 1010q11 -109 66 -180.5t138 -71.5q80 0 125.5 73t36.5 179q-8 106 -62.5 176.5t-138.5 70.5 q-80 0 -126.5 -71t-38.5 -176zM770 258q0 123 89.5 213t219.5 90t220 -80.5t90 -206.5q0 -125 -89 -215t-221 -90q-130 0 -219.5 80.5t-89.5 208.5zM895 266q11 -108 66 -180t139 -72q80 0 125.5 73t36.5 179q-8 106 -62.5 177t-138.5 71q-80 0 -127 -72t-39 -176zM1487 258 q0 123 89.5 213t219.5 90t219.5 -80t89.5 -207q0 -125 -89 -215t-220 -90q-130 0 -219.5 80.5t-89.5 208.5zM1612 266q11 -108 66 -180t139 -72q80 0 125 73t36 179q-8 106 -62 177t-138 71q-80 0 -127 -72t-39 -176z" />
<glyph horiz-adv-x="1085" />
<glyph horiz-adv-x="901" d="M59 57l21 15q82 69 86 73l39 39q11 10 38 40t40 44l16 23l20 -23q-5 -7 -9 -11.5t-5 -6.5q-31 -37 -31.5 -63.5t19.5 -57.5q21 -45 69 -78t109 -33q82 0 129 70.5t39 171.5q-9 96 -70 155.5t-143 59.5q-12 0 -26 -3.5t-22 -7.5l-7 -3l-6 10q105 87 167 164.5t86 159.5 h-249q-65 0 -89.5 -20.5t-31.5 -92.5q-2 -10 -2 -23l-29 -2l2 29q10 120 10 139v49q0 20 -10 140l-2 28l29 -2q0 -12 2 -22q7 -72 31.5 -92.5t89.5 -20.5h356q-22 -99 -72 -191.5t-118 -160.5q98 -25 159.5 -103t61.5 -180q0 -124 -88 -212.5t-219 -88.5q-134 0 -230 86 q-27 25 -54.5 24.5t-66.5 -30.5q-2 -2 -18 -10z" />
<glyph horiz-adv-x="2121" d="M164 616q0 137 55.5 263t151.5 220t234 150t294 56q104 0 207 -25q126 -8 145 -8h639l39 -221h-28q-10 38 -17 59.5t-18 40t-20 26.5t-29 14t-39 7t-54 2l-364 4v-467h463v-65h-463v-479q0 -85 15 -102t89 -17h219q77 0 120.5 15.5t71.5 46t73 104.5l34 4 q-26 -47 -42.5 -86.5t-22 -58.5t-13.5 -55t-12 -52q-196 8 -321 10h-320l-161 -10q-97 -23 -191 -23q-151 0 -286 47t-234 130t-157 205t-58 265zM305 637q13 -125 66 -235.5t136.5 -193t201.5 -130t254 -47.5q140 0 251 57q7 29 7 62v974q-167 119 -385 119 q-170 0 -298.5 -81.5t-189 -220t-43.5 -304.5z" />
<glyph horiz-adv-x="1331" />
<glyph horiz-adv-x="552" d="M143 1163v17q41 15 75.5 49t49.5 76h17q15 -41 49 -75.5t76 -49.5v-17q-55 -20 -83 -53t-29.5 -72t12.5 -78t42 -79l-22 -17q-40 32 -101 155t-86 144z" />
<glyph horiz-adv-x="552" d="M143 1163v17q42 15 76 49.5t49 75.5h17q15 -42 49.5 -76t75.5 -49v-17q-25 -21 -86 -144t-101 -155l-22 17q28 40 42 79t12.5 78t-29.5 72t-83 53z" />
<glyph horiz-adv-x="962" d="M143 1163v17q41 15 75.5 49t49.5 76h17q15 -41 49 -75.5t76 -49.5v-17q-55 -20 -83 -53t-29.5 -72t12.5 -78t42 -79l-22 -17q-40 32 -101 155t-86 144zM553 1163v17q41 15 75.5 49t49.5 76h16q15 -41 49 -75.5t76 -49.5v-17q-55 -20 -83 -53t-29 -72t13 -78t42 -79 l-23 -17q-40 32 -100.5 155t-85.5 144z" />
<glyph horiz-adv-x="962" d="M143 1163v17q42 15 76 49.5t49 75.5h17q15 -42 49.5 -76t75.5 -49v-17q-25 -21 -86 -144t-101 -155l-22 17q28 40 42 79t12.5 78t-29.5 72t-83 53zM553 1163v17q42 15 76 49.5t49 75.5h16q15 -42 49.5 -76t75.5 -49v-17q-25 -21 -85.5 -144t-100.5 -155l-23 17 q28 40 42 79t13 78t-29 72t-83 53z" />
<glyph horiz-adv-x="724" d="M111 637q0 104 74 178t177 74t177.5 -74t74.5 -178t-74.5 -177t-177.5 -73t-177 73t-74 177z" />
<glyph horiz-adv-x="1079" d="M0 582v94h1079v-94h-1079z" />
<glyph horiz-adv-x="1693" d="M0 582v94h1694v-94h-1694z" />
<glyph horiz-adv-x="681" d="M63 956q15 199 166 199q36 0 66.5 -13.5t83.5 -47.5q26 -17 39 -25t32.5 -15t36.5 -7q36 0 64 27.5t29 80.5h41q-1 -56 -17.5 -97t-36.5 -59.5t-47 -29.5t-39 -12t-24 -1q-40 0 -70 13t-100 55q-44 26 -58.5 32.5t-35.5 6.5q-35 0 -62.5 -27.5t-26.5 -79.5h-41z" />
<glyph horiz-adv-x="2088" d="M74 1133l71 188h33q-9 -29 0.5 -37t48.5 -8h500q39 0 61 15t48 67h26l-74 -189h-28q7 29 -2 37t-49 8h-209v-501q0 -59 18 -81t82 -28q10 -2 21 -2l2 -27l-25 3q-110 10 -127 10h-59q-20 0 -125 -10l-27 -3l2 27q11 0 21 2q64 6 82 28t18 81v501h-172q-40 0 -62 -14.5 t-47 -66.5h-28zM903 575l2 27q13 0 21 2q65 6 83.5 28t18.5 81v438q0 58 -18.5 80t-83.5 29q-8 2 -21 2l-2 24l27 -2q83 -5 125 -16l372 -107l373 107q30 10 127 16l25 2l-2 -24q-11 0 -21 -2q-65 -7 -82.5 -28.5t-17.5 -80.5v-438q0 -59 18 -81t82 -28q10 -2 21 -2l2 -27 l-25 3q-110 10 -127 10h-88v592l-225 -70v-397q0 -59 18 -81t82 -28h6l2 -29l-12 3q-105 10 -125 10h-61q-15 0 -125 -10l-10 -3l2 29v-1q1 0 4 1q66 6 84 28t18 81v397l-227 70v-592h-88q-18 0 -56 -4t-69 -6z" />
<glyph horiz-adv-x="813" />
<glyph horiz-adv-x="962" d="M80 242l457 661h59q19 0 139 10l29 2l-2 -28q-13 0 -23 -2q-72 -7 -92 -31.5t-20 -89.5v-440h2q65 0 89.5 20t31.5 92q2 10 2 23l28 2l-2 -29q-10 -120 -10 -139v-21q0 -19 10 -139l2 -29l-28 2q0 13 -2 23q-7 72 -31.5 92.5t-89.5 20.5h-2v-101q0 -65 20 -89.5t92 -31.5 q10 -2 23 -2l2 -28l-29 2q-120 10 -139 10h-68q-19 0 -139 -10l-29 -2l2 28q13 0 23 2q72 7 92.5 31.5t20.5 89.5v101h-418zM217 324h281v403z" />
<glyph horiz-adv-x="1589" d="M133 438q0 132 68.5 246t192.5 183t276 69q101 0 186 -27q64 -6 96 -6h475l35 -168l-32 2q-19 70 -38.5 85.5t-84.5 17.5l-256 4v-316h333v-57h-333v-330q0 -56 10 -67t59 -11h158q53 0 84 11.5t50.5 33t49.5 72.5l45 4q-15 -25 -26 -46.5t-17.5 -34.5t-12.5 -31 t-8 -24.5t-7 -26.5t-6 -25q-144 4 -234 6h-244q-42 0 -110 -8q-83 -25 -172 -25q-148 0 -270 57.5t-194.5 165.5t-72.5 246zM264 453q19 -178 142.5 -299t306.5 -121q120 0 205 57q4 14 4 51v619q-119 110 -295 110q-116 0 -204 -56.5t-129 -151.5t-30 -209z" />
<glyph horiz-adv-x="983" />
<glyph horiz-adv-x="1386" d="M20 1284l29 -2q120 -10 180 -10h78q60 0 180 10l29 2l-2 -27q-12 0 -22 -2q-26 -2 -35.5 -3.5t-32.5 -5.5t-31.5 -9.5t-18.5 -15t-7.5 -24.5t14.5 -34l346 -553l322 516q18 28 20 50t-7 35t-30.5 22.5t-43 14t-52.5 7.5q-10 2 -23 2l-2 27l29 -2q120 -10 160 -10h78 q39 0 159 10l29 2l-2 -27q-13 0 -23 -2q-76 -8 -123.5 -45.5t-113.5 -142.5l-332 -528v-400q0 -61 29 -87t104 -34q10 -2 23 -2l2 -26l-29 2q-120 10 -160 10h-77q-40 0 -160 -10l-29 -2l2 26q13 0 23 2q75 8 104 34t29 87v361l-373 594q-63 100 -100 126.5t-115 34.5 q-10 2 -22 2zM410 1561v14q37 15 68 46.5t46 68.5h15q15 -37 46 -68.5t68 -46.5v-14q-37 -15 -68 -46.5t-46 -68.5h-15q-15 37 -46 68.5t-68 46.5zM791 1561v14q37 15 68 46.5t46 68.5h15q15 -37 46 -68.5t68 -46.5v-14q-37 -15 -68 -46.5t-46 -68.5h-15q-15 37 -46 68.5 t-68 46.5z" />
<glyph unicode="&#xa1;" horiz-adv-x="614" d="M143 -156q37 13 81 393.5t44 481.5h17q0 -99 45 -480.5t80 -394.5v-16q-41 -15 -75.5 -49t-49.5 -76h-17q-15 41 -49 75.5t-76 49.5v16zM143 930v16q41 14 74 48.5t51 76.5h17q57 -100 125 -125v-16q-41 -15 -75.5 -49t-49.5 -76h-17q-15 41 -49 75.5t-76 49.5z" />
<glyph unicode="&#xa2;" horiz-adv-x="1208" d="M174 438q0 132 68.5 246t192.5 183t276 69q52 0 100 -10l96 198h56l-103 -211q21 -7 51 -18.5t44 -16.5t31.5 -5.5t31.5 8.5l14 -201l-28 2q-42 140 -168 180l-367 -747q114 -90 260 -90q131 0 202 49t85 180h37l-25 -199q-47 -33 -141 -59.5t-176 -26.5q-155 0 -283 64 l-119 -244h-53l131 268q-100 62 -156.5 160t-56.5 221zM313 438q9 -171 119 -288l352 724q-51 7 -92 7q-112 0 -201.5 -61.5t-136 -163t-41.5 -218.5z" />
<glyph unicode="&#xa3;" horiz-adv-x="1269" d="M184 631v65h205l21 144q5 40 11.5 76t20 83.5t31 86.5t45 79t61 67.5t81 44.5t102.5 17q40 0 102 -10q23 -4 58.5 -17.5t59.5 -21t64 -2t84 32.5l11 -21q-62 -34 -90.5 -57t-77.5 -80q-123 88 -215 88q-25 0 -47.5 -7.5t-39.5 -18.5t-31.5 -31.5t-24.5 -36.5t-19.5 -45 t-14.5 -46t-11 -50t-8 -46.5t-6 -46t-5 -38.5l-19 -144h304v-65h-314l-41 -316q-15 -92 -6.5 -142.5t26 -67.5t50.5 -17h219q77 0 120 15.5t70.5 46t73.5 104.5l35 4q-26 -47 -42.5 -86.5t-22 -58.5t-13.5 -55t-12 -52l-621 19q-61 1 -86.5 -27.5t-31.5 -103.5 q-1 -4 -2 -11.5t-2 -11.5l-23 -2v29q2 32 6 84.5t4 74.5v21q52 0 77 58t40 179l41 316h-197z" />
<glyph unicode="&#xa4;" horiz-adv-x="935" d="M135 0l8 35q40 48 112.5 123.5t126.5 134t109 128t85 137.5t30 130q0 89 -50.5 145t-135.5 56q-67 0 -112.5 -44t-51.5 -106q-9 -89 90 -106q6 -2 21 -2l4 -31q-171 13 -226 23q0 78 26.5 140t70 98.5t95 55.5t105.5 19q126 0 209.5 -64t83.5 -176q0 -56 -30.5 -120 t-85.5 -129t-106.5 -117.5t-121 -119t-100.5 -99.5h354q65 0 89.5 20t31.5 92q2 10 2 23l29 2l-2 -29q-11 -132 -11 -139v-49q0 -8 11 -140l2 -28l-29 2q0 12 -2 22q-7 72 -31.5 92.5t-89.5 20.5h-510z" />
<glyph unicode="&#xa5;" horiz-adv-x="1386" d="M20 1284l29 -2q120 -10 180 -10h78q60 0 180 10l29 2l-2 -27q-12 0 -22 -2q-26 -2 -35.5 -3.5t-32.5 -5.5t-31.5 -9.5t-18.5 -15t-7.5 -24.5t14.5 -34l160 -254h372l136 217q18 28 20 50t-7 35t-30.5 22.5t-43 14t-52.5 7.5q-10 2 -23 2l-2 27l29 -2q120 -10 160 -10h78 q39 0 159 10l29 2l-2 -27q-13 0 -23 -2q-76 -8 -123.5 -45.5t-113.5 -142.5l-98 -158h237v-108h-307l-121 -193h428v-108h-471v-361q0 -61 29 -87t104 -34q10 -2 23 -2l2 -26l-29 2q-120 10 -160 10h-77q-40 0 -160 -10l-29 -2l2 26q13 0 23 2q75 8 104 34t29 87v361h-469 v108h401l-121 193h-280v108h213l-117 185q-63 100 -100 126.5t-115 34.5q-10 2 -22 2zM608 801l119 -191l119 191h-238z" />
<glyph unicode="&#xa6;" horiz-adv-x="1044" d="M467 -35v721h111v-721h-111zM467 944v721h111v-721h-111z" />
<glyph unicode="&#xa7;" horiz-adv-x="907" d="M166 455q18 190 119.5 322.5t234.5 178.5q29 10 39 -2q11 -15 -27 -35l-2 -1q-201 -111 -237 -461q35 43 88.5 67.5t110.5 24.5q119 0 196.5 -87.5t77.5 -211.5q0 -125 -79 -203t-195 -78q-164 0 -255.5 129t-70.5 357zM289 260q-8 -107 40 -180.5t130 -73.5 q86 0 143 72.5t66 181.5q8 107 -39.5 180.5t-130.5 73.5q-85 0 -142.5 -73t-66.5 -181z" />
<glyph unicode="&#xa8;" horiz-adv-x="679" d="M20 1051v14q37 15 68.5 46.5t46.5 68.5h15q15 -37 46 -68.5t68 -46.5v-14q-37 -15 -68 -46.5t-46 -68.5h-15q-15 37 -46.5 68.5t-68.5 46.5zM401 1051v14q37 15 68.5 46.5t46.5 68.5h14q15 -37 46.5 -68.5t68.5 -46.5v-14q-37 -15 -68.5 -46.5t-46.5 -68.5h-14 q-15 37 -46.5 68.5t-68.5 46.5z" />
<glyph unicode="&#xa9;" horiz-adv-x="1540" d="M102 637q0 182 89.5 335.5t243 243t335.5 89.5t335.5 -89.5t243 -243t89.5 -335.5t-89.5 -335.5t-243 -243t-335.5 -89.5t-335.5 89.5t-243 243t-89.5 335.5zM158 637q0 -165 82.5 -306t223.5 -223.5t306 -82.5t306 82.5t223.5 223.5t82.5 306t-82.5 306t-223.5 223.5 t-306 82.5t-306 -82.5t-223.5 -223.5t-82.5 -306zM334 637q0 183 138 314.5t345 131.5q56 0 107 -12.5t75 -24.5t53 -18t42 6l14 -180l-27 2q-31 99 -99.5 138.5t-180.5 39.5q-152 0 -250 -118t-90 -279q7 -165 115 -269t258 -104q119 0 182 44t76 163h34l-22 -180 q-42 -29 -127 -53.5t-160 -24.5q-204 0 -343.5 118t-139.5 306z" />
<glyph unicode="&#xaa;" horiz-adv-x="0" />
<glyph unicode="&#xab;" horiz-adv-x="929" d="M172 510l301 381h37l-195 -381l195 -377h-37zM461 510l239 346h35l-129 -346l129 -340h-35z" />
<glyph unicode="&#xac;" horiz-adv-x="1366" d="M141 850v108h1082v-596h-107v488h-975z" />
<glyph unicode="&#xad;" horiz-adv-x="833" d="M82 582v94h670v-94h-670z" />
<glyph unicode="&#xae;" horiz-adv-x="1540" d="M102 637q0 182 89.5 335.5t243 243t335.5 89.5t335.5 -89.5t243 -243t89.5 -335.5t-89.5 -335.5t-243 -243t-335.5 -89.5t-335.5 89.5t-243 243t-89.5 335.5zM158 637q0 -165 82.5 -306t223.5 -223.5t306 -82.5q238 0 418 165q-16 8 -68 50q-109 89 -387 340h-69v-224 q0 -58 18.5 -80t83.5 -28q8 -2 20 -2l2 -25h-26q-105 10 -125 10h-62q-14 0 -124 -10h-27l2 25q12 0 20 2q65 6 84 28t19 80v562q0 58 -19 79.5t-84 28.5q-8 2 -20 2l-2 25l27 -2q29 -2 67 -5.5t57 -3.5h15q5 0 29 2t70.5 3.5t105.5 1.5q135 0 216 -59.5t81 -147.5 q0 -84 -54 -148t-143 -96q177 -207 272 -326q3 -4 13.5 -16.5t18 -23t11.5 -19.5q81 85 126.5 195t45.5 229q0 165 -82.5 306t-223.5 223.5t-306 82.5t-306 -82.5t-223.5 -223.5t-82.5 -306zM664 621h114q85 15 141 63.5t56 126.5q0 82 -58 139.5t-163 57.5q-58 0 -74 -9 t-16 -49v-329z" />
<glyph unicode="&#xaf;" horiz-adv-x="681" d="M23 981v129h636v-129h-636z" />
<glyph unicode="&#xb0;" horiz-adv-x="909" d="M164 236q0 83 45.5 153t122.5 105q-146 99 -146 211q0 106 81.5 169.5t187.5 63.5q111 0 187.5 -62t76.5 -153q0 -55 -40 -108.5t-95 -77.5q-31 -17 -37 -4q-5 9 12 24q68 64 68 158q0 74 -47 124t-123 50q-79 0 -121.5 -42t-42.5 -102q0 -23 6 -43t20.5 -38t26.5 -31 t38.5 -30.5t41 -26t47.5 -27.5q57 -32 90.5 -52.5t76 -53t65 -61.5t39 -70t16.5 -87q0 -96 -89 -176t-210 -80q-74 0 -133 25.5t-93.5 66t-52.5 86t-18 89.5zM248 244q0 -95 64 -156t143 -61q75 0 130.5 44.5t55.5 114.5q0 80 -56.5 139t-187.5 130q-3 2 -3.5 2.5t-2.5 1.5 q-63 -22 -103 -80.5t-40 -134.5z" />
<glyph unicode="&#xb1;" horiz-adv-x="1366" d="M141 0v109h1082v-109h-1082zM141 768v106h486v488h108v-488h488v-106h-488v-483h-108v483h-486z" />
<glyph unicode="&#xb2;" horiz-adv-x="841" d="M121 463l8 31q36 43 101.5 111t114 120.5t97.5 115t76 123.5t27 117q0 81 -45.5 132t-122.5 51q-60 0 -101 -40t-47 -96q-6 -82 82 -96q6 -2 19 -2l4 -26q-154 10 -203 20q0 70 23.5 125.5t62.5 88.5t85 50t95 17q113 0 189 -58t76 -157q0 -51 -27 -108t-77.5 -116.5 t-95.5 -106t-109 -107.5t-91 -89h318q59 0 81 18t29 83v20l27 2l-2 -27q-8 -84 -8 -124v-46q0 -36 8 -124l2 -25l-27 2v18q-7 66 -29 84.5t-81 18.5h-459z" />
<glyph unicode="&#xb3;" horiz-adv-x="811" d="M53 514l19 12q19 17 45 39t33 29l34 35q10 9 34.5 36.5t35.5 39.5l14 20l19 -20q-4 -8 -13 -17q-20 -24 -25 -42.5t-1 -30t16 -35.5q16 -40 60 -70.5t100 -30.5q73 0 115 63.5t36 153.5q-9 87 -63.5 141t-128.5 54q-11 0 -23.5 -3.5t-19.5 -7.5l-6 -3l-6 10 q187 154 229 291h-225q-59 0 -81 -18.5t-28 -82.5q-2 -10 -2 -20l-26 -2l2 24q10 110 10 127v43q0 20 -10 125l-2 27l26 -2q0 -11 2 -21q6 -64 28 -82t81 -18h321q-41 -182 -172 -317q88 -22 143.5 -92t55.5 -162q0 -111 -79.5 -192t-197.5 -81t-206 78q-24 24 -48.5 23.5 t-60.5 -27.5q-4 -4 -16 -10z" />
<glyph unicode="&#xb4;" horiz-adv-x="681" d="M236 936l104 346h223l-293 -346h-34z" />
<glyph unicode="&#xb5;" horiz-adv-x="1247" d="M94 -303l2 29q13 0 23 2q72 7 92 31t20 89v916q0 65 -20 89.5t-92 31.5q-10 2 -23 2l-2 28l29 -2q120 -10 139 -10h68q19 0 139 10l29 2l-2 -28q-13 0 -23 -2q-72 -7 -92.5 -31.5t-20.5 -89.5v-418q0 -141 67 -208.5t169 -67.5q70 0 139 41t113 104v549q0 65 -20.5 89.5 t-92.5 31.5q-10 2 -22 2l-2 28l28 -2q120 -10 140 -10h67q19 0 139 10l29 2l-2 -28q-12 0 -22 -2q-72 -7 -92.5 -31.5t-20.5 -89.5v-623q0 -65 20.5 -89.5t92.5 -31.5q10 -2 22 -2l2 -28l-29 2q-120 10 -139 10h-98v123q-54 -67 -133 -106t-162 -39q-119 0 -193 49v-181 q0 -65 20.5 -89t92.5 -31q10 -2 23 -2l2 -29l-29 2q-120 10 -139 10h-68q-19 0 -139 -10z" />
<glyph unicode="&#xb6;" horiz-adv-x="1290" d="M123 895q0 157 111 268t268 111h397q40 0 160 10l28 2l-2 -26q-7 0 -22 -3q-75 -8 -104 -33.5t-29 -86.5v-1409q0 -61 29 -87t104 -34q10 -2 22 -2l2 -27l-28 2q-120 10 -160 10h-45v1618h-186v-280h-76v229h-66v-229h-229v-66h229v-227h66v227h76v-862h-76v518h-90 q-157 0 -268 110t-111 267z" />
<glyph unicode="&#xb7;" horiz-adv-x="907" d="M143 651q0 127 79.5 206t195.5 79q164 0 255 -129.5t70 -357.5q-18 -189 -119.5 -322.5t-234.5 -179.5q-27 -12 -38 3t20 33q4 3 8 5q201 108 237 456q-36 -42 -89 -67t-109 -25q-119 0 -197 88t-78 211zM254 643q-8 -100 36.5 -171t121.5 -71q82 0 134.5 69.5 t61.5 172.5q8 100 -37 171t-120 71q-82 0 -135 -69.5t-62 -172.5z" />
<glyph unicode="&#xb8;" horiz-adv-x="681" d="M213 -233l193 243h73l-73 -108q55 -21 88.5 -63.5t33.5 -94.5q0 -72 -55 -122t-139 -50q-44 0 -119 33l18 39q18 -10 51 -17.5t56 -7.5q43 0 76 36t33 75q0 37 -32.5 63.5t-76.5 26.5q-40 0 -84 -27z" />
<glyph unicode="&#xb9;" horiz-adv-x="708" d="M174 453v26q13 0 21 2q65 6 83.5 28t18.5 81v561q0 58 -18.5 80t-83.5 29q-8 2 -21 2v24l25 -2q25 -2 51.5 -4t42.5 -3t31 -1h61q16 0 32 1t42.5 3.5t50.5 3.5l27 2l-2 -24q-11 0 -21 -2q-65 -7 -82.5 -28.5t-17.5 -80.5v-561q0 -59 18 -81t82 -28q10 -2 21 -2l2 -26 l-27 2q-105 10 -125 10h-61q-15 0 -125 -10z" />
<glyph unicode="&#xba;" horiz-adv-x="0" />
<glyph unicode="&#xbb;" horiz-adv-x="929" d="M195 170l129 340l-129 346h36l238 -346l-238 -340h-36zM420 133l194 377l-194 381h37l303 -381l-303 -377h-37z" />
<glyph unicode="&#xbc;" horiz-adv-x="1896" d="M174 453v26q13 0 21 2q65 6 83.5 28t18.5 81v561q0 58 -18.5 80t-83.5 29q-8 2 -21 2v24l25 -2q25 -2 51.5 -4t42.5 -3t31 -1h61q16 0 32 1t42.5 3.5t50.5 3.5l27 2l-2 -24q-11 0 -21 -2q-65 -7 -82.5 -28.5t-17.5 -80.5v-561q0 -59 18 -81t82 -28q10 -2 21 -2l2 -26 l-27 2q-105 10 -125 10h-61q-15 0 -125 -10zM362 -55l996 1394h84l-996 -1394h-84zM1047 217l411 596h53q16 0 32 1t42.5 3.5t50.5 3.5l27 2l-2 -24q-13 0 -21 -2q-65 -7 -83.5 -29t-18.5 -80v-397h2q59 0 81 18.5t28 83.5q2 8 2 21h26l-2 -25q-10 -110 -10 -125v-18 q0 -17 10 -127l2 -25l-26 2q0 11 -2 21q-6 64 -28 82t-81 18h-2v-90q0 -59 18.5 -81t83.5 -28q8 -2 21 -2l2 -26l-27 2q-105 10 -125 10h-61q-20 0 -125 -10l-27 -2l2 26q13 0 21 2q65 6 83.5 28t18.5 81v90h-376zM1169 287h254v362z" />
<glyph unicode="&#xbd;" horiz-adv-x="1966" d="M174 453v26q13 0 21 2q65 6 83.5 28t18.5 81v561q0 58 -18.5 80t-83.5 29q-8 2 -21 2v24l25 -2q25 -2 51.5 -4t42.5 -3t31 -1h61q16 0 32 1t42.5 3.5t50.5 3.5l27 2l-2 -24q-11 0 -21 -2q-65 -7 -82.5 -28.5t-17.5 -80.5v-561q0 -59 18 -81t82 -28q10 -2 21 -2l2 -26 l-27 2q-105 10 -125 10h-61q-15 0 -125 -10zM362 -55l996 1394h84l-996 -1394h-84zM1165 0l9 31q38 45 127 138.5t142.5 153.5t99.5 143t46 152q0 81 -45.5 132t-122.5 51q-60 0 -100.5 -39.5t-46.5 -95.5q-6 -83 82 -97q6 -2 18 -2l4 -26q-153 10 -202 20q0 70 23.5 125.5 t62.5 88.5t85 50t95 17q113 0 188.5 -58t75.5 -157q0 -51 -27 -108t-77 -116.5t-95 -106t-109 -107.5t-91 -89h317q59 0 81.5 18t29.5 83v20l26 2l-2 -26q-8 -84 -8 -125v-45q0 -37 8 -125l2 -25l-26 2v19q-7 66 -29.5 84t-81.5 18h-459z" />
<glyph unicode="&#xbe;" horiz-adv-x="1978" d="M94 514l19 12q18 16 43 38t34 30l35 35q10 9 34.5 36.5t35.5 39.5l14 20l19 -20q-4 -8 -13 -17q-20 -24 -25 -42.5t-1 -30t16 -35.5q16 -40 60 -70.5t100 -30.5q73 0 115 63.5t36 153.5q-9 87 -63.5 141t-128.5 54q-11 0 -23.5 -3.5t-18.5 -7.5l-7 -3l-6 10 q187 154 229 291h-225q-59 0 -81 -18.5t-28 -82.5q-2 -10 -2 -20l-26 -2l2 24q10 110 10 127v43q0 20 -10 125l-2 27l26 -2q0 -11 2 -21q6 -64 28 -82t81 -18h321q-41 -182 -172 -317q88 -22 143.5 -92t55.5 -162q0 -111 -79.5 -192t-197.5 -81t-206 78q-24 24 -48.5 23.5 t-60.5 -27.5q-4 -4 -16 -10zM485 -55l996 1394h84l-996 -1394h-84zM1128 217l412 596h53q16 0 32 1t42.5 3.5t50.5 3.5l27 2l-2 -24q-13 0 -21 -2q-65 -7 -83.5 -29t-18.5 -80v-397h2q59 0 81 18.5t28 83.5q2 8 2 21h26l-2 -25q-10 -110 -10 -125v-18q0 -17 10 -127l2 -25 l-26 2q0 11 -2 21q-6 64 -28 82t-81 18h-2v-90q0 -59 18.5 -81t83.5 -28q8 -2 21 -2l2 -26l-27 2q-105 10 -125 10h-61q-20 0 -125 -10l-27 -2l2 26q13 0 21 2q65 6 83.5 28t18.5 81v90h-377zM1251 287h254v362z" />
<glyph unicode="&#xbf;" horiz-adv-x="897" d="M123 66q0 111 91.5 208t221.5 144q78 30 99 52t26 62l21 166h20l35 -327q-161 -9 -261 -98.5t-100 -209.5q0 -74 33 -144t94 -116.5t134 -46.5q52 0 89.5 11t59.5 26.5t38.5 49t24.5 61t19 80.5h23q-6 -91 10 -226q-74 -30 -128 -41.5t-136 -11.5q-181 0 -297.5 99.5 t-116.5 261.5zM459 932v16q68 25 125 125h16q18 -42 51 -76.5t74 -48.5v-16q-42 -15 -76 -49.5t-49 -75.5h-16q-15 42 -49.5 76t-75.5 49z" />
<glyph unicode="&#xc0;" horiz-adv-x="1445" d="M102 -12l2 26q13 0 23 2q75 8 104 34t29 87v35q0 156 12.5 289t44.5 267t83.5 241.5t133 201.5t189.5 158q108 -64 189.5 -158t133 -201.5t83.5 -241.5t44.5 -267t12.5 -289v-35q0 -61 29 -87t104 -34q10 -2 22 -2l2 -26l-28 2q-120 10 -160 10h-78q-39 0 -159 -10 l-29 -2l2 26q12 0 22 2q75 8 104.5 34t29.5 87v29q0 98 -7 221h-634q-7 -126 -7 -221v-29q0 -61 29 -87t104 -34q10 -2 23 -2l2 -26l-29 2q-120 10 -159 10h-78q-40 0 -160 -10zM410 465h626q-53 662 -313 811q-259 -147 -313 -811zM444 1794h224l104 -346h-35z" />
<glyph unicode="&#xc1;" horiz-adv-x="1445" d="M102 -12l2 26q13 0 23 2q75 8 104 34t29 87v35q0 156 12.5 289t44.5 267t83.5 241.5t133 201.5t189.5 158q108 -64 189.5 -158t133 -201.5t83.5 -241.5t44.5 -267t12.5 -289v-35q0 -61 29 -87t104 -34q10 -2 22 -2l2 -26l-28 2q-120 10 -160 10h-78q-39 0 -159 -10 l-29 -2l2 26q12 0 22 2q75 8 104.5 34t29.5 87v29q0 98 -7 221h-634q-7 -126 -7 -221v-29q0 -61 29 -87t104 -34q10 -2 23 -2l2 -26l-29 2q-120 10 -159 10h-78q-40 0 -160 -10zM410 465h626q-53 662 -313 811q-259 -147 -313 -811zM649 1448l105 346h223l-293 -346h-35z " />
<glyph unicode="&#xc2;" horiz-adv-x="1445" d="M102 -12l2 26q13 0 23 2q75 8 104 34t29 87v35q0 156 12.5 289t44.5 267t83.5 241.5t133 201.5t189.5 158q108 -64 189.5 -158t133 -201.5t83.5 -241.5t44.5 -267t12.5 -289v-35q0 -61 29 -87t104 -34q10 -2 22 -2l2 -26l-28 2q-120 10 -160 10h-78q-39 0 -159 -10 l-29 -2l2 26q12 0 22 2q75 8 104.5 34t29.5 87v29q0 98 -7 221h-634q-7 -126 -7 -221v-29q0 -61 29 -87t104 -34q10 -2 23 -2l2 -26l-29 2q-120 10 -159 10h-78q-40 0 -160 -10zM410 465h626q-53 662 -313 811q-259 -147 -313 -811zM444 1450l189 330h184l191 -330h-31 l-250 231l-252 -231h-31z" />
<glyph unicode="&#xc3;" horiz-adv-x="1445" d="M102 -12l2 26q13 0 23 2q75 8 104 34t29 87v35q0 156 12.5 289t44.5 267t83.5 241.5t133 201.5t189.5 158q108 -64 189.5 -158t133 -201.5t83.5 -241.5t44.5 -267t12.5 -289v-35q0 -61 29 -87t104 -34q10 -2 22 -2l2 -26l-28 2q-120 10 -160 10h-78q-39 0 -159 -10 l-29 -2l2 26q12 0 22 2q75 8 104.5 34t29.5 87v29q0 98 -7 221h-634q-7 -126 -7 -221v-29q0 -61 29 -87t104 -34q10 -2 23 -2l2 -26l-29 2q-120 10 -159 10h-78q-40 0 -160 -10zM410 465h626q-53 662 -313 811q-259 -147 -313 -811zM418 1452q15 199 166 199q25 0 50.5 -8.5 t42.5 -18.5t56 -35q71 -47 109 -47q36 0 63.5 28t28.5 81h41q-1 -56 -17.5 -97t-36.5 -59.5t-47 -29.5t-39 -12t-24 -1q-40 0 -70 13t-100 55q-44 26 -58.5 32.5t-35.5 6.5q-35 0 -62 -27t-26 -80h-41z" />
<glyph unicode="&#xc4;" horiz-adv-x="1445" d="M102 -12l2 26q13 0 23 2q75 8 104 34t29 87v35q0 156 12.5 289t44.5 267t83.5 241.5t133 201.5t189.5 158q108 -64 189.5 -158t133 -201.5t83.5 -241.5t44.5 -267t12.5 -289v-35q0 -61 29 -87t104 -34q10 -2 22 -2l2 -26l-28 2q-120 10 -160 10h-78q-39 0 -159 -10 l-29 -2l2 26q12 0 22 2q75 8 104.5 34t29.5 87v29q0 98 -7 221h-634q-7 -126 -7 -221v-29q0 -61 29 -87t104 -34q10 -2 23 -2l2 -26l-29 2q-120 10 -159 10h-78q-40 0 -160 -10zM403 1567v14q37 15 68.5 46.5t46.5 68.5h14q15 -37 46.5 -68.5t68.5 -46.5v-14 q-37 -15 -68.5 -46.5t-46.5 -68.5h-14q-15 37 -46.5 68.5t-68.5 46.5zM410 465h626q-53 662 -313 811q-259 -147 -313 -811zM784 1567v14q37 15 68.5 46.5t46.5 68.5h14q15 -37 46.5 -68.5t68.5 -46.5v-14q-37 -15 -68.5 -46.5t-46.5 -68.5h-14q-15 37 -46.5 68.5 t-68.5 46.5z" />
<glyph unicode="&#xc5;" horiz-adv-x="1445" />
<glyph unicode="&#xc6;" horiz-adv-x="1851" d="M35 37l12 24q13 -4 23 -6q72 -20 108 -5.5t58 71.5l385 1005q20 50 -11 86.5t-92 42.5q-10 2 -22 2l-2 27l28 -2q120 -10 160 -10h711l39 -221h-29q-10 38 -17 59.5t-18 40t-20 26.5t-28.5 14t-38.5 7t-54 2l-457 4l201 -467h473v-65h-445l228 -539q25 -57 80 -57 q143 0 206 31.5t125 132.5l35 4q-26 -47 -42.5 -86.5t-22 -58.5t-13.5 -55t-12 -52q-271 25 -373 -2q-33 -8 -61.5 -20.5t-62 -31.5t-54.5 -28l-26 -12l-9 24q11 4 21 10q67 37 82.5 71t-8.5 93l-80 191h-629l-74 -195q-22 -55 -4.5 -90.5t84.5 -69.5l21 -10l-7 -24l-26 10 q-97 48 -146 67l-16 7q-55 22 -152 47zM408 352h575l-301 713z" />
<glyph unicode="&#xc7;" horiz-adv-x="1505" d="M164 616q0 137 55.5 263t151.5 220t234 150t294 56q72 0 137.5 -12t102.5 -26.5t75.5 -27.5t57.5 -15.5t47 9.5l14 -262h-22q-25 83 -66 139.5t-98.5 88t-123 45t-151.5 13.5q-158 0 -283.5 -88.5t-190.5 -234.5t-58 -316q8 -176 90 -315t212.5 -213t283.5 -74 q90 0 156 15t120 51t86 101.5t43 162.5h35l-33 -272q-58 -43 -187.5 -74t-246.5 -31q-28 0 -86 4l-49 -71q55 -21 89 -63.5t34 -94.5q0 -71 -55.5 -121.5t-139.5 -50.5q-44 0 -119 33l19 39q18 -10 50.5 -17.5t55.5 -7.5q43 0 76 36t33 75q0 37 -32.5 63.5t-76.5 26.5 q-40 0 -84 -27l-43 -26l170 217q-124 21 -229.5 75t-182.5 134.5t-121 189.5t-44 233z" />
<glyph unicode="&#xc8;" horiz-adv-x="1220" d="M164 -10l2 26q12 0 22 2q75 8 104.5 34t29.5 87v996q0 61 -29 86.5t-105 33.5q-10 2 -22 2l-2 27l29 -2q120 -10 159 -10h639l39 -221h-29q-10 38 -17 59.5t-18 40t-20 26.5t-28.5 14t-38.5 7t-54 2l-364 4v-467h463v-65h-463v-479q0 -85 15 -102t89 -17h219 q77 0 120.5 15.5t71.5 46t73 104.5l34 4q-26 -47 -42.5 -86.5t-22 -58.5t-13.5 -55t-12 -52q-196 8 -321 10h-320q-39 0 -159 -10zM354 1794h224l104 -346h-35z" />
<glyph unicode="&#xc9;" horiz-adv-x="1220" d="M164 -10l2 26q12 0 22 2q75 8 104.5 34t29.5 87v996q0 61 -29 86.5t-105 33.5q-10 2 -22 2l-2 27l29 -2q120 -10 159 -10h639l39 -221h-29q-10 38 -17 59.5t-18 40t-20 26.5t-28.5 14t-38.5 7t-54 2l-364 4v-467h463v-65h-463v-479q0 -85 15 -102t89 -17h219 q77 0 120.5 15.5t71.5 46t73 104.5l34 4q-26 -47 -42.5 -86.5t-22 -58.5t-13.5 -55t-12 -52q-196 8 -321 10h-320q-39 0 -159 -10zM569 1448l105 346h223l-293 -346h-35z" />
<glyph unicode="&#xca;" horiz-adv-x="1220" d="M164 -10l2 26q12 0 22 2q75 8 104.5 34t29.5 87v996q0 61 -29 86.5t-105 33.5q-10 2 -22 2l-2 27l29 -2q120 -10 159 -10h639l39 -221h-29q-10 38 -17 59.5t-18 40t-20 26.5t-28.5 14t-38.5 7t-54 2l-364 4v-467h463v-65h-463v-479q0 -85 15 -102t89 -17h219 q77 0 120.5 15.5t71.5 46t73 104.5l34 4q-26 -47 -42.5 -86.5t-22 -58.5t-13.5 -55t-12 -52q-196 8 -321 10h-320q-39 0 -159 -10zM356 1450l189 330h184l191 -330h-31l-250 231l-252 -231h-31z" />
<glyph unicode="&#xcb;" horiz-adv-x="1220" d="M164 -10l2 26q12 0 22 2q75 8 104.5 34t29.5 87v996q0 61 -29 86.5t-105 33.5q-10 2 -22 2l-2 27l29 -2q120 -10 159 -10h639l39 -221h-29q-10 38 -17 59.5t-18 40t-20 26.5t-28.5 14t-38.5 7t-54 2l-364 4v-467h463v-65h-463v-479q0 -85 15 -102t89 -17h219 q77 0 120.5 15.5t71.5 46t73 104.5l34 4q-26 -47 -42.5 -86.5t-22 -58.5t-13.5 -55t-12 -52q-196 8 -321 10h-320q-39 0 -159 -10zM328 1567v14q37 15 68 46.5t46 68.5h15q15 -37 46 -68.5t68 -46.5v-14q-37 -15 -68 -46.5t-46 -68.5h-15q-15 37 -46 68.5t-68 46.5z M709 1567v14q37 15 68 46.5t46 68.5h15q15 -37 46 -68.5t68 -46.5v-14q-37 -15 -68 -46.5t-46 -68.5h-15q-15 37 -46 68.5t-68 46.5z" />
<glyph unicode="&#xcc;" horiz-adv-x="823" d="M102 1794h224l104 -346h-35zM184 -10l2 26q13 0 23 2q75 8 104 34t29 87v996q0 61 -29 86.5t-104 33.5q-10 2 -23 2l-2 27l29 -2q120 -10 160 -10h78q39 0 159 10l29 2l-2 -27q-13 0 -23 -2q-75 -8 -104 -33.5t-29 -86.5v-996q0 -61 29 -87t104 -34q10 -2 23 -2l2 -26 l-29 2q-120 10 -159 10h-78q-40 0 -160 -10z" />
<glyph unicode="&#xcd;" horiz-adv-x="823" d="M184 -10l2 26q13 0 23 2q75 8 104 34t29 87v996q0 61 -29 86.5t-104 33.5q-10 2 -23 2l-2 27l29 -2q120 -10 160 -10h78q39 0 159 10l29 2l-2 -27q-13 0 -23 -2q-75 -8 -104 -33.5t-29 -86.5v-996q0 -61 29 -87t104 -34q10 -2 23 -2l2 -26l-29 2q-120 10 -159 10h-78 q-40 0 -160 -10zM348 1448l105 346h223l-293 -346h-35z" />
<glyph unicode="&#xce;" horiz-adv-x="823" d="M123 1450l188 330h185l190 -330h-31l-249 231l-252 -231h-31zM184 -10l2 26q13 0 23 2q75 8 104 34t29 87v996q0 61 -29 86.5t-104 33.5q-10 2 -23 2l-2 27l29 -2q120 -10 160 -10h78q39 0 159 10l29 2l-2 -27q-13 0 -23 -2q-75 -8 -104 -33.5t-29 -86.5v-996 q0 -61 29 -87t104 -34q10 -2 23 -2l2 -26l-29 2q-120 10 -159 10h-78q-40 0 -160 -10z" />
<glyph unicode="&#xcf;" horiz-adv-x="823" d="M106 1567v14q37 15 68.5 46.5t46.5 68.5h15q15 -37 46 -68.5t68 -46.5v-14q-37 -15 -68 -46.5t-46 -68.5h-15q-15 37 -46.5 68.5t-68.5 46.5zM184 -10l2 26q13 0 23 2q75 8 104 34t29 87v996q0 61 -29 86.5t-104 33.5q-10 2 -23 2l-2 27l29 -2q120 -10 160 -10h78 q39 0 159 10l29 2l-2 -27q-13 0 -23 -2q-75 -8 -104 -33.5t-29 -86.5v-996q0 -61 29 -87t104 -34q10 -2 23 -2l2 -26l-29 2q-120 10 -159 10h-78q-40 0 -160 -10zM487 1567v14q37 15 68.5 46.5t46.5 68.5h14q15 -37 46.5 -68.5t68.5 -46.5v-14q-37 -15 -68.5 -46.5 t-46.5 -68.5h-14q-15 37 -46.5 68.5t-68.5 46.5z" />
<glyph unicode="&#xd0;" horiz-adv-x="1671" d="M82 582v94h240v459q0 61 -29 86.5t-105 33.5q-10 2 -22 2l-2 27l29 -2q120 -10 159 -10q332 10 420 10q151 0 286 -45t234 -124.5t157 -196.5t58 -254q0 -132 -55.5 -253t-151.5 -212t-234 -145t-294 -54l-420 4q-39 0 -159 -10l-29 -2l2 26q12 0 22 2q75 8 104.5 34 t29.5 87v443h-240zM461 229q0 -73 24 -110t89.5 -54.5t195.5 -17.5q163 0 295.5 84t205 223t72.5 301q0 168 -77.5 299.5t-208 202t-287.5 70.5l-309 -8v-543h291v-94h-291v-353z" />
<glyph unicode="&#xd1;" horiz-adv-x="1503" d="M164 -10l2 26q12 0 22 2q75 8 104.5 34t29.5 87v996q0 61 -29 86.5t-105 33.5q-10 2 -22 2l-2 27l29 -2q120 -10 159 -10h871q39 0 159 10l29 2l-2 -27q-13 0 -23 -2q-75 -8 -104 -33.5t-29 -86.5v-996q0 -61 29 -87t104 -34q10 -2 23 -2l2 -26l-29 2q-120 10 -159 10 h-78q-40 0 -160 -10l-29 -2l2 26q13 0 23 2q75 8 104 34t29 87v1055h-653v-1055q0 -61 29 -87t104 -34q10 -2 22 -2l2 -26l-28 2q-120 10 -160 10h-78q-39 0 -159 -10zM489 1452q15 199 166 199q25 0 50.5 -8.5t43.5 -19t56 -34.5q26 -17 39 -25t32.5 -15t36.5 -7 q36 0 64 28t29 81h41q-1 -56 -17.5 -97t-36.5 -59.5t-47 -29.5t-39 -12t-24 -1q-40 0 -70 13t-100 55q-43 26 -58.5 32.5t-36.5 6.5q-35 0 -62 -27t-26 -80h-41z" />
<glyph unicode="&#xd2;" horiz-adv-x="1794" d="M164 616q0 137 55.5 263t151.5 220t234 150t294 56q203 0 370 -80t266 -229t99 -339q0 -137 -55.5 -263t-151.5 -219.5t-234 -149.5t-294 -56q-151 0 -286 47t-234 130t-157 205t-58 265zM305 637q13 -125 66 -235.5t136.5 -193t201.5 -130t254 -47.5q128 0 234 48 t175 129.5t101.5 193t19.5 235.5q-13 125 -65.5 235.5t-136 193t-201.5 130t-254 47.5q-170 0 -298.5 -81.5t-189 -220t-43.5 -304.5zM616 1794h224l104 -346h-35z" />
<glyph unicode="&#xd3;" horiz-adv-x="1794" d="M164 616q0 137 55.5 263t151.5 220t234 150t294 56q203 0 370 -80t266 -229t99 -339q0 -137 -55.5 -263t-151.5 -219.5t-234 -149.5t-294 -56q-151 0 -286 47t-234 130t-157 205t-58 265zM305 637q13 -125 66 -235.5t136.5 -193t201.5 -130t254 -47.5q128 0 234 48 t175 129.5t101.5 193t19.5 235.5q-13 125 -65.5 235.5t-136 193t-201.5 130t-254 47.5q-170 0 -298.5 -81.5t-189 -220t-43.5 -304.5zM864 1448l105 346h223l-293 -346h-35z" />
<glyph unicode="&#xd4;" horiz-adv-x="1794" d="M164 616q0 137 55.5 263t151.5 220t234 150t294 56q203 0 370 -80t266 -229t99 -339q0 -137 -55.5 -263t-151.5 -219.5t-234 -149.5t-294 -56q-151 0 -286 47t-234 130t-157 205t-58 265zM305 637q13 -125 66 -235.5t136.5 -193t201.5 -130t254 -47.5q128 0 234 48 t175 129.5t101.5 193t19.5 235.5q-13 125 -65.5 235.5t-136 193t-201.5 130t-254 47.5q-170 0 -298.5 -81.5t-189 -220t-43.5 -304.5zM633 1450l188 330h185l190 -330h-31l-250 231l-251 -231h-31z" />
<glyph unicode="&#xd5;" horiz-adv-x="1794" d="M164 616q0 137 55.5 263t151.5 220t234 150t294 56q203 0 370 -80t266 -229t99 -339q0 -137 -55.5 -263t-151.5 -219.5t-234 -149.5t-294 -56q-151 0 -286 47t-234 130t-157 205t-58 265zM305 637q13 -125 66 -235.5t136.5 -193t201.5 -130t254 -47.5q128 0 234 48 t175 129.5t101.5 193t19.5 235.5q-13 125 -65.5 235.5t-136 193t-201.5 130t-254 47.5q-170 0 -298.5 -81.5t-189 -220t-43.5 -304.5zM584 1452q15 199 166 199q25 0 50.5 -8.5t42.5 -18.5t56 -35q71 -47 109 -47q36 0 63.5 28t28.5 81h41q-1 -56 -17.5 -97t-36.5 -59.5 t-47 -29.5t-39 -12t-24 -1q-40 0 -70 13t-100 55q-44 26 -58.5 32.5t-35.5 6.5q-35 0 -62 -27t-26 -80h-41z" />
<glyph unicode="&#xd6;" horiz-adv-x="1794" d="M164 616q0 137 55.5 263t151.5 220t234 150t294 56q203 0 370 -80t266 -229t99 -339q0 -137 -55.5 -263t-151.5 -219.5t-234 -149.5t-294 -56q-151 0 -286 47t-234 130t-157 205t-58 265zM305 637q13 -125 66 -235.5t136.5 -193t201.5 -130t254 -47.5q128 0 234 48 t175 129.5t101.5 193t19.5 235.5q-13 125 -65.5 235.5t-136 193t-201.5 130t-254 47.5q-170 0 -298.5 -81.5t-189 -220t-43.5 -304.5zM567 1567v14q37 15 68.5 46.5t46.5 68.5h14q15 -37 46.5 -68.5t68.5 -46.5v-14q-37 -15 -68.5 -46.5t-46.5 -68.5h-14q-15 37 -46.5 68.5 t-68.5 46.5zM948 1567v14q37 15 68.5 46.5t46.5 68.5h14q15 -37 46.5 -68.5t68.5 -46.5v-14q-37 -15 -68.5 -46.5t-46.5 -68.5h-14q-15 37 -46.5 68.5t-68.5 46.5z" />
<glyph unicode="&#xd7;" horiz-adv-x="1368" d="M193 244l415 413l-415 418l73 78l418 -420l418 420l76 -78l-418 -418l414 -413l-76 -76l-412 414l-418 -414z" />
<glyph unicode="&#xd8;" horiz-adv-x="1794" d="M164 616q0 137 55.5 263t151.5 220t234 150t294 56q248 0 434 -117l172 198l47 -40l-168 -193q118 -87 184 -214t66 -282q0 -137 -55.5 -263t-151.5 -219.5t-234 -149.5t-294 -56q-248 0 -434 117l-172 -199l-45 41l164 193q-117 87 -182.5 213.5t-65.5 281.5zM305 637 q25 -250 193 -418l755 877q-174 147 -417 147q-170 0 -298.5 -81.5t-189 -220t-43.5 -304.5zM543 176q179 -145 420 -145q128 0 234 48t175 129.5t101.5 193t19.5 235.5q-25 250 -193 418z" />
<glyph unicode="&#xd9;" horiz-adv-x="1527" d="M102 1286l29 -2q120 -10 160 -10h78q39 0 159 10l29 2l-2 -26q-8 0 -23 -3q-75 -8 -104 -33.5t-29 -86.5v-29q0 -238 29 -433t80 -327.5t115 -219t141 -130.5q77 44 140.5 130.5t115 219t80 327.5t28.5 433v29q0 61 -29 86.5t-104 33.5q-15 3 -22 3l-2 26l28 -2 q120 -10 160 -10h78q40 0 160 10l28 2l-2 -26q-7 0 -22 -3q-75 -8 -104 -33.5t-29 -86.5v-35q0 -191 -27.5 -359t-85.5 -320.5t-157 -275t-234 -202.5q-135 80 -234 202.5t-157 275t-85.5 320.5t-27.5 359v35q0 61 -29 86.5t-104 33.5q-15 3 -23 3zM489 1794h224l104 -346 h-35z" />
<glyph unicode="&#xda;" horiz-adv-x="1527" d="M102 1286l29 -2q120 -10 160 -10h78q39 0 159 10l29 2l-2 -26q-8 0 -23 -3q-75 -8 -104 -33.5t-29 -86.5v-29q0 -238 29 -433t80 -327.5t115 -219t141 -130.5q77 44 140.5 130.5t115 219t80 327.5t28.5 433v29q0 61 -29 86.5t-104 33.5q-15 3 -22 3l-2 26l28 -2 q120 -10 160 -10h78q40 0 160 10l28 2l-2 -26q-7 0 -22 -3q-75 -8 -104 -33.5t-29 -86.5v-35q0 -191 -27.5 -359t-85.5 -320.5t-157 -275t-234 -202.5q-135 80 -234 202.5t-157 275t-85.5 320.5t-27.5 359v35q0 61 -29 86.5t-104 33.5q-15 3 -23 3zM752 1448l104 346h223 l-293 -346h-34z" />
<glyph unicode="&#xdb;" horiz-adv-x="1527" d="M102 1286l29 -2q120 -10 160 -10h78q39 0 159 10l29 2l-2 -26q-8 0 -23 -3q-75 -8 -104 -33.5t-29 -86.5v-29q0 -238 29 -433t80 -327.5t115 -219t141 -130.5q77 44 140.5 130.5t115 219t80 327.5t28.5 433v29q0 61 -29 86.5t-104 33.5q-15 3 -22 3l-2 26l28 -2 q120 -10 160 -10h78q40 0 160 10l28 2l-2 -26q-7 0 -22 -3q-75 -8 -104 -33.5t-29 -86.5v-35q0 -191 -27.5 -359t-85.5 -320.5t-157 -275t-234 -202.5q-135 80 -234 202.5t-157 275t-85.5 320.5t-27.5 359v35q0 61 -29 86.5t-104 33.5q-15 3 -23 3zM494 1450l188 330h184 l191 -330h-31l-250 231l-252 -231h-30z" />
<glyph unicode="&#xdc;" horiz-adv-x="1527" d="M102 1286l29 -2q120 -10 160 -10h78q39 0 159 10l29 2l-2 -26q-8 0 -23 -3q-75 -8 -104 -33.5t-29 -86.5v-29q0 -238 29 -433t80 -327.5t115 -219t141 -130.5q77 44 140.5 130.5t115 219t80 327.5t28.5 433v29q0 61 -29 86.5t-104 33.5q-15 3 -22 3l-2 26l28 -2 q120 -10 160 -10h78q40 0 160 10l28 2l-2 -26q-7 0 -22 -3q-75 -8 -104 -33.5t-29 -86.5v-35q0 -191 -27.5 -359t-85.5 -320.5t-157 -275t-234 -202.5q-135 80 -234 202.5t-157 275t-85.5 320.5t-27.5 359v35q0 61 -29 86.5t-104 33.5q-15 3 -23 3zM459 1567v14 q37 15 68 46.5t46 68.5h15q15 -37 46 -68.5t68 -46.5v-14q-37 -15 -68 -46.5t-46 -68.5h-15q-15 37 -46 68.5t-68 46.5zM840 1567v14q37 15 68 46.5t46 68.5h15q15 -37 46 -68.5t68 -46.5v-14q-37 -15 -68 -46.5t-46 -68.5h-15q-15 37 -46 68.5t-68 46.5z" />
<glyph unicode="&#xdd;" horiz-adv-x="1386" d="M20 1284l29 -2q120 -10 180 -10h78q60 0 180 10l29 2l-2 -27q-12 0 -22 -2q-26 -2 -35.5 -3.5t-32.5 -5.5t-31.5 -9.5t-18.5 -15t-7.5 -24.5t14.5 -34l346 -553l322 516q18 28 20 50t-7 35t-30.5 22.5t-43 14t-52.5 7.5q-10 2 -23 2l-2 27l29 -2q120 -10 160 -10h78 q39 0 159 10l29 2l-2 -27q-13 0 -23 -2q-76 -8 -123.5 -45.5t-113.5 -142.5l-332 -528v-400q0 -61 29 -87t104 -34q10 -2 23 -2l2 -26l-29 2q-120 10 -160 10h-77q-40 0 -160 -10l-29 -2l2 26q13 0 23 2q75 8 104 34t29 87v361l-373 594q-63 100 -100 126.5t-115 34.5 q-10 2 -22 2zM635 1448l104 346h224l-293 -346h-35z" />
<glyph unicode="&#xde;" horiz-adv-x="1208" d="M164 -10l2 26q12 0 22 2q75 8 104.5 34t29.5 87v996q0 61 -29 86.5t-105 33.5q-10 2 -22 2l-2 27l29 -2q120 -10 159 -10h78q40 0 160 10l28 2l-2 -27q-12 0 -22 -2q-75 -8 -104 -33.5t-29 -86.5v-97q204 6 211 6q206 0 327 -91t121 -228q0 -119 -72.5 -215.5 t-190.5 -148.5t-255 -52q-40 0 -70 6v19q16 -2 52 -2q166 0 283.5 95t117.5 251q0 132 -97.5 225.5t-273.5 93.5q-100 0 -126.5 -16t-26.5 -84v-758q0 -61 29 -87t104 -34q10 -2 22 -2l2 -26l-28 2q-120 10 -160 10h-78q-39 0 -159 -10z" />
<glyph unicode="&#xdf;" horiz-adv-x="1277" d="M162 -10l2 26q12 0 22 2q75 8 104 34t29 87v510h-145v58h145v118q0 94 14 169t36 124.5t56 85.5t66 55t74.5 30t73.5 13.5t70 2.5q160 0 268 -82t108 -193q0 -104 -81.5 -184.5t-245.5 -128.5q169 -31 265.5 -119.5t96.5 -235.5q0 -175 -100 -281t-244 -106 q-41 0 -67.5 18.5t-26.5 47.5q0 23 14.5 39t34.5 16q15 0 37 -10l25 -14q47 -21 61 -21q48 0 80.5 81t32.5 202q0 135 -56.5 232t-156.5 118q-58 10 -183 10v31q347 26 347 299q0 120 -62.5 184t-169.5 64q-106 0 -166.5 -92.5t-60.5 -280.5v-760q0 -61 29 -87t104 -34 q10 -2 22 -2l2 -26l-28 2q-120 10 -160 10h-78q-40 0 -160 -10z" />
<glyph unicode="&#xe0;" d="M72 -10l2 28q12 0 22 2q72 7 92.5 31.5t20.5 89.5v9q3 265 97.5 474.5t281.5 319.5q188 -109 282 -316.5t99 -473.5v-13q0 -65 20 -89.5t92 -31.5q10 -2 23 -2l2 -28l-29 2q-120 10 -139 10h-74q-19 0 -139 -10l-29 -2l2 28q13 0 23 2q72 7 92.5 31.5t20.5 89.5v13 q0 24 -5 116h-481q-4 -78 -4 -120v-9q0 -65 20.5 -89.5t92.5 -31.5q10 -2 22 -2l2 -28l-28 2q-120 10 -140 10h-73q-20 0 -140 -10zM307 1417h223l105 -346h-35zM352 338h471q-19 227 -81 365t-154 190q-92 -49 -153.5 -187.5t-82.5 -367.5z" />
<glyph unicode="&#xe1;" d="M72 -10l2 28q12 0 22 2q72 7 92.5 31.5t20.5 89.5v9q3 265 97.5 474.5t281.5 319.5q188 -109 282 -316.5t99 -473.5v-13q0 -65 20 -89.5t92 -31.5q10 -2 23 -2l2 -28l-29 2q-120 10 -139 10h-74q-19 0 -139 -10l-29 -2l2 28q13 0 23 2q72 7 92.5 31.5t20.5 89.5v13 q0 24 -5 116h-481q-4 -78 -4 -120v-9q0 -65 20.5 -89.5t92.5 -31.5q10 -2 22 -2l2 -28l-28 2q-120 10 -140 10h-73q-20 0 -140 -10zM352 338h471q-19 227 -81 365t-154 190q-92 -49 -153.5 -187.5t-82.5 -367.5zM528 1071l105 346h223l-293 -346h-35z" />
<glyph unicode="&#xe2;" d="M72 -10l2 28q12 0 22 2q72 7 92.5 31.5t20.5 89.5v9q3 265 97.5 474.5t281.5 319.5q188 -109 282 -316.5t99 -473.5v-13q0 -65 20 -89.5t92 -31.5q10 -2 23 -2l2 -28l-29 2q-120 10 -139 10h-74q-19 0 -139 -10l-29 -2l2 28q13 0 23 2q72 7 92.5 31.5t20.5 89.5v13 q0 24 -5 116h-481q-4 -78 -4 -120v-9q0 -65 20.5 -89.5t92.5 -31.5q10 -2 22 -2l2 -28l-28 2q-120 10 -140 10h-73q-20 0 -140 -10zM297 1067l188 330h185l190 -330h-31l-249 231l-252 -231h-31zM352 338h471q-19 227 -81 365t-154 190q-92 -49 -153.5 -187.5t-82.5 -367.5z " />
<glyph unicode="&#xe3;" d="M72 -10l2 28q12 0 22 2q72 7 92.5 31.5t20.5 89.5v9q3 265 97.5 474.5t281.5 319.5q188 -109 282 -316.5t99 -473.5v-13q0 -65 20 -89.5t92 -31.5q10 -2 23 -2l2 -28l-29 2q-120 10 -139 10h-74q-19 0 -139 -10l-29 -2l2 28q13 0 23 2q72 7 92.5 31.5t20.5 89.5v13 q0 24 -5 116h-481q-4 -78 -4 -120v-9q0 -65 20.5 -89.5t92.5 -31.5q10 -2 22 -2l2 -28l-28 2q-120 10 -140 10h-73q-20 0 -140 -10zM303 1069q15 199 166 199q25 0 50.5 -8.5t42.5 -18.5t56 -35q71 -47 109 -47q36 0 63.5 28t28.5 81h41q-1 -56 -17.5 -97t-36.5 -59.5 t-47 -29.5t-39 -12t-24 -1q-40 0 -70 13t-100 55q-44 26 -58.5 32.5t-35.5 6.5q-35 0 -62 -27t-26 -80h-41zM352 338h471q-19 227 -81 365t-154 190q-92 -49 -153.5 -187.5t-82.5 -367.5z" />
<glyph unicode="&#xe4;" d="M72 -10l2 28q12 0 22 2q72 7 92.5 31.5t20.5 89.5v9q3 265 97.5 474.5t281.5 319.5q188 -109 282 -316.5t99 -473.5v-13q0 -65 20 -89.5t92 -31.5q10 -2 23 -2l2 -28l-29 2q-120 10 -139 10h-74q-19 0 -139 -10l-29 -2l2 28q13 0 23 2q72 7 92.5 31.5t20.5 89.5v13 q0 24 -5 116h-481q-4 -78 -4 -120v-9q0 -65 20.5 -89.5t92.5 -31.5q10 -2 22 -2l2 -28l-28 2q-120 10 -140 10h-73q-20 0 -140 -10zM244 1184v14q39 15 72 46.5t51 68.5h14q17 -37 51.5 -68.5t73.5 -46.5v-14q-39 -15 -73.5 -46.5t-51.5 -68.5h-14q-18 37 -51 68.5t-72 46.5 zM352 338h471q-19 227 -81 365t-154 190q-92 -49 -153.5 -187.5t-82.5 -367.5zM653 1184v14q38 15 72 46.5t51 68.5h15q17 -37 51 -68.5t73 -46.5v-14q-39 -15 -73 -46.5t-51 -68.5h-15q-17 37 -51 68.5t-72 46.5z" />
<glyph unicode="&#xe5;" />
<glyph unicode="&#xe6;" horiz-adv-x="1341" d="M0 68l12 26q13 -6 23 -8q36 -10 59 -11t40 9t27 25.5t23 46.5l248 614q42 101 -92 115q-10 2 -23 2l-2 28l29 -2l139 -10h545l35 -168l-33 2q-19 70 -38.5 85.5t-84.5 17.5l-338 4l142 -316h333v-57h-307l144 -330q21 -45 52 -61.5t83 -16.5h20q40 0 63.5 4t43.5 21.5 t30.5 33t36.5 58.5l45 4q-15 -25 -26 -46.5t-17.5 -34.5t-12.5 -31t-8 -24.5t-7 -26.5t-6 -25q-134 4 -224 6q-73 0 -116 -10q-37 -9 -57 -18t-66 -37l-25 -15l-10 29q10 4 20 10q62 37 71.5 69.5t-17.5 86.5l-37 84h-443l-28 -70q-26 -54 -15 -87t74 -67l21 -10l-9 -28 l-26 14q-119 59 -125 61l-6 2q-16 6 -33 11.5t-45 14t-55 17.5zM299 264h389l-205 459z" />
<glyph unicode="&#xe7;" horiz-adv-x="1126" d="M133 438q0 132 68.5 246t192.5 183t276 69q62 0 118.5 -14t83 -27.5t59 -20.5t46.5 7l14 -201l-28 2q-33 111 -110.5 155t-201.5 44q-112 0 -201.5 -61.5t-136 -163t-41.5 -218.5q9 -183 129 -298t287 -115q131 0 202 49t85 180h37l-25 -199q-47 -33 -141 -59.5 t-176 -26.5q-62 0 -109 8l-51 -75q55 -21 89 -63.5t34 -94.5q0 -71 -55.5 -121.5t-139.5 -50.5q-44 0 -119 33l19 39q18 -10 50.5 -17.5t55.5 -7.5q43 0 76 36t33 75q0 37 -32.5 63.5t-76.5 26.5q-40 0 -84 -27l-43 -26l179 225q-163 44 -263 162.5t-100 283.5z" />
<glyph unicode="&#xe8;" horiz-adv-x="942" d="M133 -10l2 28q13 0 23 2q72 7 92 31.5t20 89.5v623q0 65 -20 89.5t-92 31.5q-10 2 -23 2l-2 28l29 -2q120 -10 139 -10h475l35 -168l-33 2q-19 70 -38.5 85.5t-84.5 17.5l-256 4v-316h334v-57h-334v-330q0 -55 10 -66.5t60 -11.5h158q53 0 84 11.5t50.5 33t49.5 72.5 l45 4q-13 -21 -22.5 -39t-17 -34t-12 -26t-9 -25t-6.5 -20t-6 -22t-5 -22q-143 4 -233 6h-244q-19 0 -139 -10zM295 1417h223l105 -346h-35z" />
<glyph unicode="&#xe9;" horiz-adv-x="942" d="M133 -10l2 28q13 0 23 2q72 7 92 31.5t20 89.5v623q0 65 -20 89.5t-92 31.5q-10 2 -23 2l-2 28l29 -2q120 -10 139 -10h475l35 -168l-33 2q-19 70 -38.5 85.5t-84.5 17.5l-256 4v-316h334v-57h-334v-330q0 -55 10 -66.5t60 -11.5h158q53 0 84 11.5t50.5 33t49.5 72.5 l45 4q-13 -21 -22.5 -39t-17 -34t-12 -26t-9 -25t-6.5 -20t-6 -22t-5 -22q-143 4 -233 6h-244q-19 0 -139 -10zM424 1071l104 346h224l-293 -346h-35z" />
<glyph unicode="&#xea;" horiz-adv-x="942" d="M133 -10l2 28q13 0 23 2q72 7 92 31.5t20 89.5v623q0 65 -20 89.5t-92 31.5q-10 2 -23 2l-2 28l29 -2q120 -10 139 -10h475l35 -168l-33 2q-19 70 -38.5 85.5t-84.5 17.5l-256 4v-316h334v-57h-334v-330q0 -55 10 -66.5t60 -11.5h158q53 0 84 11.5t50.5 33t49.5 72.5 l45 4q-13 -21 -22.5 -39t-17 -34t-12 -26t-9 -25t-6.5 -20t-6 -22t-5 -22q-143 4 -233 6h-244q-19 0 -139 -10zM221 1067l189 330h184l190 -330h-30l-250 231l-252 -231h-31z" />
<glyph unicode="&#xeb;" horiz-adv-x="942" d="M133 -10l2 28q13 0 23 2q72 7 92 31.5t20 89.5v623q0 65 -20 89.5t-92 31.5q-10 2 -23 2l-2 28l29 -2q120 -10 139 -10h475l35 -168l-33 2q-19 70 -38.5 85.5t-84.5 17.5l-256 4v-316h334v-57h-334v-330q0 -55 10 -66.5t60 -11.5h158q53 0 84 11.5t50.5 33t49.5 72.5 l45 4q-13 -21 -22.5 -39t-17 -34t-12 -26t-9 -25t-6.5 -20t-6 -22t-5 -22q-143 4 -233 6h-244q-19 0 -139 -10zM180 1184v14q37 15 68.5 46.5t46.5 68.5h14q15 -37 46.5 -68.5t68.5 -46.5v-14q-37 -15 -68.5 -46.5t-46.5 -68.5h-14q-15 37 -46.5 68.5t-68.5 46.5zM561 1184 v14q37 15 68.5 46.5t46.5 68.5h14q15 -37 46.5 -68.5t68.5 -46.5v-14q-37 -15 -68.5 -46.5t-46.5 -68.5h-14q-15 37 -46.5 68.5t-68.5 46.5z" />
<glyph unicode="&#xec;" horiz-adv-x="706" />
<glyph unicode="&#xed;" horiz-adv-x="706" />
<glyph unicode="&#xee;" horiz-adv-x="706" />
<glyph unicode="&#xef;" horiz-adv-x="706" d="M41 1184v14q37 15 68.5 46.5t46.5 68.5h14q15 -37 46.5 -68.5t68.5 -46.5v-14q-37 -15 -68.5 -46.5t-46.5 -68.5h-14q-15 37 -46.5 68.5t-68.5 46.5zM152 -10l2 28q12 0 22 2q72 7 92.5 31.5t20.5 89.5v623q0 65 -20.5 89.5t-92.5 31.5q-10 2 -22 2l-2 28l28 -2 q120 -10 139 -10h68q19 0 139 10l29 2l-2 -28q-13 0 -23 -2q-72 -7 -92 -31.5t-20 -89.5v-623q0 -65 20 -89.5t92 -31.5q10 -2 23 -2l2 -28l-29 2q-120 10 -139 10h-68q-19 0 -139 -10zM422 1184v14q37 15 68.5 46.5t46.5 68.5h14q15 -37 46.5 -68.5t68.5 -46.5v-14 q-37 -15 -68.5 -46.5t-46.5 -68.5h-14q-15 37 -46.5 68.5t-68.5 46.5z" />
<glyph unicode="&#xf0;" horiz-adv-x="1286" d="M51 420v86h219v258q0 65 -20 89.5t-92 31.5q-10 2 -23 2l-2 28l29 -2q120 -10 215 -10q176 6 239 6q227 0 382 -123t155 -317q0 -93 -40.5 -179t-111 -150.5t-171 -103t-214.5 -38.5l-315 4q-19 0 -139 -10l-29 -2l2 28q13 0 23 2q72 7 92 31.5t20 89.5v279h-219z M399 166q0 -71 42 -96t171 -25q112 0 204.5 58.5t143 154.5t50.5 207q0 174 -115.5 283.5t-282.5 109.5q-114 0 -213 -6v-346h322v-86h-322v-254z" />
<glyph unicode="&#xf1;" horiz-adv-x="1239" d="M133 -10l2 28q13 0 23 2q72 7 92 31.5t20 89.5v623q0 65 -20 89.5t-92 31.5q-10 2 -23 2l-2 28l29 -2q120 -10 139 -10h637q19 0 139 10l29 2l-2 -28q-13 0 -23 -2q-72 -7 -92 -31.5t-20 -89.5v-623q0 -65 20 -89.5t92 -31.5q10 -2 23 -2l2 -28l-29 2q-120 10 -139 10 h-68q-19 0 -139 -10l-29 -2l3 28q12 0 22 2q72 7 92.5 31.5t20.5 89.5v695h-441v-695q0 -65 20.5 -89.5t92.5 -31.5q10 -2 23 -2l2 -28l-29 2q-120 10 -139 10h-68q-19 0 -139 -10zM338 1069q15 199 166 199q25 0 50.5 -8.5t42.5 -18.5t56 -35q71 -47 109 -47q36 0 63.5 28 t28.5 81h41q-1 -56 -17.5 -97t-36.5 -59.5t-47 -29.5t-39 -12t-24 -1q-40 0 -70 13t-100 55q-44 26 -58.5 32.5t-35.5 6.5q-35 0 -62 -27t-26 -80h-41z" />
<glyph unicode="&#xf2;" horiz-adv-x="1337" d="M133 438q0 132 68.5 246t192.5 183t276 69q147 0 268.5 -57.5t193.5 -165.5t72 -246q0 -99 -40 -190t-109.5 -159t-170 -108.5t-214.5 -40.5q-148 0 -270 57.5t-194.5 165.5t-72.5 246zM264 453q19 -178 142.5 -299t306.5 -121q175 0 277.5 122.5t84.5 297.5 q-21 178 -143 297.5t-305 119.5q-116 0 -204 -56.5t-129 -151.5t-30 -209zM375 1417h223l104 -346h-34z" />
<glyph unicode="&#xf3;" horiz-adv-x="1337" d="M133 438q0 132 68.5 246t192.5 183t276 69q147 0 268.5 -57.5t193.5 -165.5t72 -246q0 -99 -40 -190t-109.5 -159t-170 -108.5t-214.5 -40.5q-148 0 -270 57.5t-194.5 165.5t-72.5 246zM264 453q19 -178 142.5 -299t306.5 -121q175 0 277.5 122.5t84.5 297.5 q-21 178 -143 297.5t-305 119.5q-116 0 -204 -56.5t-129 -151.5t-30 -209zM580 1071l104 346h223l-293 -346h-34z" />
<glyph unicode="&#xf4;" horiz-adv-x="1337" d="M133 438q0 132 68.5 246t192.5 183t276 69q147 0 268.5 -57.5t193.5 -165.5t72 -246q0 -99 -40 -190t-109.5 -159t-170 -108.5t-214.5 -40.5q-148 0 -270 57.5t-194.5 165.5t-72.5 246zM264 453q19 -178 142.5 -299t306.5 -121q175 0 277.5 122.5t84.5 297.5 q-21 178 -143 297.5t-305 119.5q-116 0 -204 -56.5t-129 -151.5t-30 -209zM371 1067l188 330h184l191 -330h-31l-250 231l-252 -231h-30z" />
<glyph unicode="&#xf5;" horiz-adv-x="1337" d="M133 438q0 132 68.5 246t192.5 183t276 69q147 0 268.5 -57.5t193.5 -165.5t72 -246q0 -99 -40 -190t-109.5 -159t-170 -108.5t-214.5 -40.5q-148 0 -270 57.5t-194.5 165.5t-72.5 246zM264 453q19 -178 142.5 -299t306.5 -121q175 0 277.5 122.5t84.5 297.5 q-21 178 -143 297.5t-305 119.5q-116 0 -204 -56.5t-129 -151.5t-30 -209zM379 1069q15 199 166 199q25 0 50.5 -8.5t42.5 -18.5t56 -35q71 -47 109 -47q36 0 63.5 28t28.5 81h41q-1 -56 -17.5 -97t-36.5 -59.5t-47 -29.5t-39 -12t-24 -1q-40 0 -70 13t-100 55 q-44 26 -58.5 32.5t-35.5 6.5q-35 0 -62 -27t-26 -80h-41z" />
<glyph unicode="&#xf6;" horiz-adv-x="1337" d="M133 438q0 132 68.5 246t192.5 183t276 69q147 0 268.5 -57.5t193.5 -165.5t72 -246q0 -99 -40 -190t-109.5 -159t-170 -108.5t-214.5 -40.5q-148 0 -270 57.5t-194.5 165.5t-72.5 246zM264 453q19 -178 142.5 -299t306.5 -121q175 0 277.5 122.5t84.5 297.5 q-21 178 -143 297.5t-305 119.5q-116 0 -204 -56.5t-129 -151.5t-30 -209zM346 1184v14q37 15 68.5 46.5t46.5 68.5h14q15 -37 46.5 -68.5t68.5 -46.5v-14q-37 -15 -68.5 -46.5t-46.5 -68.5h-14q-15 37 -46.5 68.5t-68.5 46.5zM727 1184v14q37 15 68.5 46.5t46.5 68.5h14 q15 -37 46.5 -68.5t68.5 -46.5v-14q-37 -15 -68.5 -46.5t-46.5 -68.5h-14q-15 37 -46.5 68.5t-68.5 46.5z" />
<glyph unicode="&#xf7;" horiz-adv-x="1368" d="M143 606v105h1082v-105h-1082zM608 250q0 31 21.5 51.5t52.5 20.5t51.5 -20.5t20.5 -51.5q0 -30 -21 -51t-51 -21q-31 0 -52.5 21.5t-21.5 50.5zM608 1079q1 28 23 47t51 19t50.5 -20.5t21.5 -49.5q0 -31 -21.5 -52.5t-50.5 -21.5q-31 0 -52.5 23t-21.5 55z" />
<glyph unicode="&#xf8;" horiz-adv-x="1337" d="M133 438q0 132 68.5 246t192.5 183t276 69q164 0 299 -74l125 154l41 -39l-119 -146q89 -63 138.5 -156.5t49.5 -207.5q0 -99 -40 -190t-109.5 -159t-170 -108.5t-214.5 -40.5q-164 0 -299 74l-125 -154l-39 39l117 144q-90 63 -140.5 156.5t-50.5 209.5zM264 453 q18 -173 133 -291l504 616q-119 92 -274 92q-116 0 -204 -56.5t-129 -151.5t-30 -209zM438 125q119 -92 275 -92q175 0 277.5 122.5t84.5 297.5q-18 170 -133 288z" />
<glyph unicode="&#xf9;" d="M72 915l28 -2q120 -10 140 -10h73q20 0 140 10l28 2l-2 -28q-12 0 -22 -2q-72 -7 -92.5 -31.5t-20.5 -89.5v-12q4 -311 70.5 -495t175.5 -245q109 61 175 246t69 498v8q0 65 -20.5 89.5t-92.5 31.5q-10 2 -23 2l-2 28l29 -2q120 -10 139 -10h74q19 0 139 10l29 2l-2 -28 q-13 0 -23 -2q-72 -7 -92 -31.5t-20 -89.5v-8q-3 -265 -97.5 -475t-281.5 -320q-188 109 -282 317t-99 474v12q0 65 -20.5 89.5t-92.5 31.5q-10 2 -22 2zM311 1417h224l104 -346h-35z" />
<glyph unicode="&#xfa;" d="M72 915l28 -2q120 -10 140 -10h73q20 0 140 10l28 2l-2 -28q-12 0 -22 -2q-72 -7 -92.5 -31.5t-20.5 -89.5v-12q4 -311 70.5 -495t175.5 -245q109 61 175 246t69 498v8q0 65 -20.5 89.5t-92.5 31.5q-10 2 -23 2l-2 28l29 -2q120 -10 139 -10h74q19 0 139 10l29 2l-2 -28 q-13 0 -23 -2q-72 -7 -92 -31.5t-20 -89.5v-8q-3 -265 -97.5 -475t-281.5 -320q-188 109 -282 317t-99 474v12q0 65 -20.5 89.5t-92.5 31.5q-10 2 -22 2zM545 1071l104 346h223l-292 -346h-35z" />
<glyph unicode="&#xfb;" d="M72 915l28 -2q120 -10 140 -10h73q20 0 140 10l28 2l-2 -28q-12 0 -22 -2q-72 -7 -92.5 -31.5t-20.5 -89.5v-12q4 -311 70.5 -495t175.5 -245q109 61 175 246t69 498v8q0 65 -20.5 89.5t-92.5 31.5q-10 2 -23 2l-2 28l29 -2q120 -10 139 -10h74q19 0 139 10l29 2l-2 -28 q-13 0 -23 -2q-72 -7 -92 -31.5t-20 -89.5v-8q-3 -265 -97.5 -475t-281.5 -320q-188 109 -282 317t-99 474v12q0 65 -20.5 89.5t-92.5 31.5q-10 2 -22 2zM315 1067l189 330h184l191 -330h-31l-250 231l-252 -231h-31z" />
<glyph unicode="&#xfc;" d="M72 915l28 -2q120 -10 140 -10h73q20 0 140 10l28 2l-2 -28q-12 0 -22 -2q-72 -7 -92.5 -31.5t-20.5 -89.5v-12q4 -311 70.5 -495t175.5 -245q109 61 175 246t69 498v8q0 65 -20.5 89.5t-92.5 31.5q-10 2 -23 2l-2 28l29 -2q120 -10 139 -10h74q19 0 139 10l29 2l-2 -28 q-13 0 -23 -2q-72 -7 -92 -31.5t-20 -89.5v-8q-3 -265 -97.5 -475t-281.5 -320q-188 109 -282 317t-99 474v12q0 65 -20.5 89.5t-92.5 31.5q-10 2 -22 2zM274 1184v14q37 15 68.5 46.5t46.5 68.5h14q15 -37 46.5 -68.5t68.5 -46.5v-14q-37 -15 -68.5 -46.5t-46.5 -68.5h-14 q-15 37 -46.5 68.5t-68.5 46.5zM655 1184v14q37 15 68.5 46.5t46.5 68.5h14q15 -37 46.5 -68.5t68.5 -46.5v-14q-37 -15 -68.5 -46.5t-46.5 -68.5h-14q-15 37 -46.5 68.5t-68.5 46.5z" />
<glyph unicode="&#xfd;" horiz-adv-x="1036" d="M0 915l29 -2q120 -10 139 -10h65q34 0 154 10l29 2l-2 -28q-13 0 -23 -2q-33 -3 -47.5 -13t-11.5 -26.5t11 -31t23 -37.5q6 -9 9 -13l200 -299l193 299q22 34 26 57.5t-16.5 41t-68.5 22.5q-10 2 -23 2l-2 28l29 -2q120 -10 139 -10h16q20 0 140 10l28 2l-2 -28 q-12 0 -22 -2q-36 -4 -62.5 -14t-47.5 -30.5t-31 -33.5t-29 -43l-240 -371v-252q0 -65 20.5 -89.5t92.5 -31.5q10 -2 22 -2l2 -28l-28 2q-120 10 -140 10h-67q-19 0 -139 -10l-29 -2l2 28q12 0 22 2q72 7 92.5 31.5t20.5 89.5v242l-256 381q-73 109 -192 121q-10 2 -23 2z M496 1071l104 346h223l-293 -346h-34z" />
<glyph unicode="&#xfe;" horiz-adv-x="942" d="M133 -10l2 28q13 0 23 2q72 7 92 31.5t20 89.5v623q0 65 -20 89.5t-92 31.5q-10 2 -23 2l-2 28l29 -2q120 -10 139 -10h68q19 0 139 10l29 2l-2 -28q-13 0 -23 -2q-72 -7 -92.5 -31.5t-20.5 -89.5v-29q14 0 62.5 1t83.5 1q151 0 240 -66t89 -163q0 -129 -112 -213 t-268 -84q-23 0 -43 2v27h26q110 0 188 64.5t78 170.5q0 91 -64 154t-181 63q-65 0 -82 -9.5t-17 -53.5v-488q0 -65 20.5 -89.5t92.5 -31.5q10 -2 23 -2l2 -28l-29 2q-120 10 -139 10h-68q-19 0 -139 -10z" />
<glyph unicode="&#xff;" horiz-adv-x="1036" d="M0 915l29 -2q120 -10 139 -10h65q34 0 154 10l29 2l-2 -28q-13 0 -23 -2q-33 -3 -47.5 -13t-11.5 -26.5t11 -31t23 -37.5q6 -9 9 -13l200 -299l193 299q22 34 26 57.5t-16.5 41t-68.5 22.5q-10 2 -23 2l-2 28l29 -2q120 -10 139 -10h16q20 0 140 10l28 2l-2 -28 q-12 0 -22 -2q-36 -4 -62.5 -14t-47.5 -30.5t-31 -33.5t-29 -43l-240 -371v-252q0 -65 20.5 -89.5t92.5 -31.5q10 -2 22 -2l2 -28l-28 2q-120 10 -140 10h-67q-19 0 -139 -10l-29 -2l2 28q12 0 22 2q72 7 92.5 31.5t20.5 89.5v242l-256 381q-73 109 -192 121q-10 2 -23 2z M217 1184v14q37 15 68.5 46.5t46.5 68.5h14q15 -37 46.5 -68.5t68.5 -46.5v-14q-37 -15 -68.5 -46.5t-46.5 -68.5h-14q-15 37 -46.5 68.5t-68.5 46.5zM598 1184v14q37 15 68.5 46.5t46.5 68.5h14q15 -37 46.5 -68.5t68.5 -46.5v-14q-37 -15 -68.5 -46.5t-46.5 -68.5h-14 q-15 37 -46.5 68.5t-68.5 46.5z" />
<glyph unicode="&#x2000;" horiz-adv-x="897" />
<glyph unicode="&#x2001;" horiz-adv-x="1794" />
<glyph unicode="&#x2002;" horiz-adv-x="897" />
<glyph unicode="&#x2003;" horiz-adv-x="1794" />
<glyph unicode="&#x2004;" horiz-adv-x="598" />
<glyph unicode="&#x2005;" horiz-adv-x="448" />
<glyph unicode="&#x2006;" horiz-adv-x="299" />
<glyph unicode="&#x2007;" horiz-adv-x="299" />
<glyph unicode="&#x2008;" horiz-adv-x="224" />
<glyph unicode="&#x2009;" horiz-adv-x="358" />
<glyph unicode="&#x200a;" horiz-adv-x="99" />
<glyph unicode="&#x2010;" horiz-adv-x="833" d="M82 582v94h670v-94h-670z" />
<glyph unicode="&#x2011;" horiz-adv-x="833" d="M82 582v94h670v-94h-670z" />
<glyph unicode="&#x2012;" horiz-adv-x="833" d="M82 582v94h670v-94h-670z" />
<glyph unicode="&#x2013;" horiz-adv-x="1187" d="M82 582v94h1024v-94h-1024z" />
<glyph unicode="&#x2014;" horiz-adv-x="2211" d="M82 582v94h2048v-94h-2048z" />
<glyph unicode="&#x202f;" horiz-adv-x="358" />
<glyph unicode="&#x205f;" horiz-adv-x="448" />
<glyph unicode="&#xe000;" horiz-adv-x="911" d="M0 0v911h911v-911h-911z" />
<glyph unicode="&#xfb01;" horiz-adv-x="1566" d="M133 -10l2 28q13 0 23 2q72 7 92 31.5t20 89.5v623q0 65 -20 89.5t-92 31.5q-10 2 -23 2l-2 28l29 -2q120 -10 139 -10h475l35 -168l-33 2q-19 70 -38.5 85.5t-84.5 17.5l-256 4v-316h334v-57h-334v-330q0 -65 20.5 -89.5t92.5 -31.5q10 -2 23 -2l2 -28l-29 2 q-120 10 -139 10h-68q-19 0 -139 -10zM1012 -10l2 28q12 0 22 2q72 7 92.5 31.5t20.5 89.5v623q0 65 -20.5 89.5t-92.5 31.5q-10 2 -22 2l-2 28l28 -2q120 -10 140 -10h67q19 0 139 10l29 2l-2 -28q-12 0 -22 -2q-72 -7 -92.5 -31.5t-20.5 -89.5v-623q0 -65 20.5 -89.5 t92.5 -31.5q10 -2 22 -2l2 -28l-29 2q-120 10 -139 10h-67q-20 0 -140 -10zM1092 1149v14q37 15 68 46.5t46 68.5h15q15 -37 46 -68.5t68 -46.5v-14q-37 -15 -68 -46.5t-46 -68.5h-15q-15 37 -46 68.5t-68 46.5z" />
<glyph unicode="&#xfb02;" horiz-adv-x="1785" d="M133 -10l2 28q13 0 23 2q72 7 92 31.5t20 89.5v623q0 65 -20 89.5t-92 31.5q-10 2 -23 2l-2 28l29 -2q120 -10 139 -10h475l35 -168l-33 2q-19 70 -38.5 85.5t-84.5 17.5l-256 4v-316h334v-57h-334v-330q0 -65 20.5 -89.5t92.5 -31.5q10 -2 23 -2l2 -28l-29 2 q-120 10 -139 10h-68q-19 0 -139 -10zM993 -10l2 28q13 0 23 2q72 7 92 31.5t20 89.5v623q0 65 -20 89.5t-92 31.5q-10 2 -23 2l-2 28l29 -2q120 -10 139 -10h68q19 0 139 10l29 2l-2 -28q-13 0 -23 -2q-72 -7 -92 -31.5t-20 -89.5v-623q0 -56 10 -67t59 -11h152 q58 0 84.5 6.5t46 23.5t59.5 67l49 61h47q-94 -123 -122 -227q-295 8 -414 8h-70q-19 0 -139 -10z" />
</font>
</defs>
</svg>
